g Box066
v 18.13183 -17.57639 7.324219E-07
v 3.90625E-06 -17.57639 7.324219E-07
v -9.765625E-07 -9.765625E-07 7.324219E-07
v 18.13183 -9.765625E-07 7.324219E-07
v 18.13183 -17.57639 -0.7999993
v 3.90625E-06 -17.57639 -0.7999993
v 3.90625E-06 -17.57639 7.324219E-07
v 18.13183 -17.57639 7.324219E-07
v 18.13183 -9.765625E-07 -0.7999993
v 18.13183 -17.57639 -0.7999993
v 18.13183 -17.57639 7.324219E-07
v 18.13183 -9.765625E-07 7.324219E-07
v -9.765625E-07 -9.765625E-07 -0.7999993
v 18.13183 -9.765625E-07 -0.7999993
v 18.13183 -9.765625E-07 7.324219E-07
v -9.765625E-07 -9.765625E-07 7.324219E-07
v 3.90625E-06 -17.57639 -0.7999993
v -9.765625E-07 -9.765625E-07 -0.7999993
v -9.765625E-07 -9.765625E-07 7.324219E-07
v 3.90625E-06 -17.57639 7.324219E-07
vt -0.748754 -1.437413
vt -0.748754 1.708912
vt 2.189338 1.708913
vt 2.189338 -1.437413
vt 1.984583 0.2378302
vt 1.984583 0.2378302
vt 1.984583 0.2378302
vt 1.984583 0.2378302
vt 1.984583 0.2378302
vt 1.984583 0.2378302
vt 1.984583 0.2378302
vt 1.984583 0.2378302
vt 1.984583 0.2378302
vt 1.984583 0.2378302
vt 1.984583 0.2378302
vt 1.984583 0.2378302
vt 1.984583 0.2378302
vt 1.984583 0.2378302
vt 1.984583 0.2378302
vt 1.984583 0.2378302
vn 0 0 1
vn 0 0 1
vn 0 0 1
vn 0 0 1
vn 0 -1 0
vn 0 -1 0
vn 0 -1 0
vn 0 -1 0
vn 1 2.778052E-07 0
vn 1 2.778052E-07 0
vn 1 2.778052E-07 0
vn 1 2.778052E-07 0
vn 0 1 0
vn 0 1 0
vn 0 1 0
vn 0 1 0
vn -1 -2.778052E-07 0
vn -1 -2.778052E-07 0
vn -1 -2.778052E-07 0
vn -1 -2.778052E-07 0
g Box066_0
f 3/3/3 2/2/2 1/1/1
f 4/4/4 3/3/3 1/1/1
f 7/7/7 6/6/6 5/5/5
f 8/8/8 7/7/7 5/5/5
f 11/11/11 10/10/10 9/9/9
f 12/12/12 11/11/11 9/9/9
f 15/15/15 14/14/14 13/13/13
f 16/16/16 15/15/15 13/13/13
f 19/19/19 18/18/18 17/17/17
f 20/20/20 19/19/19 17/17/17
