g Car_035_lunzi_FR
v 0.1112835 -1.525879E-07 0.2096557
v -0.09532589 -1.525879E-07 0.209656
v -0.09532589 0.1048277 0.1815671
v 0.1112835 0.1048277 0.1815671
v 0.1112835 -0.1048282 0.1815669
v -0.09532586 -0.1048282 0.1815669
v -0.1111718 -1.525879E-07 0.1660175
v -0.1111718 0.08300873 0.143775
v -0.09532589 0.1815674 0.1048279
v -0.1111718 0.1437755 0.0830088
v -0.09532592 0.2096559 1.883258E-08
v -0.1111718 0.1660173 -2.469191E-08
v -0.09532589 0.1815674 -0.1048279
v -0.1111718 0.1437752 -0.08300887
v -0.09532589 0.1048282 -0.1815673
v -0.1111718 0.08300903 -0.1437753
v -0.09532589 1.525879E-07 -0.2096561
v -0.1111718 1.525879E-07 -0.1660175
v 0.1112835 0.1815671 0.1048279
v 0.1112834 0.2096559 1.883256E-08
v 0.1112838 0.1815674 -0.1048279
v 0.1112838 0.1048282 -0.1815673
v 0.1112835 1.525879E-07 -0.2096561
v 0.1271293 0.1437755 0.08300845
v 0.1271293 0.1660173 -3.763408E-07
v 0.1271297 0.1437753 -0.08300887
v 0.1271293 0.08300857 -0.1437756
v 0.1271293 0.08300873 0.1437754
v 0.1271293 -1.525879E-07 0.1660175
v 0.1271293 1.525879E-07 -0.1660175
v 0.1271294 -0.08300903 0.1437749
v 0.1271297 -0.1437752 0.08300815
v 0.1112835 -0.1815674 0.1048276
v 0.1271297 -0.1660173 -3.558585E-07
v 0.1112835 -0.2096559 -3.99383E-07
v -0.09532586 -0.1815674 0.1048272
v -0.09532586 -0.2096559 -3.993829E-07
v -0.1111717 -0.1660173 -3.558585E-07
v -0.1111717 -0.1437752 -0.08300917
v -0.09532586 -0.1815671 -0.1048283
v -0.1111717 -0.08300842 -0.1437758
v -0.09532586 -0.1048277 -0.1815675
v -0.1111718 1.525879E-07 -0.1660175
v -0.09532589 1.525879E-07 -0.2096561
v -0.1111717 -0.1437753 0.08300815
v -0.1111717 -0.08300903 0.1437753
v 0.1112835 1.525879E-07 -0.2096561
v 0.1112835 -0.1048277 -0.1815675
v 0.1112835 -0.1815671 -0.1048283
v 0.1271293 1.525879E-07 -0.1660175
v 0.1271297 -0.08300873 -0.1437758
v 0.1271294 -0.1437755 -0.08300917
v -0.09532589 0.05521759 0.09563921
v -0.09532589 0.09563965 0.05521722
v -0.1111718 0.1437755 0.0830088
v -0.1111718 0.08300873 0.143775
v -0.1111718 0.1660173 -2.469191E-08
v -0.09532589 0.110435 -8.012892E-08
v -0.1111718 0.1437752 -0.08300887
v -0.09532589 0.0956398 -0.05521741
v -0.1111718 0.08300903 -0.1437753
v -0.09532589 0.05521774 -0.09563948
v -0.1111718 1.525879E-07 -0.1660175
v -0.09532589 1.525879E-07 -0.1104352
v -0.1111717 -0.08300842 -0.1437758
v -0.09532588 -0.05521728 -0.09563994
v -0.1111717 -0.1437752 -0.08300917
v -0.09532586 -0.09563934 -0.0552176
v -0.1111717 -0.1660173 -3.558585E-07
v -0.09532586 -0.110435 -3.004214E-07
v -0.1111717 -0.1437753 0.08300815
v -0.09532586 -0.09563934 0.05521703
v -0.1111717 -0.08300903 0.1437753
v -0.09532588 -0.05521774 0.09563947
v -0.1111718 -1.525879E-07 0.1660175
v -0.09532589 -1.525879E-07 0.1104348
v -0.1271297 -0.05835785 0.03660648
v -0.1271297 -0.06816666 -5.307863E-07
v -0.1271297 -0.05835785 -0.03660753
v -0.1271297 -0.03155945 0.06340461
v -0.1271297 -0.0315593 -0.0634056
v -0.1271297 0.005047149 0.07321355
v -0.1271294 0.005047302 -0.07321446
v -0.1271297 0.0416542 0.06340469
v -0.1271294 0.04165436 -0.06340553
v -0.1271297 0.0684523 0.03660661
v -0.1271294 0.06845246 -0.03660739
v -0.1271294 0.07826126 -3.847411E-07
v -0.1271297 0.0416542 0.06340469
v -0.09611133 0.06521011 0.1042048
v -0.09611133 0.005047149 0.1203253
v -0.1271297 0.005047149 0.07321355
v -0.1271297 0.0684523 0.03660661
v -0.09611134 0.1092525 0.06016255
v -0.1271294 0.07826126 -3.847411E-07
v -0.09611134 0.1253731 -3.377524E-07
v -0.1271294 0.06845246 -0.03660739
v -0.09611134 0.1092525 -0.06016326
v -0.1271294 0.04165436 -0.06340553
v -0.09611133 0.06521027 -0.1042056
v -0.1271294 0.005047302 -0.07321446
v -0.09611133 0.005047454 -0.1203263
v -0.1271297 -0.0315593 -0.0634056
v -0.09611133 -0.05511551 -0.1042057
v -0.1271297 -0.05835785 -0.03660753
v -0.09611131 -0.09915786 -0.06016346
v -0.1271297 -0.06816666 -5.307863E-07
v -0.09611131 -0.1152785 -5.777749E-07
v -0.1271297 -0.05835785 0.03660648
v -0.09611131 -0.09915786 0.06016234
v -0.1271297 -0.03155945 0.06340461
v -0.09611133 -0.05511566 0.1042047
v 0.1271297 -0.1437752 0.08300815
v 0.1271295 1.525879E-07 -2.710024E-07
v 0.1271297 -0.1660173 -3.558585E-07
v 0.1271293 0.1660173 -3.763408E-07
v 0.1271295 1.525879E-07 -2.710024E-07
v 0.1271293 0.1437755 0.08300845
v 0.1271297 0.1437753 -0.08300887
v 0.1271295 1.525879E-07 -2.710024E-07
v 0.1271293 0.1660173 -3.763408E-07
v 0.1271293 0.08300857 -0.1437756
v 0.1271295 1.525879E-07 -2.710024E-07
v 0.1271297 0.1437753 -0.08300887
v 0.1271293 0.08300873 0.1437754
v 0.1271295 1.525879E-07 -2.710024E-07
v 0.1271293 -1.525879E-07 0.1660175
v 0.1271294 -0.08300903 0.1437749
v 0.1271293 0.1437755 0.08300845
v 0.1271295 1.525879E-07 -2.710024E-07
v 0.1271293 0.08300873 0.1437754
v 0.1271293 1.525879E-07 -0.1660175
v 0.1271295 1.525879E-07 -2.710024E-07
v 0.1271293 0.08300857 -0.1437756
v 0.1271297 -0.08300873 -0.1437758
v 0.1271295 1.525879E-07 -2.710024E-07
v 0.1271293 1.525879E-07 -0.1660175
v 0.1271294 -0.1437755 -0.08300917
v 0.1271295 1.525879E-07 -2.710024E-07
v 0.1271297 -0.08300873 -0.1437758
v 0.1271297 -0.1660173 -3.558585E-07
v 0.1271295 1.525879E-07 -2.710024E-07
v 0.1271294 -0.1437755 -0.08300917
v 0.1271294 -0.08300903 0.1437749
v 0.1271295 1.525879E-07 -2.710024E-07
v 0.1271297 -0.1437752 0.08300815
vt 0.8651603 0.2692112
vt 0.9482148 0.2692112
vt 0.9482148 0.2280035
vt 0.8651603 0.2280035
vt 0.8651603 0.3103597
vt 0.9482148 0.3103597
vt 0.9781823 0.2692112
vt 0.9781823 0.2280035
vt 0.9482148 0.1867988
vt 0.9781823 0.1867988
vt 0.9482148 0.145621
vt 0.9781823 0.145621
vt 0.9482148 0.1044923
vt 0.9781823 0.1044923
vt 0.9482148 0.06374456
vt 0.9781823 0.06374456
vt 0.9482148 0.02360811
vt 0.9781823 0.02360811
vt 0.8651603 0.1867988
vt 0.8651603 0.145621
vt 0.8651603 0.1044923
vt 0.8651603 0.06374456
vt 0.8651603 0.02360811
vt 0.8362134 0.1867988
vt 0.8362134 0.145621
vt 0.8362134 0.1044923
vt 0.8362134 0.06374456
vt 0.8362134 0.2280035
vt 0.8362134 0.2692112
vt 0.8362134 0.02360811
vt 0.8362134 0.3103597
vt 0.8362134 0.3515452
vt 0.8651603 0.3515452
vt 0.8362134 0.3927544
vt 0.8651603 0.3927544
vt 0.9482148 0.3515452
vt 0.9482148 0.3927544
vt 0.9781823 0.3927544
vt 0.9781823 0.433928
vt 0.9482148 0.433928
vt 0.9781823 0.4746589
vt 0.9482148 0.4746589
vt 0.9781823 0.5147843
vt 0.9482148 0.5147843
vt 0.9781823 0.3515452
vt 0.9781823 0.3103597
vt 0.8651603 0.5147843
vt 0.8651603 0.4746589
vt 0.8651603 0.433928
vt 0.8362134 0.5147843
vt 0.8362134 0.4746589
vt 0.8362134 0.433928
vt 0.7919382 0.6281254
vt 0.8215915 0.5999045
vt 0.8024012 0.5642797
vt 0.7575939 0.6069221
vt 0.8624125 0.5498618
vt 0.8613067 0.590363
vt 0.9215477 0.5675323
vt 0.9004422 0.6020571
vt 0.9639617 0.6125558
vt 0.9285118 0.6318537
vt 0.9782895 0.6728689
vt 0.9379941 0.6717689
vt 0.9606927 0.7323102
vt 0.9263487 0.711107
vt 0.9158855 0.774953
vt 0.896695 0.7393279
vt 0.8558742 0.7893707
vt 0.8569798 0.7488697
vt 0.796739 0.7717004
vt 0.8178442 0.7371754
vt 0.7543247 0.7266769
vt 0.7897744 0.707379
vt 0.7399965 0.6663637
vt 0.7802922 0.6674637
vt 0.8682131 0.8603206
vt 0.8927037 0.8544655
vt 0.9168383 0.8616481
vt 0.8499284 0.8776286
vt 0.9341516 0.8799279
vt 0.8427507 0.9017633
vt 0.9400017 0.9044182
vt 0.848601 0.9262538
vt 0.9328243 0.928553
vt 0.8659139 0.9445388
vt 0.9145393 0.9458661
vt 0.8900487 0.9517215
vt 0.848601 0.9262538
vt 0.8210763 0.9411634
vt 0.8114629 0.9009092
vt 0.8427507 0.9017633
vt 0.8659139 0.9445388
vt 0.8495302 0.9712144
vt 0.8900487 0.9517215
vt 0.8891946 0.9830093
vt 0.9145393 0.9458661
vt 0.9294434 0.9733959
vt 0.9328243 0.928553
vt 0.9594943 0.9449421
vt 0.9400017 0.9044182
vt 0.971295 0.9052725
vt 0.9341516 0.8799279
vt 0.9616759 0.8650234
vt 0.9168383 0.8616481
vt 0.9332278 0.834973
vt 0.8927037 0.8544655
vt 0.8935579 0.8231775
vt 0.8682131 0.8603206
vt 0.853309 0.8327911
vt 0.8499284 0.8776286
vt 0.8232579 0.8612447
vt 0.8362134 0.3515452
vt 0.8362132 0.2691931
vt 0.8362134 0.3927544
vt 0.8362134 0.145621
vt 0.8362132 0.2691931
vt 0.8362134 0.1867988
vt 0.8362134 0.1044923
vt 0.8362132 0.2691931
vt 0.8362134 0.145621
vt 0.8362134 0.06374456
vt 0.8362132 0.2691931
vt 0.8362134 0.1044923
vt 0.8362134 0.2280035
vt 0.8362132 0.2691931
vt 0.8362134 0.2692112
vt 0.8362134 0.3103597
vt 0.8362134 0.1867988
vt 0.8362132 0.2691931
vt 0.8362134 0.2280035
vt 0.8362134 0.02360811
vt 0.8362132 0.2691931
vt 0.8362134 0.06374456
vt 0.8362134 0.4746589
vt 0.8362132 0.2691931
vt 0.8362134 0.5147843
vt 0.8362134 0.433928
vt 0.8362132 0.2691931
vt 0.8362134 0.4746589
vt 0.8362134 0.3927544
vt 0.8362132 0.2691931
vt 0.8362134 0.433928
vt 0.8362134 0.3103597
vt 0.8362132 0.2691931
vt 0.8362134 0.3515452
vn 0.5332494 -6.278371E-07 0.8459581
vn -0.5332487 -5.717818E-07 0.8459586
vn -0.5332496 0.4229787 0.7326212
vn 0.5332491 0.422979 0.7326214
vn 0.533249 -0.4229807 0.7326205
vn -0.5332492 -0.4229813 0.7326201
vn -0.9399501 -1.606269E-07 0.3413118
vn -0.9399499 0.1706565 0.295585
vn -0.533249 0.7326208 0.4229801
vn -0.9399501 0.2955846 0.1706564
vn -0.5332499 0.8459578 4.16423E-07
vn -0.9399504 0.3413112 -2.635933E-07
vn -0.5332498 0.7326213 -0.4229783
vn -0.9399503 0.2955844 -0.1706558
vn -0.5332497 0.4229799 -0.7326205
vn -0.9399502 0.1706564 -0.2955843
vn -0.5332495 6.534635E-07 -0.8459579
vn -0.9399501 4.077459E-07 -0.341312
vn 0.5332496 0.7326204 0.4229801
vn 0.5332488 0.8459584 1.535959E-06
vn 0.5332508 0.732621 -0.4229775
vn 0.533251 0.422979 -0.7326201
vn 0.5332487 3.972031E-07 -0.8459586
vn 0.9399496 0.295586 0.170656
vn 0.9399498 0.3413127 1.116153E-06
vn 0.9399507 0.2955838 -0.1706539
vn 0.9399511 0.1706528 -0.2955833
vn 0.9399495 0.1706569 0.2955864
vn 0.9399496 -4.077452E-07 0.3413133
vn 0.9399498 -3.500849E-07 -0.341313
vn 0.9399495 -0.1706574 0.295586
vn 0.9399488 -0.2955881 0.1706576
vn 0.5332481 -0.7326222 0.422979
vn 0.9399485 -0.3413163 -4.036275E-07
vn 0.5332476 -0.8459592 -1.111527E-06
vn -0.5332497 -0.7326217 0.4229778
vn -0.5332495 -0.8459579 -9.673828E-07
vn -0.9399502 -0.3413117 -2.718304E-07
vn -0.9399499 -0.2955849 -0.1706567
vn -0.5332496 -0.7326205 -0.4229802
vn -0.9399499 -0.1706557 -0.2955858
vn -0.5332493 -0.4229788 -0.7326214
vn -0.9399501 4.077459E-07 -0.341312
vn -0.5332495 6.534635E-07 -0.8459579
vn -0.9399499 -0.2955857 0.1706557
vn -0.9399498 -0.1706578 0.2955849
vn 0.5332487 3.972031E-07 -0.8459586
vn 0.5332479 -0.422979 -0.7326222
vn 0.5332476 -0.7326216 -0.4229808
vn 0.9399498 -3.500849E-07 -0.341313
vn 0.9399485 -0.1706577 -0.2955888
vn 0.9399482 -0.2955893 -0.1706587
vn -0.9616831 -0.1370818 -0.2374327
vn -0.9616831 -0.2374327 -0.1370815
vn -0.9616831 -0.2374325 -0.137082
vn -0.9616831 -0.1370817 -0.2374327
vn -0.9616828 -0.2741648 1.415699E-07
vn -0.9616828 -0.2741648 2.746655E-07
vn -0.9616828 -0.2374337 0.1370823
vn -0.9616828 -0.2374341 0.1370816
vn -0.9616829 -0.1370825 0.237433
vn -0.9616829 -0.1370825 0.237433
vn -0.9616829 -7.50321E-07 0.2741643
vn -0.9616829 -1.012572E-06 0.2741643
vn -0.9616831 0.1370813 0.237433
vn -0.9616831 0.1370813 0.237433
vn -0.961683 0.2374327 0.1370822
vn -0.961683 0.2374329 0.1370818
vn -0.961683 0.274164 1.019305E-07
vn -0.961683 0.274164 0
vn -0.9616829 0.2374336 -0.1370813
vn -0.9616829 0.2374336 -0.1370812
vn -0.9616831 0.1370823 -0.2374319
vn -0.9616831 0.1370825 -0.2374318
vn -0.9616831 -4.247111E-07 -0.2741634
vn -0.9616831 -5.575297E-07 -0.2741634
vn -1 1.525086E-06 -1.805747E-06
vn -1 1.525086E-06 -1.805747E-06
vn -1 1.525086E-06 -1.805747E-06
vn -1 1.525086E-06 -1.805747E-06
vn -1 1.525086E-06 -1.805747E-06
vn -1 1.525086E-06 -1.805747E-06
vn -1 1.525086E-06 -1.805747E-06
vn -1 1.525086E-06 -1.805747E-06
vn -1 1.525086E-06 -1.805747E-06
vn -1 1.525086E-06 -1.805747E-06
vn -1 1.525086E-06 -1.805747E-06
vn -1 1.525086E-06 -1.805747E-06
vn -0.835224 0.2749546 0.4762361
vn -0.835224 0.2749545 0.4762362
vn -0.8352241 -1.013115E-06 0.5499098
vn -0.8352241 -1.279949E-06 0.5499098
vn -0.835225 0.4762346 0.2749542
vn -0.835225 0.4762349 0.2749537
vn -0.8352259 0.549907 -4.799801E-07
vn -0.8352259 0.549907 -6.735543E-07
vn -0.8352264 0.4762329 -0.2749529
vn -0.8352264 0.4762329 -0.2749529
vn -0.8352265 0.2749539 -0.4762322
vn -0.8352264 0.2749537 -0.4762323
vn -0.835226 8.336494E-07 -0.549907
vn -0.835226 1.452874E-06 -0.549907
vn -0.835225 -0.2749523 -0.4762357
vn -0.835225 -0.2749531 -0.4762353
vn -0.8352243 -0.4762348 -0.2749557
vn -0.8352244 -0.476235 -0.2749555
vn -0.8352238 -0.5499101 0
vn -0.8352239 -0.5499101 0
vn -0.8352241 -0.4762356 0.2749552
vn -0.8352241 -0.4762357 0.2749549
vn -0.8352241 -0.2749552 0.4762358
vn -0.8352241 -0.2749559 0.4762354
vn 1 1.436106E-06 -3.848045E-07
vn 1 1.436106E-06 -3.848045E-07
vn 1 1.436106E-06 -3.848045E-07
vn 1 7.467763E-07 2.000952E-07
vn 1 7.467763E-07 2.000952E-07
vn 1 7.467764E-07 2.000952E-07
vn 1 7.467787E-07 3.821009E-06
vn 1 7.467787E-07 3.821009E-06
vn 1 7.467787E-07 3.821009E-06
vn 1 -2.935689E-06 -2.557216E-06
vn 1 -2.935689E-06 -2.557215E-06
vn 1 -2.935689E-06 -2.557215E-06
vn 1 2.995929E-07 6.8933E-07
vn 1 2.995929E-07 6.8933E-07
vn 1 2.995929E-07 6.8933E-07
vn 1 0 6.893295E-07
vn 1 5.466778E-07 5.46676E-07
vn 1 5.466778E-07 5.46676E-07
vn 1 5.466778E-07 5.46676E-07
vn 1 2.995932E-07 -6.893316E-07
vn 1 2.995932E-07 -6.893316E-07
vn 1 2.995932E-07 -6.893316E-07
vn 1 4.066162E-06 -6.893317E-07
vn 1 4.066162E-06 -6.893317E-07
vn 1 4.066162E-06 -6.893317E-07
vn 1 -2.431065E-06 3.061846E-06
vn 1 -2.431065E-06 3.061847E-06
vn 1 -2.431065E-06 3.061847E-06
vn 1 1.436107E-06 -3.636293E-06
vn 1 1.436107E-06 -3.636293E-06
vn 1 1.436107E-06 -3.636293E-06
vn 1 3.061853E-06 2.431083E-06
vn 1 3.061853E-06 2.431083E-06
vn 1 3.061853E-06 2.431083E-06
g Car_035_lunzi_FR_0
f 3/3/3 2/2/2 1/1/1
f 4/4/4 3/3/3 1/1/1
f 1/1/1 2/2/2 5/5/5
f 2/2/2 6/6/6 5/5/5
f 2/2/2 3/3/3 7/7/7
f 3/3/3 8/8/8 7/7/7
f 3/3/3 9/9/9 8/8/8
f 9/9/9 3/3/3 4/4/4
f 9/9/9 10/10/10 8/8/8
f 9/9/9 11/11/11 10/10/10
f 11/11/11 12/12/12 10/10/10
f 11/11/11 13/13/13 12/12/12
f 13/13/13 14/14/14 12/12/12
f 13/13/13 15/15/15 14/14/14
f 15/15/15 16/16/16 14/14/14
f 15/15/15 17/17/17 16/16/16
f 17/17/17 18/18/18 16/16/16
f 19/19/19 9/9/9 4/4/4
f 11/11/11 9/9/9 19/19/19
f 20/20/20 11/11/11 19/19/19
f 13/13/13 11/11/11 20/20/20
f 21/21/21 13/13/13 20/20/20
f 15/15/15 13/13/13 21/21/21
f 22/22/22 15/15/15 21/21/21
f 17/17/17 15/15/15 22/22/22
f 23/23/23 17/17/17 22/22/22
f 20/20/20 19/19/19 24/24/24
f 25/25/25 20/20/20 24/24/24
f 21/21/21 20/20/20 25/25/25
f 26/26/26 21/21/21 25/25/25
f 22/22/22 21/21/21 26/26/26
f 27/27/27 22/22/22 26/26/26
f 23/23/23 22/22/22 27/27/27
f 24/24/24 19/19/19 28/28/28
f 19/19/19 4/4/4 28/28/28
f 28/28/28 4/4/4 29/29/29
f 4/4/4 1/1/1 29/29/29
f 30/30/30 23/23/23 27/27/27
f 29/29/29 1/1/1 31/31/31
f 1/1/1 5/5/5 31/31/31
f 31/31/31 5/5/5 32/32/32
f 5/5/5 33/33/33 32/32/32
f 32/32/32 33/33/33 34/34/34
f 33/33/33 35/35/35 34/34/34
f 33/33/33 36/36/36 35/35/35
f 36/36/36 37/37/37 35/35/35
f 37/37/37 36/36/36 38/38/38
f 37/37/37 38/38/38 39/39/39
f 40/40/40 37/37/37 39/39/39
f 40/40/40 39/39/39 41/41/41
f 42/42/42 40/40/40 41/41/41
f 42/42/42 41/41/41 43/43/43
f 44/44/44 42/42/42 43/43/43
f 36/36/36 45/45/45 38/38/38
f 36/36/36 6/6/6 45/45/45
f 6/6/6 36/36/36 33/33/33
f 5/5/5 6/6/6 33/33/33
f 6/6/6 46/46/46 45/45/45
f 6/6/6 2/2/2 46/46/46
f 2/2/2 7/7/7 46/46/46
f 42/42/42 44/44/44 47/47/47
f 48/48/48 42/42/42 47/47/47
f 40/40/40 42/42/42 48/48/48
f 49/49/49 40/40/40 48/48/48
f 37/37/37 40/40/40 49/49/49
f 35/35/35 37/37/37 49/49/49
f 48/48/48 47/47/47 50/50/50
f 51/51/51 48/48/48 50/50/50
f 49/49/49 48/48/48 51/51/51
f 52/52/52 49/49/49 51/51/51
f 35/35/35 49/49/49 52/52/52
f 34/34/34 35/35/35 52/52/52
f 55/55/55 54/54/54 53/53/53
f 56/56/56 55/55/55 53/53/53
f 55/55/55 57/57/57 54/54/54
f 57/57/57 58/58/58 54/54/54
f 57/57/57 59/59/59 58/58/58
f 59/59/59 60/60/60 58/58/58
f 59/59/59 61/61/61 60/60/60
f 61/61/61 62/62/62 60/60/60
f 61/61/61 63/63/63 62/62/62
f 63/63/63 64/64/64 62/62/62
f 63/63/63 65/65/65 64/64/64
f 65/65/65 66/66/66 64/64/64
f 65/65/65 67/67/67 66/66/66
f 67/67/67 68/68/68 66/66/66
f 67/67/67 69/69/69 68/68/68
f 69/69/69 70/70/70 68/68/68
f 69/69/69 71/71/71 70/70/70
f 71/71/71 72/72/72 70/70/70
f 71/71/71 73/73/73 72/72/72
f 73/73/73 74/74/74 72/72/72
f 73/73/73 75/75/75 74/74/74
f 75/75/75 76/76/76 74/74/74
f 75/75/75 56/56/56 76/76/76
f 56/56/56 53/53/53 76/76/76
f 79/79/79 78/78/78 77/77/77
f 77/77/77 80/80/80 79/79/79
f 80/80/80 81/81/81 79/79/79
f 80/80/80 82/82/82 81/81/81
f 82/82/82 83/83/83 81/81/81
f 82/82/82 84/84/84 83/83/83
f 84/84/84 85/85/85 83/83/83
f 84/84/84 86/86/86 85/85/85
f 86/86/86 87/87/87 85/85/85
f 86/86/86 88/88/88 87/87/87
f 91/91/91 90/90/90 89/89/89
f 92/92/92 91/91/91 89/89/89
f 89/89/89 90/90/90 93/93/93
f 90/90/90 94/94/94 93/93/93
f 93/93/93 94/94/94 95/95/95
f 94/94/94 96/96/96 95/95/95
f 95/95/95 96/96/96 97/97/97
f 96/96/96 98/98/98 97/97/97
f 97/97/97 98/98/98 99/99/99
f 98/98/98 100/100/100 99/99/99
f 99/99/99 100/100/100 101/101/101
f 100/100/100 102/102/102 101/101/101
f 101/101/101 102/102/102 103/103/103
f 102/102/102 104/104/104 103/103/103
f 103/103/103 104/104/104 105/105/105
f 104/104/104 106/106/106 105/105/105
f 105/105/105 106/106/106 107/107/107
f 106/106/106 108/108/108 107/107/107
f 107/107/107 108/108/108 109/109/109
f 108/108/108 110/110/110 109/109/109
f 109/109/109 110/110/110 111/111/111
f 110/110/110 112/112/112 111/111/111
f 111/111/111 112/112/112 92/92/92
f 112/112/112 91/91/91 92/92/92
f 115/115/115 114/114/114 113/113/113
f 118/118/118 117/117/117 116/116/116
f 121/121/121 120/120/120 119/119/119
f 124/124/124 123/123/123 122/122/122
f 127/127/127 126/126/126 125/125/125
f 128/128/128 126/126/126 127/127/127
f 131/131/131 130/130/130 129/129/129
f 134/134/134 133/133/133 132/132/132
f 137/137/137 136/136/136 135/135/135
f 140/140/140 139/139/139 138/138/138
f 143/143/143 142/142/142 141/141/141
f 146/146/146 145/145/145 144/144/144
