g Car_06_lunzi_FR
v -0.1832524 -0.1493335 0.5573182
v -0.1832524 -0.4079759 0.4079854
v -0.1832524 9.844052E-06 -8.65912E-07
v -0.1832524 -0.4079759 0.4079854
v -0.1832524 -0.5573204 0.1493337
v -0.1832524 9.844052E-06 -8.65912E-07
v -0.1832524 -0.5573204 0.1493337
v -0.1832524 -0.5573179 -0.149333
v -0.1832524 9.844052E-06 -8.65912E-07
v -0.1832524 -0.5573179 -0.149333
v -0.1832524 -0.4079816 -0.4079831
v -0.1832524 9.844052E-06 -8.65912E-07
v -0.1832524 -0.4079816 -0.4079831
v -0.1832524 -0.1493275 -0.5573182
v -0.1832524 9.844052E-06 -8.65912E-07
v -0.1832524 -0.1493275 -0.5573182
v -0.1832524 0.1493312 -0.5573154
v -0.1832524 9.844052E-06 -8.65912E-07
v -0.1832524 0.1493312 -0.5573154
v -0.1832524 0.407991 -0.4079849
v -0.1832524 9.844052E-06 -8.65912E-07
v -0.1832524 0.407991 -0.4079849
v -0.1832524 0.5573156 -0.149331
v -0.1832524 9.844052E-06 -8.65912E-07
v -0.1832524 0.5573156 -0.149331
v -0.1832524 0.5573203 0.1493338
v -0.1832524 9.844052E-06 -8.65912E-07
v -0.1832524 0.5573203 0.1493338
v -0.1832524 0.4079781 0.4079863
v -0.1832524 9.844052E-06 -8.65912E-07
v -0.1832524 0.4079781 0.4079863
v -0.1832524 0.1493402 0.5573168
v -0.1832524 9.844052E-06 -8.65912E-07
v -0.1832524 0.1493402 0.5573168
v -0.1832524 -0.1493335 0.5573182
v -0.1832524 9.844052E-06 -8.65912E-07
v 0.1832524 -0.2653156 -0.07109132
v 0.1832524 -0.2653171 0.07109188
v 0.1832524 -0.194223 0.1942251
v 0.1832524 -0.194225 -0.1942245
v 0.1832524 -0.07108408 -0.2653168
v 0.1832524 -0.07109702 0.2653168
v 0.1832524 0.07109921 0.2653157
v 0.1832524 0.07109593 -0.2653151
v 0.1832524 0.1942251 -0.194225
v 0.1832524 0.194224 0.1942257
v 0.1832524 0.2653169 0.07109192
v 0.1832524 0.2653145 -0.0710905
v 0.1832524 -0.4079759 0.4079854
v -0.1832524 -0.4079759 0.4079854
v -0.1832524 -0.1493335 0.5573182
v 0.1832524 -0.1493335 0.5573182
v 0.1832524 -0.5573204 0.1493337
v -0.1832524 -0.5573204 0.1493337
v -0.1832524 -0.4079759 0.4079854
v 0.1832524 -0.4079759 0.4079854
v 0.1832524 -0.5573179 -0.149333
v -0.1832524 -0.5573179 -0.149333
v -0.1832524 -0.5573204 0.1493337
v 0.1832524 -0.5573204 0.1493337
v 0.1832524 -0.4079816 -0.4079831
v -0.1832524 -0.4079816 -0.4079831
v -0.1832524 -0.5573179 -0.149333
v 0.1832524 -0.5573179 -0.149333
v 0.1832524 -0.1493275 -0.5573182
v -0.1832524 -0.1493275 -0.5573182
v -0.1832524 -0.4079816 -0.4079831
v 0.1832524 -0.4079816 -0.4079831
v 0.1832524 0.1493312 -0.5573154
v -0.1832524 0.1493312 -0.5573154
v -0.1832524 -0.1493275 -0.5573182
v 0.1832524 -0.1493275 -0.5573182
v 0.1832524 0.407991 -0.4079849
v -0.1832524 0.407991 -0.4079849
v -0.1832524 0.1493312 -0.5573154
v 0.1832524 0.1493312 -0.5573154
v 0.1832524 0.5573156 -0.149331
v -0.1832524 0.5573156 -0.149331
v -0.1832524 0.407991 -0.4079849
v 0.1832524 0.407991 -0.4079849
v 0.1832524 0.5573203 0.1493338
v -0.1832524 0.5573203 0.1493338
v -0.1832524 0.5573156 -0.149331
v 0.1832524 0.5573156 -0.149331
v 0.1832524 0.4079781 0.4079863
v -0.1832524 0.4079781 0.4079863
v -0.1832524 0.5573203 0.1493338
v 0.1832524 0.5573203 0.1493338
v 0.1832524 0.1493402 0.5573168
v -0.1832524 0.1493402 0.5573168
v -0.1832524 0.4079781 0.4079863
v 0.1832524 0.4079781 0.4079863
v 0.1832524 -0.1493335 0.5573182
v -0.1832524 -0.1493335 0.5573182
v -0.1832524 0.1493402 0.5573168
v 0.1832524 0.1493402 0.5573168
v 0.1832524 -0.1493335 0.5573182
v 0.1832524 -0.07109702 0.2653168
v 0.1832524 -0.194223 0.1942251
v 0.1832524 -0.4079759 0.4079854
v 0.1832524 -0.2653171 0.07109188
v 0.1832524 -0.5573204 0.1493337
v 0.1832524 -0.2653156 -0.07109132
v 0.1832524 -0.5573179 -0.149333
v 0.1832524 -0.194225 -0.1942245
v 0.1832524 -0.4079816 -0.4079831
v 0.1832524 -0.07108408 -0.2653168
v 0.1832524 -0.1493275 -0.5573182
v 0.1832524 0.07109593 -0.2653151
v 0.1832524 0.1493312 -0.5573154
v 0.1832524 0.1942251 -0.194225
v 0.1832524 0.407991 -0.4079849
v 0.1832524 0.2653145 -0.0710905
v 0.1832524 0.5573156 -0.149331
v 0.1832524 0.2653169 0.07109192
v 0.1832524 0.5573203 0.1493338
v 0.1832524 0.194224 0.1942257
v 0.1832524 0.4079781 0.4079863
v 0.1832524 0.07109921 0.2653157
v 0.1832524 0.1493402 0.5573168
vt 0.002081713 0.936885
vt 0.002373713 0.936885
vt 0.002373713 0.866149
vt 0.002081713 0.936885
vt 0.002373713 0.936885
vt 0.002373713 0.866149
vt 0.002081713 0.936885
vt 0.002373713 0.936885
vt 0.002373713 0.866149
vt 0.002081713 0.936885
vt 0.002373713 0.936885
vt 0.002373713 0.866149
vt 0.002081713 0.936885
vt 0.002373713 0.936885
vt 0.002373713 0.866149
vt 0.002081713 0.936885
vt 0.002373713 0.936885
vt 0.002373713 0.866149
vt 0.002081713 0.936885
vt 0.002373713 0.936885
vt 0.002373713 0.866149
vt 0.002081713 0.936885
vt 0.002373713 0.936885
vt 0.002373713 0.866149
vt 0.002081713 0.936885
vt 0.002373713 0.936885
vt 0.002373713 0.866149
vt 0.002081713 0.936885
vt 0.002373713 0.936885
vt 0.002373713 0.866149
vt 0.002081713 0.936885
vt 0.002373713 0.936885
vt 0.002373713 0.866149
vt 0.002081713 0.936885
vt 0.002373713 0.936885
vt 0.002373713 0.866149
vt 0.301937 0.265206
vt 0.301937 0.265206
vt 0.301937 0.265206
vt 0.301937 0.265206
vt 0.301937 0.265206
vt 0.301937 0.265206
vt 0.301937 0.265206
vt 0.301937 0.265206
vt 0.301937 0.265206
vt 0.301937 0.265206
vt 0.301937 0.265206
vt 0.301937 0.265206
vt 0.002186713 0.989243
vt 0.002186713 0.989243
vt 0.002186713 0.989243
vt 0.002186713 0.989243
vt 0.002186713 0.989243
vt 0.002186713 0.989243
vt 0.002186713 0.989243
vt 0.002186713 0.989243
vt 0.002186713 0.989243
vt 0.002186713 0.989243
vt 0.002186713 0.989243
vt 0.002186713 0.989243
vt 0.002186713 0.989243
vt 0.002186713 0.989243
vt 0.002186713 0.989243
vt 0.002186713 0.989243
vt 0.002186713 0.989243
vt 0.002186713 0.989243
vt 0.002186713 0.989243
vt 0.002186713 0.989243
vt 0.002186713 0.989243
vt 0.002186713 0.989243
vt 0.002186713 0.989243
vt 0.002186713 0.989243
vt 0.002186713 0.989243
vt 0.002186713 0.989243
vt 0.002186713 0.989243
vt 0.002186713 0.989243
vt 0.002186713 0.989243
vt 0.002186713 0.989243
vt 0.002186713 0.989243
vt 0.002186713 0.989243
vt 0.002186713 0.989243
vt 0.002186713 0.989243
vt 0.002186713 0.989243
vt 0.002186713 0.989243
vt 0.002186713 0.989243
vt 0.002186713 0.989243
vt 0.002186713 0.989243
vt 0.002186713 0.989243
vt 0.002186713 0.989243
vt 0.002186713 0.989243
vt 0.002186713 0.989243
vt 0.002186713 0.989243
vt 0.002186713 0.989243
vt 0.002186713 0.989243
vt 0.002186713 0.989243
vt 0.002186713 0.989243
vt 0.003807713 0.952223
vt 0.003807713 0.952223
vt 0.003807713 0.952223
vt 0.003807713 0.952223
vt 0.003807713 0.952223
vt 0.003807713 0.952223
vt 0.003807713 0.952223
vt 0.003807713 0.952223
vt 0.003807713 0.952223
vt 0.003807713 0.952223
vt 0.003807713 0.952223
vt 0.003807713 0.952223
vt 0.003807713 0.952223
vt 0.003807713 0.952223
vt 0.003807713 0.952223
vt 0.003807713 0.952223
vt 0.003807713 0.952223
vt 0.003807713 0.952223
vt 0.003807713 0.952223
vt 0.003807713 0.952223
vt 0.003807713 0.952223
vt 0.003807713 0.952223
vt 0.003807713 0.952223
vt 0.003807713 0.952223
vn -1 0 0
vn -1 0 0
vn -1 0 0
vn -1 0 0
vn -1 0 0
vn -1 0 0
vn -1 0 0
vn -1 0 0
vn -1 0 0
vn -1 0 0
vn -1 0 0
vn -1 0 0
vn -1 0 0
vn -1 0 0
vn -1 0 0
vn -1 0 0
vn -1 0 0
vn -1 0 0
vn -1 0 0
vn -1 0 0
vn -1 0 0
vn -1 0 0
vn -1 0 0
vn -1 0 0
vn -1 0 0
vn -1 0 0
vn -1 0 0
vn -1 0 0
vn -1 0 0
vn -1 0 0
vn -1 0 0
vn -1 0 0
vn -1 0 0
vn -1 0 0
vn -1 0 0
vn -1 0 0
vn 1 0 0
vn 1 0 0
vn 1 0 0
vn 1 0 0
vn 1 0 0
vn 1 0 0
vn 1 0 0
vn 1 0 0
vn 1 0 0
vn 1 0 0
vn 1 0 0
vn 1 0 0
vn 0 -0.500014 0.8660174
vn 0 -0.500014 0.8660174
vn 0 -0.500014 0.8660174
vn 0 -0.500014 0.8660174
vn 0 -0.8660082 0.5000298
vn 0 -0.8660082 0.5000298
vn 0 -0.8660082 0.5000298
vn 0 -0.8660082 0.5000298
vn 0 -1 -8.429798E-06
vn 0 -1 -8.429798E-06
vn 0 -1 -8.429798E-06
vn 0 -1 -8.429798E-06
vn 0 -0.8660188 -0.5000116
vn 0 -0.8660188 -0.5000116
vn 0 -0.8660188 -0.5000116
vn 0 -0.8660188 -0.5000116
vn 0 -0.5000028 -0.8660238
vn 0 -0.5000028 -0.8660238
vn 0 -0.5000028 -0.8660238
vn 0 -0.5000028 -0.8660238
vn 0 9.451846E-06 -1
vn 0 9.451846E-06 -1
vn 0 9.451846E-06 -1
vn 0 9.451846E-06 -1
vn 0 0.4999829 -0.8660353
vn 0 0.4999829 -0.8660353
vn 0 0.4999829 -0.8660353
vn 0 0.4999829 -0.8660353
vn 0 0.8660389 -0.4999766
vn 0 0.8660389 -0.4999766
vn 0 0.8660389 -0.4999766
vn 0 0.8660389 -0.4999766
vn 0 1 -1.558245E-05
vn 0 1 -1.558245E-05
vn 0 1 -1.558245E-05
vn 0 1 -1.558245E-05
vn 0 0.8660122 0.5000228
vn 0 0.8660122 0.5000228
vn 0 0.8660122 0.5000228
vn 0 0.8660122 0.5000228
vn 0 0.5000145 0.8660171
vn 0 0.5000145 0.8660171
vn 0 0.5000145 0.8660171
vn 0 0.5000145 0.8660171
vn 0 4.853406E-06 1
vn 0 4.853406E-06 1
vn 0 4.853406E-06 1
vn 0 4.853406E-06 1
vn 1 0 0
vn 1 0 0
vn 1 0 0
vn 1 0 0
vn 1 0 0
vn 1 0 0
vn 1 0 0
vn 1 0 0
vn 1 0 0
vn 1 0 0
vn 1 0 0
vn 1 0 0
vn 1 0 0
vn 1 0 0
vn 1 0 0
vn 1 0 0
vn 1 0 0
vn 1 0 0
vn 1 0 0
vn 1 0 0
vn 1 0 0
vn 1 0 0
vn 1 0 0
vn 1 0 0
g Car_06_lunzi_FR_0
f 3/3/3 2/2/2 1/1/1
f 6/6/6 5/5/5 4/4/4
f 9/9/9 8/8/8 7/7/7
f 12/12/12 11/11/11 10/10/10
f 15/15/15 14/14/14 13/13/13
f 18/18/18 17/17/17 16/16/16
f 21/21/21 20/20/20 19/19/19
f 24/24/24 23/23/23 22/22/22
f 27/27/27 26/26/26 25/25/25
f 30/30/30 29/29/29 28/28/28
f 33/33/33 32/32/32 31/31/31
f 36/36/36 35/35/35 34/34/34
f 39/39/39 38/38/38 37/37/37
f 37/37/37 40/40/40 39/39/39
f 40/40/40 41/41/41 39/39/39
f 41/41/41 42/42/42 39/39/39
f 41/41/41 43/43/43 42/42/42
f 41/41/41 44/44/44 43/43/43
f 44/44/44 45/45/45 43/43/43
f 45/45/45 46/46/46 43/43/43
f 45/45/45 47/47/47 46/46/46
f 45/45/45 48/48/48 47/47/47
f 51/51/51 50/50/50 49/49/49
f 52/52/52 51/51/51 49/49/49
f 55/55/55 54/54/54 53/53/53
f 56/56/56 55/55/55 53/53/53
f 59/59/59 58/58/58 57/57/57
f 60/60/60 59/59/59 57/57/57
f 63/63/63 62/62/62 61/61/61
f 64/64/64 63/63/63 61/61/61
f 67/67/67 66/66/66 65/65/65
f 68/68/68 67/67/67 65/65/65
f 71/71/71 70/70/70 69/69/69
f 72/72/72 71/71/71 69/69/69
f 75/75/75 74/74/74 73/73/73
f 76/76/76 75/75/75 73/73/73
f 79/79/79 78/78/78 77/77/77
f 80/80/80 79/79/79 77/77/77
f 83/83/83 82/82/82 81/81/81
f 84/84/84 83/83/83 81/81/81
f 87/87/87 86/86/86 85/85/85
f 88/88/88 87/87/87 85/85/85
f 91/91/91 90/90/90 89/89/89
f 92/92/92 91/91/91 89/89/89
f 95/95/95 94/94/94 93/93/93
f 96/96/96 95/95/95 93/93/93
f 99/99/99 98/98/98 97/97/97
f 100/100/100 99/99/99 97/97/97
f 101/101/101 99/99/99 100/100/100
f 102/102/102 101/101/101 100/100/100
f 103/103/103 101/101/101 102/102/102
f 104/104/104 103/103/103 102/102/102
f 105/105/105 103/103/103 104/104/104
f 106/106/106 105/105/105 104/104/104
f 107/107/107 105/105/105 106/106/106
f 108/108/108 107/107/107 106/106/106
f 109/109/109 107/107/107 108/108/108
f 110/110/110 109/109/109 108/108/108
f 111/111/111 109/109/109 110/110/110
f 112/112/112 111/111/111 110/110/110
f 113/113/113 111/111/111 112/112/112
f 114/114/114 113/113/113 112/112/112
f 115/115/115 113/113/113 114/114/114
f 116/116/116 115/115/115 114/114/114
f 117/117/117 115/115/115 116/116/116
f 118/118/118 117/117/117 116/116/116
f 119/119/119 117/117/117 118/118/118
f 120/120/120 119/119/119 118/118/118
f 98/98/98 119/119/119 120/120/120
f 97/97/97 98/98/98 120/120/120
