g Car_03_lunzi_FR
v 0.08238619 -0.186365 0.3227976
v 0.08238397 -0.3227967 0.1863671
v -0.0823861 -0.3227967 0.1863671
v -0.08238387 -0.186365 0.3227976
v 0.08238397 -0.3227967 0.1863671
v 0.08238619 -0.3727386 6.254976E-07
v -0.08238387 -0.3727386 6.254976E-07
v -0.0823861 -0.3227967 0.1863671
v 0.08238619 -0.3727386 6.254976E-07
v 0.08238397 -0.3227967 -0.1863659
v -0.0823861 -0.3227967 -0.1863659
v -0.08238387 -0.3727386 6.254976E-07
v 0.08238397 -0.3227967 -0.1863659
v 0.08238619 -0.1863648 -0.3227955
v -0.08238387 -0.1863648 -0.3227955
v -0.0823861 -0.3227967 -0.1863659
v 0.08238619 -0.1863648 -0.3227955
v 0.08238397 4.447983E-06 -0.3727319
v -0.08238387 4.447983E-06 -0.3727319
v -0.08238387 -0.1863648 -0.3227955
v 0.08238397 4.447983E-06 -0.3727319
v 0.08238397 0.1863694 -0.3227955
v -0.0823861 0.1863694 -0.3227955
v -0.08238387 4.447983E-06 -0.3727319
v 0.08238397 0.1863694 -0.3227955
v 0.08238619 0.3228012 -0.1863658
v -0.08238387 0.3228012 -0.1863658
v -0.0823861 0.1863694 -0.3227955
v 0.08238619 0.3228012 -0.1863658
v 0.08238397 0.3727386 7.644971E-07
v -0.0823861 0.3727386 7.644971E-07
v -0.08238387 0.3228012 -0.1863658
v 0.08238397 0.3727386 7.644971E-07
v 0.08238619 0.3228011 0.1863672
v -0.08238387 0.3228011 0.1863672
v -0.0823861 0.3727386 7.644971E-07
v 0.08238619 0.3228011 0.1863672
v 0.08238397 0.1863693 0.3227977
v -0.0823861 0.1863693 0.3227977
v -0.08238387 0.3228011 0.1863672
v 0.08238397 0.1863693 0.3227977
v 0.08238397 4.355316E-06 0.3727319
v -0.08238387 4.355316E-06 0.3727319
v -0.0823861 0.1863693 0.3227977
v 0.08238397 4.355316E-06 0.3727319
v 0.08238619 -0.186365 0.3227976
v -0.08238387 -0.186365 0.3227976
v -0.08238387 4.355316E-06 0.3727319
v -0.08238387 -0.186365 0.3227976
v -0.0823861 -0.3227967 0.1863671
v -0.08238387 4.355316E-06 6.949974E-07
v -0.0823861 -0.3227967 0.1863671
v -0.08238387 -0.3727386 6.254976E-07
v -0.08238387 4.355316E-06 6.949974E-07
v -0.08238387 -0.3727386 6.254976E-07
v -0.0823861 -0.3227967 -0.1863659
v -0.08238387 4.355316E-06 6.949974E-07
v -0.0823861 -0.3227967 -0.1863659
v -0.08238387 -0.1863648 -0.3227955
v -0.08238387 4.355316E-06 6.949974E-07
v -0.08238387 -0.1863648 -0.3227955
v -0.08238387 4.447983E-06 -0.3727319
v -0.08238387 4.355316E-06 6.949974E-07
v -0.08238387 4.447983E-06 -0.3727319
v -0.0823861 0.1863694 -0.3227955
v -0.08238387 4.355316E-06 6.949974E-07
v -0.0823861 0.1863694 -0.3227955
v -0.08238387 0.3228012 -0.1863658
v -0.08238387 4.355316E-06 6.949974E-07
v -0.08238387 0.3228012 -0.1863658
v -0.0823861 0.3727386 7.644971E-07
v -0.08238387 4.355316E-06 6.949974E-07
v -0.0823861 0.3727386 7.644971E-07
v -0.08238387 0.3228011 0.1863672
v -0.08238387 4.355316E-06 6.949974E-07
v -0.08238387 0.3228011 0.1863672
v -0.0823861 0.1863693 0.3227977
v -0.08238387 4.355316E-06 6.949974E-07
v -0.0823861 0.1863693 0.3227977
v -0.08238387 4.355316E-06 0.3727319
v -0.08238387 4.355316E-06 6.949974E-07
v -0.08238387 4.355316E-06 0.3727319
v -0.08238387 -0.186365 0.3227976
v -0.08238387 4.355316E-06 6.949974E-07
v 0.08238397 -0.3227967 0.1863671
v 0.08238619 -0.186365 0.3227976
v 0.08238619 -0.3727386 6.254976E-07
v 0.08238397 -0.3227967 -0.1863659
v 0.08238619 -0.1863648 -0.3227955
v 0.08238397 4.447983E-06 -0.3727319
v 0.08238397 0.1863694 -0.3227955
v 0.08238619 0.3228012 -0.1863658
v 0.08238397 0.3727386 7.644971E-07
v 0.08238619 0.3228011 0.1863672
v 0.08238397 0.1863693 0.3227977
v 0.08238397 4.355316E-06 0.3727319
vt 0.00174961 0.9824368
vt 0.00174961 0.982437
vt 0.00174961 0.982437
vt 0.00174961 0.9824368
vt 0.00174961 0.982437
vt 0.00174961 0.9824369
vt 0.00174961 0.9824369
vt 0.00174961 0.982437
vt 0.00174961 0.9824369
vt 0.00174961 0.9824369
vt 0.00174961 0.9824369
vt 0.00174961 0.9824369
vt 0.00174961 0.9824369
vt 0.00174961 0.982437
vt 0.00174961 0.982437
vt 0.00174961 0.9824369
vt 0.00174961 0.982437
vt 0.00174961 0.982437
vt 0.00174961 0.982437
vt 0.00174961 0.982437
vt 0.00174961 0.982437
vt 0.00174961 0.982437
vt 0.00174961 0.982437
vt 0.00174961 0.982437
vt 0.00174961 0.982437
vt 0.00174961 0.9824369
vt 0.00174961 0.9824369
vt 0.00174961 0.982437
vt 0.00174961 0.9824369
vt 0.00174961 0.9824369
vt 0.00174961 0.9824369
vt 0.00174961 0.9824369
vt 0.00174961 0.9824369
vt 0.00174961 0.982437
vt 0.00174961 0.982437
vt 0.00174961 0.9824369
vt 0.00174961 0.982437
vt 0.00174961 0.9824368
vt 0.00174961 0.9824368
vt 0.00174961 0.982437
vt 0.00174961 0.9824368
vt 0.00174961 0.9824369
vt 0.00174961 0.9824369
vt 0.00174961 0.9824368
vt 0.00174961 0.9824369
vt 0.00174961 0.9824368
vt 0.00174961 0.9824368
vt 0.00174961 0.9824369
vt 0.001748618 0.930941
vt 0.001748702 0.930941
vt 0.001748702 0.871669
vt 0.001748618 0.930941
vt 0.001748702 0.930941
vt 0.001748702 0.871669
vt 0.001748618 0.930941
vt 0.001748702 0.930941
vt 0.001748702 0.871669
vt 0.001748618 0.930941
vt 0.001748702 0.930941
vt 0.001748702 0.871669
vt 0.001748618 0.930941
vt 0.001748702 0.930941
vt 0.001748702 0.871669
vt 0.001748618 0.930941
vt 0.001748702 0.930941
vt 0.001748702 0.871669
vt 0.001748618 0.930941
vt 0.001748702 0.930941
vt 0.001748702 0.871669
vt 0.001748618 0.930941
vt 0.001748702 0.930941
vt 0.001748702 0.871669
vt 0.001748618 0.930941
vt 0.001748702 0.930941
vt 0.001748702 0.871669
vt 0.001748618 0.930941
vt 0.001748702 0.930941
vt 0.001748702 0.871669
vt 0.001748618 0.930941
vt 0.001748702 0.930941
vt 0.001748702 0.871669
vt 0.001748618 0.930941
vt 0.001748702 0.930941
vt 0.001748702 0.871669
vt 0.001748489 0.9718405
vt 0.001748489 0.9718406
vt 0.001748489 0.9718406
vt 0.001748489 0.9718406
vt 0.001748489 0.9718406
vt 0.001748489 0.9718406
vt 0.001748489 0.9718406
vt 0.001748489 0.9718406
vt 0.001748489 0.9718406
vt 0.001748489 0.9718405
vt 0.001748489 0.9718406
vt 0.001748489 0.9718406
vn 0 -0.7071037 0.7071098
vn 0 -0.7071037 0.7071099
vn 0 -0.7071037 0.7071098
vn 0 -0.7071037 0.7071098
vn 0 -0.9659191 0.2588442
vn 0 -0.9659191 0.2588441
vn 0 -0.9659191 0.2588441
vn 0 -0.9659191 0.2588441
vn 0 -0.9659191 -0.258844
vn 0 -0.9659191 -0.258844
vn 0 -0.9659191 -0.258844
vn 0 -0.9659191 -0.258844
vn 0 -0.7071009 -0.7071126
vn 0 -0.7071009 -0.7071126
vn 0 -0.7071009 -0.7071126
vn 0 -0.7071009 -0.7071126
vn 0 -0.2588137 -0.9659273
vn 0 -0.2588137 -0.9659273
vn 0 -0.2588137 -0.9659272
vn 0 -0.2588137 -0.9659272
vn 0 0.2588198 -0.9659256
vn 0 0.2588198 -0.9659256
vn 0 0.2588198 -0.9659256
vn 0 0.2588197 -0.9659256
vn 0 0.7071012 -0.7071123
vn 0 0.7071012 -0.7071123
vn 0 0.7071012 -0.7071123
vn 0 0.7071012 -0.7071123
vn 0 0.9659249 -0.2588224
vn 0 0.9659249 -0.2588224
vn 0 0.9659249 -0.2588224
vn 0 0.9659249 -0.2588224
vn 0 0.9659247 0.2588231
vn 0 0.9659247 0.2588231
vn 0 0.9659247 0.2588231
vn 0 0.9659247 0.2588231
vn 0 0.7071035 0.70711
vn 0 0.7071036 0.70711
vn 0 0.7071035 0.70711
vn 0 0.7071035 0.70711
vn 0 0.2588087 0.9659286
vn 0 0.2588087 0.9659286
vn 0 0.2588087 0.9659286
vn 0 0.2588087 0.9659286
vn 0 -0.2588035 0.9659299
vn 0 -0.2588035 0.9659299
vn 0 -0.2588035 0.9659299
vn 0 -0.2588035 0.9659299
vn -1 1.036983E-05 5.987107E-06
vn -1 1.036983E-05 5.987107E-06
vn -1 1.036983E-05 5.987107E-06
vn -1 0 -1.197424E-05
vn -1 0 -1.197424E-05
vn -1 0 -1.197424E-05
vn -1 0 1.197424E-05
vn -1 0 1.197424E-05
vn -1 0 1.197424E-05
vn -1 1.036985E-05 -5.987121E-06
vn -1 1.036985E-05 -5.987121E-06
vn -1 1.036985E-05 -5.987121E-06
vn -1 0 0
vn -1 0 0
vn -1 0 0
vn -1 -1.197435E-05 0
vn -1 -1.197434E-05 0
vn -1 -1.197434E-05 0
vn -1 5.987086E-06 1.036996E-05
vn -1 5.987086E-06 1.036995E-05
vn -1 5.987086E-06 1.036995E-05
vn -1 -5.987099E-06 -1.036998E-05
vn -1 -5.987099E-06 -1.036998E-05
vn -1 -5.987099E-06 -1.036998E-05
vn -1 -5.987103E-06 1.036998E-05
vn -1 -5.987103E-06 1.036998E-05
vn -1 -5.987103E-06 1.036998E-05
vn -1 5.987063E-06 -1.036991E-05
vn -1 5.987064E-06 -1.036991E-05
vn -1 5.987064E-06 -1.036991E-05
vn -1 -1.197435E-05 0
vn -1 -1.197435E-05 0
vn -1 -1.197435E-05 0
vn -1 0 0
vn -1 0 0
vn -1 0 0
vn 1 -3.853686E-05 2.225006E-05
vn 1 -3.853686E-05 2.225006E-05
vn 1 -3.853686E-05 2.225006E-05
vn 1 1.410433E-05 -8.143434E-06
vn 1 -1.628697E-05 0
vn 1 1.192289E-05 0
vn 1 7.986955E-07 -2.980763E-06
vn 1 -8.14353E-06 -8.143574E-06
vn 1 9.403358E-06 9.40341E-06
vn 1 -3.441893E-06 -1.284534E-05
vn 1 5.961509E-06 2.224869E-05
vn 1 5.961508E-06 2.224961E-05
g Car_03_lunzi_FR_0
f 3/3/3 2/2/2 1/1/1
f 4/4/4 3/3/3 1/1/1
f 7/7/7 6/6/6 5/5/5
f 8/8/8 7/7/7 5/5/5
f 11/11/11 10/10/10 9/9/9
f 12/12/12 11/11/11 9/9/9
f 15/15/15 14/14/14 13/13/13
f 16/16/16 15/15/15 13/13/13
f 19/19/19 18/18/18 17/17/17
f 20/20/20 19/19/19 17/17/17
f 23/23/23 22/22/22 21/21/21
f 24/24/24 23/23/23 21/21/21
f 27/27/27 26/26/26 25/25/25
f 28/28/28 27/27/27 25/25/25
f 31/31/31 30/30/30 29/29/29
f 32/32/32 31/31/31 29/29/29
f 35/35/35 34/34/34 33/33/33
f 36/36/36 35/35/35 33/33/33
f 39/39/39 38/38/38 37/37/37
f 40/40/40 39/39/39 37/37/37
f 43/43/43 42/42/42 41/41/41
f 44/44/44 43/43/43 41/41/41
f 47/47/47 46/46/46 45/45/45
f 48/48/48 47/47/47 45/45/45
f 51/51/51 50/50/50 49/49/49
f 54/54/54 53/53/53 52/52/52
f 57/57/57 56/56/56 55/55/55
f 60/60/60 59/59/59 58/58/58
f 63/63/63 62/62/62 61/61/61
f 66/66/66 65/65/65 64/64/64
f 69/69/69 68/68/68 67/67/67
f 72/72/72 71/71/71 70/70/70
f 75/75/75 74/74/74 73/73/73
f 78/78/78 77/77/77 76/76/76
f 81/81/81 80/80/80 79/79/79
f 84/84/84 83/83/83 82/82/82
f 87/87/87 86/86/86 85/85/85
f 88/88/88 86/86/86 87/87/87
f 89/89/89 86/86/86 88/88/88
f 90/90/90 86/86/86 89/89/89
f 91/91/91 86/86/86 90/90/90
f 92/92/92 86/86/86 91/91/91
f 93/93/93 86/86/86 92/92/92
f 94/94/94 86/86/86 93/93/93
f 95/95/95 86/86/86 94/94/94
f 96/96/96 86/86/86 95/95/95
