g Car_08_lunzi_FR
v 0.1083887 -0.1017575 0.3797624
v 0.1083887 -0.2780052 0.2780055
v -0.1083887 -0.2780025 0.2780055
v -0.1083887 -0.1017575 0.3797624
v 0.1083887 -0.2780052 0.2780055
v 0.1083887 -0.3797625 0.1017578
v -0.1083887 -0.379765 0.1017578
v -0.1083887 -0.2780025 0.2780055
v 0.1083887 -0.3797625 0.1017578
v 0.1083887 -0.3797598 -0.1017572
v -0.1083887 -0.3797598 -0.1017572
v -0.1083887 -0.379765 0.1017578
v 0.1083887 -0.3797598 -0.1017572
v 0.1083887 -0.2780075 -0.2780038
v -0.1083887 -0.2780075 -0.2780038
v -0.1083887 -0.3797598 -0.1017572
v 0.1083887 -0.2780075 -0.2780038
v 0.1083887 -0.1017523 -0.3797625
v -0.1083887 -0.1017523 -0.3797625
v -0.1083887 -0.2780075 -0.2780038
v 0.1083887 -0.1017523 -0.3797625
v 0.1083887 0.1017524 -0.3797604
v -0.1083887 0.1017524 -0.3797604
v -0.1083887 -0.1017523 -0.3797625
v 0.1083887 0.1017524 -0.3797604
v 0.1083887 0.2780076 -0.2780049
v -0.1083887 0.2780076 -0.2780049
v -0.1083887 0.1017524 -0.3797604
v 0.1083887 0.2780076 -0.2780049
v 0.1083887 0.37976 -0.1017557
v -0.1083887 0.37976 -0.1017557
v -0.1083887 0.2780076 -0.2780049
v 0.1083887 0.37976 -0.1017557
v 0.1083887 0.379765 0.1017577
v -0.1083887 0.379765 0.1017577
v -0.1083887 0.37976 -0.1017557
v 0.1083887 0.379765 0.1017577
v 0.1083887 0.2780024 0.278006
v -0.1083887 0.2780024 0.278006
v -0.1083887 0.379765 0.1017577
v 0.1083887 0.2780024 0.278006
v 0.1083887 0.1017625 0.3797613
v -0.1083887 0.1017625 0.3797613
v -0.1083887 0.2780024 0.278006
v 0.1083887 0.1017625 0.3797613
v 0.1083887 -0.1017575 0.3797624
v -0.1083887 -0.1017575 0.3797624
v -0.1083887 0.1017625 0.3797613
v -0.1083887 -0.1017575 0.3797624
v -0.1083887 -0.2780025 0.2780055
v -0.1083887 5.082728E-06 -4.927135E-07
v -0.1083887 -0.2780025 0.2780055
v -0.1083887 -0.379765 0.1017578
v -0.1083887 5.082728E-06 -4.927135E-07
v -0.1083887 -0.379765 0.1017578
v -0.1083887 -0.3797598 -0.1017572
v -0.1083887 5.082728E-06 -4.927135E-07
v -0.1083887 -0.3797598 -0.1017572
v -0.1083887 -0.2780075 -0.2780038
v -0.1083887 5.082728E-06 -4.927135E-07
v -0.1083887 -0.2780075 -0.2780038
v -0.1083887 -0.1017523 -0.3797625
v -0.1083887 5.082728E-06 -4.927135E-07
v -0.1083887 -0.1017523 -0.3797625
v -0.1083887 0.1017524 -0.3797604
v -0.1083887 5.082728E-06 -4.927135E-07
v -0.1083887 0.1017524 -0.3797604
v -0.1083887 0.2780076 -0.2780049
v -0.1083887 5.082728E-06 -4.927135E-07
v -0.1083887 0.2780076 -0.2780049
v -0.1083887 0.37976 -0.1017557
v -0.1083887 5.082728E-06 -4.927135E-07
v -0.1083887 0.37976 -0.1017557
v -0.1083887 0.379765 0.1017577
v -0.1083887 5.082728E-06 -4.927135E-07
v -0.1083887 0.379765 0.1017577
v -0.1083887 0.2780024 0.278006
v -0.1083887 5.082728E-06 -4.927135E-07
v -0.1083887 0.2780024 0.278006
v -0.1083887 0.1017625 0.3797613
v -0.1083887 5.082728E-06 -4.927135E-07
v -0.1083887 0.1017625 0.3797613
v -0.1083887 -0.1017575 0.3797624
v -0.1083887 5.082728E-06 -4.927135E-07
v 0.1083887 -0.2780052 0.2780055
v 0.1083887 -0.1017575 0.3797624
v 0.1083887 -0.3797625 0.1017578
v 0.1083887 -0.3797598 -0.1017572
v 0.1083887 -0.2780075 -0.2780038
v 0.1083887 -0.1017523 -0.3797625
v 0.1083887 0.1017524 -0.3797604
v 0.1083887 0.2780076 -0.2780049
v 0.1083887 0.37976 -0.1017557
v 0.1083887 0.379765 0.1017577
v 0.1083887 0.2780024 0.278006
v 0.1083887 0.1017625 0.3797613
vt 0.001458514 0.989243
vt 0.001458514 0.989243
vt 0.001458514 0.989243
vt 0.001458514 0.989243
vt 0.001458514 0.989243
vt 0.001458514 0.989243
vt 0.001458514 0.989243
vt 0.001458514 0.989243
vt 0.001458514 0.989243
vt 0.001458514 0.989243
vt 0.001458514 0.989243
vt 0.001458514 0.989243
vt 0.001458514 0.989243
vt 0.001458514 0.989243
vt 0.001458514 0.989243
vt 0.001458514 0.989243
vt 0.001458514 0.989243
vt 0.001458514 0.989243
vt 0.001458514 0.989243
vt 0.001458514 0.989243
vt 0.001458514 0.989243
vt 0.001458514 0.989243
vt 0.001458514 0.989243
vt 0.001458514 0.989243
vt 0.001458514 0.989243
vt 0.001458514 0.989243
vt 0.001458514 0.989243
vt 0.001458514 0.989243
vt 0.001458514 0.989243
vt 0.001458514 0.989243
vt 0.001458514 0.989243
vt 0.001458514 0.989243
vt 0.001458514 0.989243
vt 0.001458514 0.989243
vt 0.001458514 0.989243
vt 0.001458514 0.989243
vt 0.001458514 0.989243
vt 0.001458514 0.989243
vt 0.001458514 0.989243
vt 0.001458514 0.989243
vt 0.001458514 0.989243
vt 0.001458514 0.989243
vt 0.001458514 0.989243
vt 0.001458514 0.989243
vt 0.001458514 0.989243
vt 0.001458514 0.989243
vt 0.001458514 0.989243
vt 0.001458514 0.989243
vt 0.001353514 0.936885
vt 0.001645514 0.936885
vt 0.001645514 0.866149
vt 0.001353514 0.936885
vt 0.001645514 0.936885
vt 0.001645514 0.866149
vt 0.001353514 0.936885
vt 0.001645514 0.936885
vt 0.001645514 0.866149
vt 0.001353514 0.936885
vt 0.001645514 0.936885
vt 0.001645514 0.866149
vt 0.001353514 0.936885
vt 0.001645514 0.936885
vt 0.001645514 0.866149
vt 0.001353514 0.936885
vt 0.001645514 0.936885
vt 0.001645514 0.866149
vt 0.001353514 0.936885
vt 0.001645514 0.936885
vt 0.001645514 0.866149
vt 0.001353514 0.936885
vt 0.001645514 0.936885
vt 0.001645514 0.866149
vt 0.001353514 0.936885
vt 0.001645514 0.936885
vt 0.001645514 0.866149
vt 0.001353514 0.936885
vt 0.001645514 0.936885
vt 0.001645514 0.866149
vt 0.001353514 0.936885
vt 0.001645514 0.936885
vt 0.001645514 0.866149
vt 0.001353514 0.936885
vt 0.001645514 0.936885
vt 0.001645514 0.866149
vt 0.003079514 0.952223
vt 0.003079514 0.952223
vt 0.003079514 0.952223
vt 0.003079514 0.952223
vt 0.003079514 0.952223
vt 0.003079514 0.952223
vt 0.003079514 0.952223
vt 0.003079514 0.952223
vt 0.003079514 0.952223
vt 0.003079514 0.952223
vt 0.003079514 0.952223
vt 0.003079514 0.952223
vn -3.121495E-06 -0.5000036 0.8660234
vn -3.121495E-06 -0.5000036 0.8660234
vn -3.121495E-06 -0.5000036 0.8660234
vn -3.121495E-06 -0.5000036 0.8660234
vn -4.582745E-07 -0.8660187 0.5000117
vn -4.582745E-07 -0.8660187 0.5000118
vn -4.582746E-07 -0.8660187 0.5000118
vn -4.582745E-07 -0.8660187 0.5000118
vn 5.719123E-06 -1 -1.94001E-05
vn 5.719123E-06 -1 -1.94001E-05
vn 5.719123E-06 -1 -1.94001E-05
vn 5.719123E-06 -1 -1.94001E-05
vn 0 -0.8660334 -0.4999862
vn 0 -0.8660334 -0.4999862
vn 0 -0.8660334 -0.4999862
vn 0 -0.8660334 -0.4999862
vn 0 -0.4999917 -0.8660303
vn 0 -0.4999917 -0.8660303
vn 0 -0.4999917 -0.8660303
vn 0 -0.4999917 -0.8660303
vn 0 1.030976E-05 -1
vn 0 1.030976E-05 -1
vn 0 1.030976E-05 -1
vn 0 1.030976E-05 -1
vn 0 0.4999796 -0.8660371
vn 0 0.4999796 -0.8660371
vn 0 0.4999796 -0.8660371
vn 0 0.4999796 -0.8660371
vn 0 0.8660364 -0.499981
vn 0 0.8660364 -0.499981
vn 0 0.8660364 -0.499981
vn 0 0.8660364 -0.499981
vn 0 1 -2.436747E-05
vn 0 1 -2.436747E-05
vn 0 1 -2.436747E-05
vn 0 1 -2.436747E-05
vn 0 0.8660136 0.5000203
vn 0 0.8660136 0.5000203
vn 0 0.8660136 0.5000203
vn 0 0.8660136 0.5000203
vn 0 0.5000117 0.8660187
vn 0 0.5000117 0.8660187
vn 0 0.5000117 0.8660187
vn 0 0.5000117 0.8660187
vn 0 5.248207E-06 1
vn 0 5.248207E-06 1
vn 0 5.248207E-06 1
vn 0 5.248207E-06 1
vn -1 0 0
vn -1 0 0
vn -1 0 0
vn -1 0 0
vn -1 0 0
vn -1 0 0
vn -1 0 0
vn -1 0 0
vn -1 0 0
vn -1 0 0
vn -1 0 0
vn -1 0 0
vn -1 0 0
vn -1 0 0
vn -1 0 0
vn -1 0 0
vn -1 0 0
vn -1 0 0
vn -1 0 0
vn -1 0 0
vn -1 0 0
vn -1 0 0
vn -1 0 0
vn -1 0 0
vn -1 0 0
vn -1 0 0
vn -1 0 0
vn -1 0 0
vn -1 0 0
vn -1 0 0
vn -1 0 0
vn -1 0 0
vn -1 0 0
vn -1 0 0
vn -1 0 0
vn -1 0 0
vn 1 0 0
vn 1 0 0
vn 1 0 0
vn 1 0 0
vn 1 0 0
vn 1 0 0
vn 1 0 0
vn 1 0 0
vn 1 0 0
vn 1 0 0
vn 1 0 0
vn 1 0 0
g Car_08_lunzi_FR_0
f 3/3/3 2/2/2 1/1/1
f 4/4/4 3/3/3 1/1/1
f 7/7/7 6/6/6 5/5/5
f 8/8/8 7/7/7 5/5/5
f 11/11/11 10/10/10 9/9/9
f 12/12/12 11/11/11 9/9/9
f 15/15/15 14/14/14 13/13/13
f 16/16/16 15/15/15 13/13/13
f 19/19/19 18/18/18 17/17/17
f 20/20/20 19/19/19 17/17/17
f 23/23/23 22/22/22 21/21/21
f 24/24/24 23/23/23 21/21/21
f 27/27/27 26/26/26 25/25/25
f 28/28/28 27/27/27 25/25/25
f 31/31/31 30/30/30 29/29/29
f 32/32/32 31/31/31 29/29/29
f 35/35/35 34/34/34 33/33/33
f 36/36/36 35/35/35 33/33/33
f 39/39/39 38/38/38 37/37/37
f 40/40/40 39/39/39 37/37/37
f 43/43/43 42/42/42 41/41/41
f 44/44/44 43/43/43 41/41/41
f 47/47/47 46/46/46 45/45/45
f 48/48/48 47/47/47 45/45/45
f 51/51/51 50/50/50 49/49/49
f 54/54/54 53/53/53 52/52/52
f 57/57/57 56/56/56 55/55/55
f 60/60/60 59/59/59 58/58/58
f 63/63/63 62/62/62 61/61/61
f 66/66/66 65/65/65 64/64/64
f 69/69/69 68/68/68 67/67/67
f 72/72/72 71/71/71 70/70/70
f 75/75/75 74/74/74 73/73/73
f 78/78/78 77/77/77 76/76/76
f 81/81/81 80/80/80 79/79/79
f 84/84/84 83/83/83 82/82/82
f 87/87/87 86/86/86 85/85/85
f 88/88/88 86/86/86 87/87/87
f 89/89/89 86/86/86 88/88/88
f 90/90/90 86/86/86 89/89/89
f 91/91/91 86/86/86 90/90/90
f 92/92/92 86/86/86 91/91/91
f 93/93/93 86/86/86 92/92/92
f 94/94/94 86/86/86 93/93/93
f 95/95/95 86/86/86 94/94/94
f 96/96/96 86/86/86 95/95/95
