g Car_034_lunzi_FR
v 0.1120827 -1.525879E-07 0.2096557
v -0.09612507 0.1048277 0.1815671
v 0.1120827 0.1048277 0.1815671
v -0.09612507 -1.525879E-07 0.209656
v 0.1120827 -0.1048282 0.1815669
v -0.09612503 -0.1048282 0.1815669
v -0.1119709 -1.525879E-07 0.1660175
v -0.1119709 0.08300869 0.143775
v -0.09612507 0.1815673 0.1048279
v -0.1119709 0.1437754 0.0830088
v -0.0961251 0.2096559 1.883258E-08
v -0.1119709 0.1660173 -2.469191E-08
v -0.09612507 0.1815673 -0.1048279
v -0.1119709 0.1437751 -0.08300887
v -0.09612507 0.1048281 -0.1815673
v -0.1119709 0.08300899 -0.1437753
v -0.09612507 1.525879E-07 -0.2096561
v -0.1119709 1.525879E-07 -0.1660175
v -0.1119709 -0.08300903 0.1437753
v -0.1119709 -0.1437753 0.08300815
v -0.09612503 -0.1815674 0.1048272
v -0.1119709 -0.1660173 -3.558585E-07
v -0.09612503 -0.2096559 -3.993829E-07
v -0.1119709 -0.1437752 -0.08300917
v -0.09612503 -0.1815671 -0.1048283
v -0.1119709 -0.08300842 -0.1437758
v -0.09612503 -0.1048277 -0.1815675
v -0.1119709 1.525879E-07 -0.1660175
v -0.09612507 1.525879E-07 -0.2096561
v 0.112083 0.1048281 -0.1815673
v 0.112083 0.1815673 -0.1048279
v 0.1120827 0.2096559 1.883256E-08
v 0.1120827 0.181567 0.1048279
v 0.1120827 1.525879E-07 -0.2096561
v 0.1120827 -0.1048277 -0.1815675
v 0.1120827 -0.1815671 -0.1048283
v 0.1279285 0.1437754 0.08300845
v 0.1279285 0.1660173 -3.763408E-07
v 0.1279289 0.1437753 -0.08300887
v 0.1279285 0.08300854 -0.1437756
v 0.1279285 0.08300869 0.1437754
v 0.1279285 -1.525879E-07 0.1660175
v 0.1279285 1.525879E-07 -0.1660175
v 0.1279289 -0.08300873 -0.1437758
v 0.1279286 -0.1437755 -0.08300917
v 0.1120827 -0.2096559 -3.99383E-07
v 0.1120827 -0.1815674 0.1048276
v 0.1279289 -0.1660173 -3.558585E-07
v 0.1279289 -0.1437752 0.08300815
v 0.1279286 -0.08300903 0.1437749
v -0.09612507 0.05521755 0.09563921
v -0.1119709 0.1437754 0.0830088
v -0.1119709 0.08300869 0.143775
v -0.09612507 0.09563961 0.05521722
v -0.1119709 0.1660173 -2.469191E-08
v -0.09612507 0.110435 -8.012892E-08
v -0.1119709 0.1437751 -0.08300887
v -0.09612507 0.09563976 -0.05521741
v -0.1119709 0.08300899 -0.1437753
v -0.09612507 0.0552177 -0.09563948
v -0.1119709 1.525879E-07 -0.1660175
v -0.09612507 1.525879E-07 -0.1104352
v -0.1119709 -0.08300842 -0.1437758
v -0.09612507 -0.05521728 -0.09563994
v -0.1119709 -0.1437752 -0.08300917
v -0.09612503 -0.09563934 -0.0552176
v -0.1119709 -0.1660173 -3.558585E-07
v -0.09612503 -0.110435 -3.004214E-07
v -0.1119709 -0.1437753 0.08300815
v -0.09612503 -0.09563934 0.05521703
v -0.1119709 -0.08300903 0.1437753
v -0.09612507 -0.05521774 0.09563947
v -0.1119709 -1.525879E-07 0.1660175
v -0.09612507 -1.525879E-07 0.1104348
v 0.1120827 1.525879E-07 -0.2096561
v 0.1279285 1.525879E-07 -0.1660175
v -0.1279288 0.005047149 0.07321355
v -0.1279289 0.06845226 0.03660661
v -0.1279289 0.04165417 0.06340469
v -0.1279285 0.07826122 -3.847411E-07
v -0.1279285 0.06845241 -0.03660739
v -0.1279285 0.04165432 -0.06340553
v -0.1279285 0.005047302 -0.07321446
v -0.1279288 -0.0315593 -0.0634056
v -0.1279288 -0.05835785 -0.03660753
v -0.1279288 -0.06816666 -5.307863E-07
v -0.1279288 -0.05835785 0.03660648
v -0.1279288 -0.03155945 0.06340461
v -0.1279289 0.04165417 0.06340469
v -0.09691051 0.005047149 0.1203253
v -0.1279288 0.005047149 0.07321355
v -0.09691051 0.06521007 0.1042048
v -0.1279289 0.06845226 0.03660661
v -0.09691051 0.1092524 0.06016255
v -0.1279285 0.07826122 -3.847411E-07
v -0.09691051 0.125373 -3.377524E-07
v -0.1279285 0.06845241 -0.03660739
v -0.09691051 0.1092524 -0.06016326
v -0.1279285 0.04165432 -0.06340553
v -0.09691051 0.06521022 -0.1042056
v -0.1279285 0.005047302 -0.07321446
v -0.09691051 0.005047454 -0.1203263
v -0.1279288 -0.0315593 -0.0634056
v -0.09691051 -0.05511551 -0.1042057
v -0.1279288 -0.05835785 -0.03660753
v -0.09691048 -0.09915786 -0.06016346
v -0.1279288 -0.06816666 -5.307863E-07
v -0.09691048 -0.1152785 -5.777749E-07
v -0.1279288 -0.05835785 0.03660648
v -0.09691048 -0.09915786 0.06016234
v -0.1279288 -0.03155945 0.06340461
v -0.09691051 -0.05511566 0.1042047
v -0.09612507 0.110435 -8.012892E-08
v -0.09612507 0.0552177 -0.09563948
v -0.09612507 0.09563976 -0.05521741
v -0.09612507 0.05521755 0.09563921
v -0.09612503 -0.110435 -3.004214E-07
v -0.09612507 -0.05521728 -0.09563994
v -0.09612507 1.525879E-07 -0.1104352
v -0.09612503 -0.09563934 -0.0552176
v -0.09612507 -0.05521774 0.09563947
v -0.09612503 -0.09563934 0.05521703
v -0.09612507 -1.525879E-07 0.1104348
v -0.09612507 0.09563961 0.05521722
v 0.1279286 -0.1437755 -0.08300917
v 0.1279285 1.525879E-07 -0.1660175
v 0.1279289 -0.08300873 -0.1437758
v 0.1279289 -0.1437752 0.08300815
v 0.1279285 0.1437754 0.08300845
v 0.1279289 0.1437753 -0.08300887
v 0.1279285 0.08300854 -0.1437756
v 0.1279285 0.1660173 -3.763408E-07
v 0.1279285 -1.525879E-07 0.1660175
v 0.1279285 0.08300869 0.1437754
v 0.1279286 -0.08300903 0.1437749
v 0.1279289 -0.1660173 -3.558585E-07
v -0.09691051 -0.05511566 0.1042047
v -0.09691048 -0.1152785 -5.777749E-07
v -0.09691048 -0.09915786 0.06016234
v -0.09691051 0.06521007 0.1042048
v -0.09691051 0.06521022 -0.1042056
v -0.09691051 -0.05511551 -0.1042057
v -0.09691048 -0.09915786 -0.06016346
v -0.09691051 0.005047454 -0.1203263
v -0.09691051 0.125373 -3.377524E-07
v -0.09691051 0.1092524 -0.06016326
v -0.09691051 0.1092524 0.06016255
v -0.09691051 0.005047149 0.1203253
vt 0.8651603 0.2692112
vt 0.9482148 0.2280035
vt 0.8651603 0.2280035
vt 0.9482148 0.2692112
vt 0.8651603 0.3103597
vt 0.9482148 0.3103597
vt 0.9781823 0.2692112
vt 0.9781823 0.2280035
vt 0.9482148 0.1867988
vt 0.9781823 0.1867988
vt 0.9482148 0.145621
vt 0.9781823 0.145621
vt 0.9482148 0.1044923
vt 0.9781823 0.1044923
vt 0.9482148 0.06374456
vt 0.9781823 0.06374456
vt 0.9482148 0.02360811
vt 0.9781823 0.02360811
vt 0.9781823 0.3103597
vt 0.9781823 0.3515452
vt 0.9482148 0.3515452
vt 0.9781823 0.3927544
vt 0.9482148 0.3927544
vt 0.9781823 0.433928
vt 0.9482148 0.433928
vt 0.9781823 0.4746589
vt 0.9482148 0.4746589
vt 0.9781823 0.5147843
vt 0.9482148 0.5147843
vt 0.8651603 0.06374456
vt 0.8651603 0.1044923
vt 0.8651603 0.145621
vt 0.8651603 0.1867988
vt 0.8651603 0.5147843
vt 0.8651603 0.4746589
vt 0.8651603 0.433928
vt 0.8362134 0.1867988
vt 0.8362134 0.145621
vt 0.8362134 0.1044923
vt 0.8362134 0.06374456
vt 0.8362134 0.2280035
vt 0.8362134 0.2692112
vt 0.8362134 0.5147843
vt 0.8362134 0.4746589
vt 0.8362134 0.433928
vt 0.8651603 0.3927544
vt 0.8651603 0.3515452
vt 0.8362134 0.3927544
vt 0.8362134 0.3515452
vt 0.8362134 0.3103597
vt 0.7919382 0.6281254
vt 0.8024012 0.5642797
vt 0.7575939 0.6069221
vt 0.8215915 0.5999045
vt 0.8624125 0.5498618
vt 0.8613067 0.590363
vt 0.9215477 0.5675323
vt 0.9004422 0.6020571
vt 0.9639617 0.6125558
vt 0.9285118 0.6318537
vt 0.9782895 0.6728689
vt 0.9379941 0.6717689
vt 0.9606927 0.7323102
vt 0.9263487 0.711107
vt 0.9158855 0.774953
vt 0.896695 0.7393279
vt 0.8558742 0.7893707
vt 0.8569798 0.7488697
vt 0.796739 0.7717004
vt 0.8178442 0.7371754
vt 0.7543247 0.7266769
vt 0.7897744 0.707379
vt 0.7399965 0.6663637
vt 0.7802922 0.6674637
vt 0.8651603 0.02360811
vt 0.8362134 0.02360811
vt 0.8427507 0.9017633
vt 0.8659139 0.9445388
vt 0.848601 0.9262538
vt 0.8900487 0.9517215
vt 0.9145393 0.9458661
vt 0.9328243 0.928553
vt 0.9400017 0.9044182
vt 0.9341516 0.8799279
vt 0.9168383 0.8616481
vt 0.8927037 0.8544655
vt 0.8682131 0.8603206
vt 0.8499284 0.8776286
vt 0.848601 0.9262538
vt 0.8114629 0.9009092
vt 0.8427507 0.9017633
vt 0.8210763 0.9411634
vt 0.8659139 0.9445388
vt 0.8495302 0.9712144
vt 0.8900487 0.9517215
vt 0.8891946 0.9830093
vt 0.9145393 0.9458661
vt 0.9294434 0.9733959
vt 0.9328243 0.928553
vt 0.9594943 0.9449421
vt 0.9400017 0.9044182
vt 0.971295 0.9052725
vt 0.9341516 0.8799279
vt 0.9616759 0.8650234
vt 0.9168383 0.8616481
vt 0.9332278 0.834973
vt 0.8927037 0.8544655
vt 0.8935579 0.8231775
vt 0.8682131 0.8603206
vt 0.853309 0.8327911
vt 0.8499284 0.8776286
vt 0.8232579 0.8612447
vt 0.8613067 0.590363
vt 0.9285118 0.6318537
vt 0.9004422 0.6020571
vt 0.7919382 0.6281254
vt 0.8569798 0.7488697
vt 0.9263487 0.711107
vt 0.9379941 0.6717689
vt 0.896695 0.7393279
vt 0.7897744 0.707379
vt 0.8178442 0.7371754
vt 0.7802922 0.6674637
vt 0.8215915 0.5999045
vt 0.8362134 0.433928
vt 0.8362134 0.5147843
vt 0.8362134 0.4746589
vt 0.8362134 0.3515452
vt 0.8362134 0.1867988
vt 0.8362134 0.1044923
vt 0.8362134 0.06374456
vt 0.8362134 0.145621
vt 0.8362134 0.2692112
vt 0.8362134 0.2280035
vt 0.8362134 0.3103597
vt 0.8362134 0.3927544
vt 0.8232579 0.8612447
vt 0.8935579 0.8231775
vt 0.853309 0.8327911
vt 0.8210763 0.9411634
vt 0.9594943 0.9449421
vt 0.9616759 0.8650234
vt 0.9332278 0.834973
vt 0.971295 0.9052725
vt 0.8891946 0.9830093
vt 0.9294434 0.9733959
vt 0.8495302 0.9712144
vt 0.8114629 0.9009092
vn 0.5332494 -3.379429E-07 0.8459581
vn -0.5332496 0.4229786 0.7326213
vn 0.5332488 0.4229786 0.7326218
vn -0.5332487 -1.29732E-07 0.8459585
vn 0.5332496 -0.4229797 0.7326206
vn -0.533249 -0.4229822 0.7326197
vn -0.9399504 3.294911E-07 0.3413112
vn -0.93995 0.1706565 0.2955849
vn -0.5332487 0.7326211 0.4229801
vn -0.9399499 0.2955849 0.170657
vn -0.53325 0.8459577 0
vn -0.9399507 0.3413102 -9.133094E-07
vn -0.5332498 0.7326213 -0.4229782
vn -0.9399503 0.2955844 -0.1706557
vn -0.5332496 0.4229799 -0.7326205
vn -0.9399501 0.1706567 -0.2955844
vn -0.5332498 5.317402E-07 -0.8459578
vn -0.9399502 1.678348E-07 -0.3413115
vn -0.9399493 -0.1706588 0.2955854
vn -0.9399499 -0.2955858 0.1706556
vn -0.5332501 -0.7326217 0.4229774
vn -0.9399504 -0.341311 1.565084E-07
vn -0.5332496 -0.8459579 -6.790901E-07
vn -0.9399499 -0.2955851 -0.1706569
vn -0.5332493 -0.7326205 -0.4229802
vn -0.9399496 -0.1706557 -0.2955865
vn -0.5332491 -0.4229788 -0.7326216
vn -0.9399502 1.678348E-07 -0.3413115
vn -0.5332498 5.317402E-07 -0.8459578
vn 0.5332518 0.4229783 -0.7326199
vn 0.53325 0.7326217 -0.4229774
vn 0.5332493 0.8459582 1.753781E-06
vn 0.5332493 0.7326205 0.4229802
vn 0.5332495 2.979025E-07 -0.8459579
vn 0.5332468 -0.4229787 -0.7326233
vn 0.5332482 -0.7326213 -0.4229802
vn 0.9399498 0.2955861 0.1706558
vn 0.9399504 0.3413112 2.512372E-07
vn 0.9399504 0.2955851 -0.170654
vn 0.9399521 0.1706499 -0.2955821
vn 0.9399492 0.1706569 0.2955867
vn 0.9399495 -7.660668E-07 0.3413138
vn 0.9399499 1.771018E-07 -0.3413126
vn 0.9399472 -0.1706573 -0.2955932
vn 0.9399489 -0.2955883 -0.1706563
vn 0.5332474 -0.8459594 -1.329348E-06
vn 0.5332476 -0.7326225 0.4229791
vn 0.9399481 -0.3413174 -1.107916E-06
vn 0.9399486 -0.2955885 0.1706578
vn 0.9399499 -0.1706558 0.2955854
vn -0.961683 -0.1370817 -0.237433
vn -0.9616831 -0.2374323 -0.1370817
vn -0.961683 -0.1370817 -0.2374331
vn -0.9616831 -0.2374327 -0.1370811
vn -0.9616828 -0.2741645 2.123549E-07
vn -0.9616827 -0.274165 0
vn -0.9616827 -0.2374339 0.1370823
vn -0.9616827 -0.2374345 0.1370814
vn -0.961683 -0.1370823 0.2374329
vn -0.9616829 -0.1370822 0.2374329
vn -0.9616829 -9.371934E-07 0.2741644
vn -0.9616828 -1.387674E-06 0.2741644
vn -0.9616831 0.1370811 0.237433
vn -0.9616831 0.1370811 0.2374326
vn -0.9616831 0.2374322 0.1370818
vn -0.9616831 0.2374327 0.1370814
vn -0.9616829 0.2741644 3.822393E-07
vn -0.9616829 0.2741644 5.483043E-07
vn -0.961683 0.2374333 -0.1370813
vn -0.9616831 0.2374329 -0.1370815
vn -0.9616831 0.1370823 -0.2374319
vn -0.9616831 0.1370825 -0.2374317
vn -0.9616832 -6.455608E-07 -0.2741631
vn -0.9616832 -8.988117E-07 -0.2741631
vn 0.5332495 2.979025E-07 -0.8459579
vn 0.9399499 1.771018E-07 -0.3413126
vn -1 4.844765E-07 -1.952007E-06
vn -1 -6.548074E-06 -1.029953E-05
vn -1 -1.423493E-06 -1.423493E-06
vn -1 1.206443E-06 -2.96183E-06
vn -1 2.219427E-06 -1.49746E-06
vn -1 1.039757E-06 -1.955168E-06
vn -1 4.168312E-06 -2.084131E-06
vn -1 4.66691E-06 -1.250476E-06
vn -1 0 0
vn -1 0 0
vn -1 0 0
vn -1 0 0
vn -0.8352239 0.2749549 0.4762361
vn -0.8352239 -5.62223E-07 0.54991
vn -0.8352242 -1.199951E-06 0.5499095
vn -0.8352241 0.2749546 0.4762361
vn -0.8352243 0.4762366 0.274953
vn -0.835225 0.4762348 0.2749537
vn -0.8352256 0.5499073 -6.147113E-07
vn -0.8352264 0.5499063 1.28031E-07
vn -0.8352263 0.476233 -0.274953
vn -0.8352263 0.476233 -0.2749529
vn -0.8352265 0.2749542 -0.4762321
vn -0.8352264 0.2749538 -0.4762323
vn -0.8352264 2.425161E-06 -0.5499061
vn -0.8352258 1.46679E-06 -0.549907
vn -0.8352256 -0.2749503 -0.4762357
vn -0.8352246 -0.274954 -0.4762356
vn -0.8352243 -0.4762349 -0.2749557
vn -0.8352237 -0.4762362 -0.2749553
vn -0.8352237 -0.5499105 0
vn -0.8352237 -0.5499104 -1.196811E-07
vn -0.8352235 -0.4762357 0.2749567
vn -0.835224 -0.476236 0.274955
vn -0.8352242 -0.2749556 0.476235
vn -0.8352246 -0.2749559 0.4762343
vn -1 0 0
vn -1 0 0
vn -1 0 0
vn -1 0 0
vn -1 -1.289153E-06 -3.454333E-07
vn -1 0 0
vn -1 0 0
vn -1 -1.289153E-06 -3.454333E-07
vn -1 -1.289173E-06 3.454387E-07
vn -1 -1.289173E-06 3.454387E-07
vn -1 0 0
vn -1 0 0
vn 1 8.345504E-06 1.399538E-05
vn 1 8.345504E-06 1.399538E-05
vn 1 8.345504E-06 1.399538E-05
vn 1 -1.440267E-06 7.090097E-06
vn 1 7.717944E-06 2.067987E-06
vn 1 2.067965E-06 -7.717809E-06
vn 1 2.067965E-06 -7.717809E-06
vn 1 7.717944E-06 2.067987E-06
vn 1 0 0
vn 1 0 0
vn 1 -1.440267E-06 7.090098E-06
vn 1 7.717887E-06 -2.068008E-06
vn 1 1.183178E-06 -3.170316E-07
vn 1 1.183178E-06 -3.170316E-07
vn 1 1.183178E-06 -3.170316E-07
vn 1 0 0
vn 1 0 0
vn 1 1.183172E-06 3.170302E-07
vn 1 1.183172E-06 3.170302E-07
vn 1 0 0
vn 1 0 0
vn 1 0 0
vn 1 0 0
vn 1 0 0
g Car_034_lunzi_FR_0
f 3/3/3 2/2/2 1/1/1
f 4/4/4 1/1/1 2/2/2
f 1/1/1 4/4/4 5/5/5
f 6/6/6 5/5/5 4/4/4
f 4/4/4 2/2/2 7/7/7
f 8/8/8 7/7/7 2/2/2
f 2/2/2 9/9/9 8/8/8
f 2/2/2 3/3/3 9/9/9
f 10/10/10 8/8/8 9/9/9
f 9/9/9 11/11/11 10/10/10
f 12/12/12 10/10/10 11/11/11
f 11/11/11 13/13/13 12/12/12
f 14/14/14 12/12/12 13/13/13
f 13/13/13 15/15/15 14/14/14
f 16/16/16 14/14/14 15/15/15
f 15/15/15 17/17/17 16/16/16
f 18/18/18 16/16/16 17/17/17
f 6/6/6 4/4/4 19/19/19
f 7/7/7 19/19/19 4/4/4
f 19/19/19 20/20/20 6/6/6
f 21/21/21 6/6/6 20/20/20
f 20/20/20 22/22/22 21/21/21
f 23/23/23 21/21/21 22/22/22
f 22/22/22 24/24/24 23/23/23
f 25/25/25 23/23/23 24/24/24
f 24/24/24 26/26/26 25/25/25
f 27/27/27 25/25/25 26/26/26
f 26/26/26 28/28/28 27/27/27
f 29/29/29 27/27/27 28/28/28
f 15/15/15 30/30/30 17/17/17
f 30/30/30 15/15/15 31/31/31
f 13/13/13 31/31/31 15/15/15
f 31/31/31 13/13/13 32/32/32
f 11/11/11 32/32/32 13/13/13
f 32/32/32 11/11/11 33/33/33
f 9/9/9 33/33/33 11/11/11
f 33/33/33 9/9/9 3/3/3
f 29/29/29 34/34/34 27/27/27
f 35/35/35 27/27/27 34/34/34
f 27/27/27 35/35/35 25/25/25
f 36/36/36 25/25/25 35/35/35
f 33/33/33 37/37/37 32/32/32
f 38/38/38 32/32/32 37/37/37
f 32/32/32 38/38/38 31/31/31
f 39/39/39 31/31/31 38/38/38
f 31/31/31 39/39/39 30/30/30
f 40/40/40 30/30/30 39/39/39
f 37/37/37 33/33/33 41/41/41
f 3/3/3 41/41/41 33/33/33
f 41/41/41 3/3/3 42/42/42
f 1/1/1 42/42/42 3/3/3
f 34/34/34 43/43/43 35/35/35
f 44/44/44 35/35/35 43/43/43
f 35/35/35 44/44/44 36/36/36
f 45/45/45 36/36/36 44/44/44
f 36/36/36 45/45/45 46/46/46
f 46/46/46 23/23/23 36/36/36
f 25/25/25 36/36/36 23/23/23
f 23/23/23 46/46/46 21/21/21
f 47/47/47 21/21/21 46/46/46
f 46/46/46 48/48/48 47/47/47
f 48/48/48 46/46/46 45/45/45
f 49/49/49 47/47/47 48/48/48
f 21/21/21 47/47/47 6/6/6
f 5/5/5 6/6/6 47/47/47
f 47/47/47 49/49/49 5/5/5
f 50/50/50 5/5/5 49/49/49
f 42/42/42 1/1/1 50/50/50
f 5/5/5 50/50/50 1/1/1
f 53/53/53 52/52/52 51/51/51
f 54/54/54 51/51/51 52/52/52
f 52/52/52 55/55/55 54/54/54
f 56/56/56 54/54/54 55/55/55
f 55/55/55 57/57/57 56/56/56
f 58/58/58 56/56/56 57/57/57
f 57/57/57 59/59/59 58/58/58
f 60/60/60 58/58/58 59/59/59
f 59/59/59 61/61/61 60/60/60
f 62/62/62 60/60/60 61/61/61
f 61/61/61 63/63/63 62/62/62
f 64/64/64 62/62/62 63/63/63
f 63/63/63 65/65/65 64/64/64
f 66/66/66 64/64/64 65/65/65
f 65/65/65 67/67/67 66/66/66
f 68/68/68 66/66/66 67/67/67
f 67/67/67 69/69/69 68/68/68
f 70/70/70 68/68/68 69/69/69
f 69/69/69 71/71/71 70/70/70
f 72/72/72 70/70/70 71/71/71
f 71/71/71 73/73/73 72/72/72
f 74/74/74 72/72/72 73/73/73
f 73/73/73 53/53/53 74/74/74
f 51/51/51 74/74/74 53/53/53
f 75/75/75 17/17/17 30/30/30
f 30/30/30 40/40/40 75/75/75
f 76/76/76 75/75/75 40/40/40
f 79/79/79 78/78/78 77/77/77
f 78/78/78 80/80/80 77/77/77
f 80/80/80 81/81/81 77/77/77
f 81/81/81 82/82/82 77/77/77
f 82/82/82 83/83/83 77/77/77
f 83/83/83 84/84/84 77/77/77
f 84/84/84 85/85/85 77/77/77
f 85/85/85 86/86/86 77/77/77
f 86/86/86 87/87/87 77/77/77
f 87/87/87 88/88/88 77/77/77
f 91/91/91 90/90/90 89/89/89
f 92/92/92 89/89/89 90/90/90
f 89/89/89 92/92/92 93/93/93
f 94/94/94 93/93/93 92/92/92
f 93/93/93 94/94/94 95/95/95
f 96/96/96 95/95/95 94/94/94
f 95/95/95 96/96/96 97/97/97
f 98/98/98 97/97/97 96/96/96
f 97/97/97 98/98/98 99/99/99
f 100/100/100 99/99/99 98/98/98
f 99/99/99 100/100/100 101/101/101
f 102/102/102 101/101/101 100/100/100
f 101/101/101 102/102/102 103/103/103
f 104/104/104 103/103/103 102/102/102
f 103/103/103 104/104/104 105/105/105
f 106/106/106 105/105/105 104/104/104
f 105/105/105 106/106/106 107/107/107
f 108/108/108 107/107/107 106/106/106
f 107/107/107 108/108/108 109/109/109
f 110/110/110 109/109/109 108/108/108
f 109/109/109 110/110/110 111/111/111
f 112/112/112 111/111/111 110/110/110
f 111/111/111 112/112/112 91/91/91
f 90/90/90 91/91/91 112/112/112
f 115/115/115 114/114/114 113/113/113
f 114/114/114 116/116/116 113/113/113
f 117/117/117 116/116/116 114/114/114
f 118/118/118 117/117/117 114/114/114
f 119/119/119 118/118/118 114/114/114
f 120/120/120 117/117/117 118/118/118
f 121/121/121 116/116/116 117/117/117
f 122/122/122 121/121/121 117/117/117
f 123/123/123 116/116/116 121/121/121
f 113/113/113 116/116/116 124/124/124
f 127/127/127 126/126/126 125/125/125
f 126/126/126 128/128/128 125/125/125
f 129/129/129 128/128/128 126/126/126
f 130/130/130 129/129/129 126/126/126
f 131/131/131 130/130/130 126/126/126
f 132/132/132 129/129/129 130/130/130
f 133/133/133 128/128/128 129/129/129
f 134/134/134 133/133/133 129/129/129
f 135/135/135 128/128/128 133/133/133
f 125/125/125 128/128/128 136/136/136
f 139/139/139 138/138/138 137/137/137
f 138/138/138 140/140/140 137/137/137
f 141/141/141 140/140/140 138/138/138
f 142/142/142 141/141/141 138/138/138
f 143/143/143 142/142/142 138/138/138
f 144/144/144 141/141/141 142/142/142
f 145/145/145 140/140/140 141/141/141
f 146/146/146 145/145/145 141/141/141
f 147/147/147 140/140/140 145/145/145
f 137/137/137 140/140/140 148/148/148
