g Car_07_lunzi_FR
v 0.07909839 -0.2147577 0.3719677
v 0.07909964 -0.3719628 0.2147556
v -0.07909839 -0.3719709 0.2147556
v -0.07909973 -0.2147577 0.3719677
v 0.07909964 -0.3719628 0.2147556
v 0.07909964 -0.4295154 8.661841E-07
v -0.07909839 -0.4295154 8.661841E-07
v -0.07909839 -0.3719709 0.2147556
v 0.07909964 -0.4295154 8.661841E-07
v 0.07909964 -0.3719626 -0.2147546
v -0.07909839 -0.3719707 -0.2147546
v -0.07909839 -0.4295154 8.661841E-07
v 0.07909964 -0.3719626 -0.2147546
v 0.07909839 -0.2147577 -0.3719665
v -0.07909973 -0.2147577 -0.3719665
v -0.07909839 -0.3719707 -0.2147546
v 0.07909839 -0.2147577 -0.3719665
v 0.07909964 9.624258E-08 -0.4295101
v -0.07909839 9.624258E-08 -0.4295101
v -0.07909973 -0.2147577 -0.3719665
v 0.07909964 9.624258E-08 -0.4295101
v 0.07909964 0.2147578 -0.3719664
v -0.07909839 0.2147578 -0.3719664
v -0.07909839 9.624258E-08 -0.4295101
v 0.07909964 0.2147578 -0.3719664
v 0.07909964 0.3719735 -0.2147545
v -0.07909973 0.3719708 -0.2147545
v -0.07909839 0.2147578 -0.3719664
v 0.07909964 0.3719735 -0.2147545
v 0.07909964 0.4295154 1.010548E-06
v -0.07909839 0.4295127 1.010548E-06
v -0.07909973 0.3719708 -0.2147545
v 0.07909964 0.4295154 1.010548E-06
v 0.07909964 0.3719734 0.2147557
v -0.07909973 0.3719707 0.2147557
v -0.07909839 0.4295127 1.010548E-06
v 0.07909964 0.3719734 0.2147557
v 0.07909964 0.2147577 0.3719678
v -0.07909839 0.2147577 0.3719678
v -0.07909973 0.3719707 0.2147557
v 0.07909964 0.2147577 0.3719678
v 0.07909964 0 0.4295101
v -0.07909839 0 0.4295101
v -0.07909839 0.2147577 0.3719678
v 0.07909964 0 0.4295101
v 0.07909839 -0.2147577 0.3719677
v -0.07909973 -0.2147577 0.3719677
v -0.07909839 0 0.4295101
v -0.07909973 -0.2147577 0.3719677
v -0.07909839 -0.3719709 0.2147556
v -0.07909839 0 9.624267E-07
v -0.07909839 -0.3719709 0.2147556
v -0.07909839 -0.4295154 8.661841E-07
v -0.07909839 0 9.624267E-07
v -0.07909839 -0.4295154 8.661841E-07
v -0.07909839 -0.3719707 -0.2147546
v -0.07909839 0 9.624267E-07
v -0.07909839 -0.3719707 -0.2147546
v -0.07909973 -0.2147577 -0.3719665
v -0.07909839 0 9.624267E-07
v -0.07909973 -0.2147577 -0.3719665
v -0.07909839 9.624258E-08 -0.4295101
v -0.07909839 0 9.624267E-07
v -0.07909839 9.624258E-08 -0.4295101
v -0.07909839 0.2147578 -0.3719664
v -0.07909839 0 9.624267E-07
v -0.07909839 0.2147578 -0.3719664
v -0.07909973 0.3719708 -0.2147545
v -0.07909839 0 9.624267E-07
v -0.07909973 0.3719708 -0.2147545
v -0.07909839 0.4295127 1.010548E-06
v -0.07909839 0 9.624267E-07
v -0.07909839 0.4295127 1.010548E-06
v -0.07909973 0.3719707 0.2147557
v -0.07909839 0 9.624267E-07
v -0.07909973 0.3719707 0.2147557
v -0.07909839 0.2147577 0.3719678
v -0.07909839 0 9.624267E-07
v -0.07909839 0.2147577 0.3719678
v -0.07909839 0 0.4295101
v -0.07909839 0 9.624267E-07
v -0.07909839 0 0.4295101
v -0.07909973 -0.2147577 0.3719677
v -0.07909839 0 9.624267E-07
v 0.07909964 -0.3719628 0.2147556
v 0.07909839 -0.2147577 0.3719677
v 0.07909964 -0.4295154 8.661841E-07
v 0.07909964 -0.3719626 -0.2147546
v 0.07909839 -0.2147577 -0.3719665
v 0.07909964 9.624258E-08 -0.4295101
v 0.07909964 0.2147578 -0.3719664
v 0.07909964 0.3719735 -0.2147545
v 0.07909964 0.4295154 1.010548E-06
v 0.07909964 0.3719734 0.2147557
v 0.07909964 0.2147577 0.3719678
v 0.07909964 0 0.4295101
vt 0.002907449 0.9824368
vt 0.002907449 0.982437
vt 0.002907449 0.982437
vt 0.002907449 0.9824368
vt 0.002907449 0.982437
vt 0.002907449 0.9824369
vt 0.002907449 0.9824369
vt 0.002907449 0.982437
vt 0.002907449 0.9824369
vt 0.002907449 0.9824369
vt 0.002907449 0.9824369
vt 0.002907449 0.9824369
vt 0.002907449 0.9824369
vt 0.002907449 0.982437
vt 0.002907449 0.982437
vt 0.002907449 0.9824369
vt 0.002907449 0.982437
vt 0.002907449 0.982437
vt 0.002907449 0.982437
vt 0.002907449 0.982437
vt 0.002907449 0.982437
vt 0.002907449 0.982437
vt 0.002907449 0.982437
vt 0.002907449 0.982437
vt 0.002907449 0.982437
vt 0.002907449 0.9824369
vt 0.002907449 0.9824369
vt 0.002907449 0.982437
vt 0.002907449 0.9824369
vt 0.002907449 0.9824369
vt 0.002907449 0.9824369
vt 0.002907449 0.9824369
vt 0.002907449 0.9824369
vt 0.002907449 0.982437
vt 0.002907449 0.982437
vt 0.002907449 0.9824369
vt 0.002907449 0.982437
vt 0.002907449 0.9824368
vt 0.002907449 0.9824368
vt 0.002907449 0.982437
vt 0.002907449 0.9824368
vt 0.002907449 0.9824369
vt 0.002907449 0.9824369
vt 0.002907449 0.9824368
vt 0.002907449 0.9824369
vt 0.002907449 0.9824368
vt 0.002907449 0.9824368
vt 0.002907449 0.9824369
vt 0.003037774 0.930941
vt 0.003329774 0.930941
vt 0.003329774 0.871669
vt 0.003037774 0.930941
vt 0.003329774 0.930941
vt 0.003329774 0.871669
vt 0.003037774 0.930941
vt 0.003329774 0.930941
vt 0.003329774 0.871669
vt 0.003037774 0.930941
vt 0.003329774 0.930941
vt 0.003329774 0.871669
vt 0.003037774 0.930941
vt 0.003329774 0.930941
vt 0.003329774 0.871669
vt 0.003037774 0.930941
vt 0.003329774 0.930941
vt 0.003329774 0.871669
vt 0.003037774 0.930941
vt 0.003329774 0.930941
vt 0.003329774 0.871669
vt 0.003037774 0.930941
vt 0.003329774 0.930941
vt 0.003329774 0.871669
vt 0.003037774 0.930941
vt 0.003329774 0.930941
vt 0.003329774 0.871669
vt 0.003037774 0.930941
vt 0.003329774 0.930941
vt 0.003329774 0.871669
vt 0.003037774 0.930941
vt 0.003329774 0.930941
vt 0.003329774 0.871669
vt 0.003037774 0.930941
vt 0.003329774 0.930941
vt 0.003329774 0.871669
vt 0.002587599 0.9718405
vt 0.002587599 0.9718406
vt 0.002587599 0.9718406
vt 0.002587599 0.9718406
vt 0.002587599 0.9718406
vt 0.002587599 0.9718406
vt 0.002587599 0.9718406
vt 0.002587599 0.9718406
vt 0.002587599 0.9718406
vt 0.002587599 0.9718405
vt 0.002587599 0.9718406
vt 0.002587599 0.9718406
vn 1.798235E-05 -0.7071136 0.7070999
vn 1.798235E-05 -0.7071136 0.7070999
vn 1.798235E-05 -0.7071136 0.7070999
vn 1.798235E-05 -0.7071136 0.7071
vn 2.457364E-05 -0.96592 0.2588407
vn 2.457364E-05 -0.96592 0.2588407
vn 2.457364E-05 -0.96592 0.2588407
vn 2.457364E-05 -0.96592 0.2588407
vn 2.468743E-05 -0.96592 -0.2588407
vn 2.468743E-05 -0.96592 -0.2588407
vn 2.468743E-05 -0.96592 -0.2588407
vn 2.468743E-05 -0.96592 -0.2588407
vn 1.806914E-05 -0.7071131 -0.7071003
vn 1.806914E-05 -0.7071131 -0.7071003
vn 1.806914E-05 -0.7071131 -0.7071003
vn 1.806914E-05 -0.7071131 -0.7071003
vn 0 -0.2588168 -0.9659264
vn 0 -0.2588168 -0.9659264
vn 0 -0.2588168 -0.9659264
vn 0 -0.2588168 -0.9659264
vn 0 0.258817 -0.9659264
vn 0 0.258817 -0.9659264
vn 0 0.258817 -0.9659264
vn 0 0.258817 -0.9659264
vn -5.965077E-06 0.7071014 -0.7071121
vn -5.965077E-06 0.7071014 -0.7071121
vn -5.965077E-06 0.7071014 -0.7071121
vn -5.965076E-06 0.7071013 -0.7071122
vn -1.618449E-05 0.9659277 -0.2588121
vn -1.618449E-05 0.9659277 -0.2588121
vn -1.618449E-05 0.9659277 -0.2588121
vn -1.618449E-05 0.9659277 -0.2588121
vn -1.630114E-05 0.9659273 0.2588134
vn -1.630114E-05 0.9659273 0.2588134
vn -1.630114E-05 0.9659273 0.2588134
vn -1.630114E-05 0.9659273 0.2588134
vn -6.051838E-06 0.7071016 0.7071119
vn -6.051839E-06 0.7071016 0.707112
vn -6.051838E-06 0.7071016 0.7071119
vn -6.051838E-06 0.7071016 0.7071119
vn 0 0.2588116 0.9659278
vn 0 0.2588116 0.9659278
vn 0 0.2588116 0.9659278
vn 0 0.2588116 0.9659278
vn 0 -0.2588117 0.9659278
vn 0 -0.2588117 0.9659278
vn 0 -0.2588117 0.9659278
vn 0 -0.2588117 0.9659278
vn -1 -3.130687E-06 -5.422581E-06
vn -1 -3.130687E-06 -5.422582E-06
vn -1 -3.130686E-06 -5.422581E-06
vn -1 0 0
vn -1 0 0
vn -1 0 0
vn -1 0 0
vn -1 0 0
vn -1 0 0
vn -1 -3.130701E-06 5.422579E-06
vn -1 -3.130701E-06 5.422579E-06
vn -1 -3.130701E-06 5.422579E-06
vn -1 6.261385E-06 0
vn -1 6.261385E-06 0
vn -1 6.261385E-06 0
vn -1 0 0
vn -1 0 0
vn -1 0 0
vn -1 -5.42253E-06 -3.130733E-06
vn -1 -5.42253E-06 -3.130733E-06
vn -1 -5.42253E-06 -3.130733E-06
vn -1 0 6.26145E-06
vn -1 0 6.26145E-06
vn -1 0 6.26145E-06
vn -1 0 -6.261473E-06
vn -1 0 -6.261473E-06
vn -1 0 -6.261473E-06
vn -1 -5.422527E-06 3.130735E-06
vn -1 -5.422527E-06 3.130735E-06
vn -1 -5.422527E-06 3.130735E-06
vn -1 0 0
vn -1 0 0
vn -1 0 0
vn -1 6.261385E-06 0
vn -1 6.261385E-06 0
vn -1 6.261385E-06 0
vn 1 1.085665E-05 -2.909496E-06
vn 1 1.085665E-05 -2.909496E-06
vn 1 1.085665E-05 -2.909496E-06
vn 1 3.973115E-06 1.064763E-06
vn 1 7.947036E-06 0
vn 1 -5.817315E-06 0
vn 1 -3.896872E-07 1.454345E-06
vn 1 -1.064634E-06 1.064659E-06
vn 1 -1.679324E-06 4.499603E-07
vn 1 -2.293971E-06 -6.146527E-07
vn 1 -2.908657E-06 -2.908724E-06
vn 1 -2.908657E-06 -1.085559E-05
g Car_07_lunzi_FR_0
f 3/3/3 2/2/2 1/1/1
f 4/4/4 3/3/3 1/1/1
f 7/7/7 6/6/6 5/5/5
f 8/8/8 7/7/7 5/5/5
f 11/11/11 10/10/10 9/9/9
f 12/12/12 11/11/11 9/9/9
f 15/15/15 14/14/14 13/13/13
f 16/16/16 15/15/15 13/13/13
f 19/19/19 18/18/18 17/17/17
f 20/20/20 19/19/19 17/17/17
f 23/23/23 22/22/22 21/21/21
f 24/24/24 23/23/23 21/21/21
f 27/27/27 26/26/26 25/25/25
f 28/28/28 27/27/27 25/25/25
f 31/31/31 30/30/30 29/29/29
f 32/32/32 31/31/31 29/29/29
f 35/35/35 34/34/34 33/33/33
f 36/36/36 35/35/35 33/33/33
f 39/39/39 38/38/38 37/37/37
f 40/40/40 39/39/39 37/37/37
f 43/43/43 42/42/42 41/41/41
f 44/44/44 43/43/43 41/41/41
f 47/47/47 46/46/46 45/45/45
f 48/48/48 47/47/47 45/45/45
f 51/51/51 50/50/50 49/49/49
f 54/54/54 53/53/53 52/52/52
f 57/57/57 56/56/56 55/55/55
f 60/60/60 59/59/59 58/58/58
f 63/63/63 62/62/62 61/61/61
f 66/66/66 65/65/65 64/64/64
f 69/69/69 68/68/68 67/67/67
f 72/72/72 71/71/71 70/70/70
f 75/75/75 74/74/74 73/73/73
f 78/78/78 77/77/77 76/76/76
f 81/81/81 80/80/80 79/79/79
f 84/84/84 83/83/83 82/82/82
f 87/87/87 86/86/86 85/85/85
f 88/88/88 86/86/86 87/87/87
f 89/89/89 86/86/86 88/88/88
f 90/90/90 86/86/86 89/89/89
f 91/91/91 86/86/86 90/90/90
f 92/92/92 86/86/86 91/91/91
f 93/93/93 86/86/86 92/92/92
f 94/94/94 86/86/86 93/93/93
f 95/95/95 86/86/86 94/94/94
f 96/96/96 86/86/86 95/95/95
