g lu007_r
v 0.02771658 1.608016 -5.454547
v 0.02771534 2.014832 -6.545456
v 0.0277148 0.5149736 -6.545456
v 0.02771481 0.108158 -5.454546
v 0.02771721 1.221305 -4.363637
v 0.02771727 -0.2785532 -4.363636
v 0.02771479 0.7687115 -3.272729
v 0.02771546 -0.7311465 -3.272728
v 0.0277148 0.3810672 -2.181819
v 0.02771487 -1.11879 -2.181819
v 0.02771481 0.1054942 -1.090909
v 0.02771427 -1.394364 -1.09091
v 0.02771482 -2.670288E-07 -1.220703E-06
v 0.02771488 -1.499858 -1.831055E-06
v 0.02771356 0.8979027 -7.636364
v 0.02771349 2.397762 -7.636365
v 0.02771476 1.238641 -8.727273
v 0.02771226 2.738501 -8.727274
v 0.0277178 1.573303 -9.818183
v 0.02771713 3.073159 -9.818183
v 0.02771474 1.793207 -10.90909
v 0.02771712 3.293065 -10.90909
v 0.02771413 1.895335 -12
v 0.02771528 3.395192 -12
v -11.97229 0.1081575 -5.454546
v -11.97229 0.514973 -6.545456
v -11.97229 2.014832 -6.545457
v -11.97229 1.608015 -5.454547
v -11.97229 -0.2785537 -4.363637
v -11.97229 1.221304 -4.363637
v -11.97229 -0.7311471 -3.27273
v -11.97229 0.7687109 -3.272729
v -11.97229 -1.118791 -2.181821
v -11.97229 0.3810665 -2.181821
v -11.97229 -1.394365 -1.09091
v -11.97229 0.1054936 -1.090911
v -11.97229 -1.499859 1.136868E-15
v -11.97229 -7.915655E-07 -1.220703E-06
v -11.97229 2.397761 -7.636364
v -11.97229 0.8979028 -7.636364
v -11.97229 2.738499 -8.727277
v -11.97229 1.238642 -8.727277
v -11.97229 3.073158 -9.818187
v -11.97229 1.573302 -9.818187
v -11.97229 3.293064 -10.9091
v -11.97229 1.793207 -10.90909
v -11.97229 3.395191 -12
v -11.97229 1.895334 -12
v 0.02771488 -1.499858 -1.831055E-06
v -11.97229 -1.499859 1.136868E-15
v -11.97229 -7.915655E-07 -1.220703E-06
v 0.02771482 -2.670288E-07 -1.220703E-06
v 0.02771534 2.014832 -6.545456
v 0.02771658 1.608016 -5.454547
v -11.97229 1.608015 -5.454547
v -11.97229 2.014832 -6.545457
v 0.02771349 2.397762 -7.636365
v -11.97229 2.397761 -7.636364
v 0.02771226 2.738501 -8.727274
v -11.97229 2.738499 -8.727277
v 0.02771713 3.073159 -9.818183
v -11.97229 3.073158 -9.818187
v 0.02771712 3.293065 -10.90909
v -11.97229 3.293064 -10.9091
v 0.02771528 3.395192 -12
v -11.97229 3.395191 -12
v -11.97229 1.221304 -4.363637
v 0.02771721 1.221305 -4.363637
v -11.97229 0.7687109 -3.272729
v 0.02771479 0.7687115 -3.272729
v -11.97229 0.3810665 -2.181821
v 0.0277148 0.3810672 -2.181819
v -11.97229 0.1054936 -1.090911
v 0.02771481 0.1054942 -1.090909
v -11.97229 -7.915655E-07 -1.220703E-06
v 0.02771482 -2.670288E-07 -1.220703E-06
v 0.02771528 3.395192 -12
v -11.97229 3.395191 -12
v -11.97229 1.895334 -12
v 0.02771413 1.895335 -12
vt 0.01552168 0.9905851
vt 0.01552168 0.9905851
vt 0.01552168 0.9905851
vt 0.01552168 0.9905851
vt 0.01552168 0.9905851
vt 0.01552168 0.9905851
vt 0.01552168 0.9905851
vt 0.01552168 0.9905851
vt 0.01552168 0.9905851
vt 0.01552168 0.9905851
vt 0.01552168 0.9905851
vt 0.01552168 0.9905851
vt 0.01552168 0.9905851
vt 0.01552168 0.9905851
vt 0.01552168 0.9905851
vt 0.01552168 0.9905851
vt 0.01552168 0.9905851
vt 0.01552168 0.9905851
vt 0.01552168 0.9905851
vt 0.01552168 0.9905851
vt 0.01552168 0.9905851
vt 0.01552168 0.9905851
vt 0.01552168 0.9905851
vt 0.01552168 0.9905851
vt 0.01552168 0.9905851
vt 0.01552168 0.9905851
vt 0.01552168 0.9905851
vt 0.01552168 0.9905851
vt 0.01552168 0.9905851
vt 0.01552168 0.9905851
vt 0.01552168 0.9905851
vt 0.01552168 0.9905851
vt 0.01552168 0.9905851
vt 0.01552168 0.9905851
vt 0.01552168 0.9905851
vt 0.01552168 0.9905851
vt 0.01552168 0.9905851
vt 0.01552168 0.9905851
vt 0.01552168 0.9905851
vt 0.01552168 0.9905851
vt 0.01552168 0.9905851
vt 0.01552168 0.9905851
vt 0.01552168 0.9905851
vt 0.01552168 0.9905851
vt 0.01552168 0.9905851
vt 0.01552168 0.9905851
vt 0.01552168 0.9905851
vt 0.01552168 0.9905851
vt 0.01552168 0.9905851
vt 0.01552168 0.9905851
vt 0.01552168 0.9905851
vt 0.01552168 0.9905851
vt 3.576207E-08 0.4545454
vt 3.973583E-08 0.5454544
vt 1 0.5454545
vt 1 0.4545454
vt 3.178831E-08 0.3636363
vt 1 0.3636363
vt 2.781454E-08 0.2727272
vt 1 0.2727272
vt 2.384078E-08 0.1818181
vt 1 0.1818181
vt 1.986702E-08 0.090909
vt 1 0.09090894
vt 1.589326E-08 -5.960464E-08
vt 1 -5.960464E-08
vt 1 0.6363636
vt 4.370959E-08 0.6363636
vt 1 0.7272726
vt 4.768335E-08 0.7272726
vt 1 0.8181818
vt 5.165712E-08 0.8181818
vt 1 0.9090908
vt 5.563088E-08 0.9090909
vt 1 0.9999999
vt 5.960464E-08 0.9999999
vt 0.01552168 0.9905851
vt 0.01552168 0.9905851
vt 0.01552168 0.9905851
vt 0.01552168 0.9905851
vn 1 -1.25649E-07 -1.13496E-06
vn 1 -2.337213E-07 -1.498468E-06
vn 1 -2.337213E-07 -1.499811E-06
vn 1 0 -9.256247E-07
vn 1 1.494696E-07 4.44141E-07
vn 1 2.143012E-07 1.059382E-06
vn 1 3.211447E-07 1.420797E-06
vn 1 3.211444E-07 1.024301E-06
vn 1 2.076732E-07 2.235904E-07
vn 1 1.55625E-07 1.526136E-07
vn 1 0 0
vn 1 0 0
vn 1 0 0
vn 1 0 0
vn 1 3.200433E-07 -7.604788E-07
vn 1 6.028119E-07 -3.848453E-07
vn 1 1.26569E-06 1.84994E-06
vn 1 1.318712E-06 2.560045E-06
vn 1 8.435829E-07 2.105498E-06
vn 1 6.241056E-07 1.374251E-06
vn 1 -3.34983E-07 -1.231357E-06
vn 1 -4.124994E-07 -1.368885E-06
vn 1 -7.885882E-07 -2.036133E-06
vn 1 -7.885883E-07 -2.036133E-06
vn -1 0 0
vn -1 0 0
vn -1 0 0
vn -1 0 0
vn -1 0 0
vn -1 0 0
vn -1 0 0
vn -1 0 0
vn -1 0 0
vn -1 0 0
vn -1 0 0
vn -1 0 0
vn -1 0 0
vn -1 0 0
vn -1 0 0
vn -1 0 0
vn -1 0 0
vn -1 0 0
vn -1 0 0
vn -1 0 0
vn -1 0 0
vn -1 0 0
vn -1 0 0
vn -1 0 0
vn 0 0 1
vn 0 0 1
vn 0 0 1
vn 0 0 1
vn 0 0.9403081 0.3403243
vn 0 0.9397824 0.3417732
vn 0 0.9397824 0.3417732
vn 0 0.9403081 0.3403243
vn 0 0.9491844 0.3147205
vn 0 0.9491844 0.3147205
vn -1.418765E-07 0.9552775 0.2957106
vn -1.418765E-07 0.9552775 0.2957106
vn -1.435264E-07 0.9693353 0.2457421
vn -1.435265E-07 0.9693353 0.2457422
vn -1.078304E-07 0.989342 0.1456102
vn -1.078304E-07 0.989342 0.1456102
vn 0 0.9956464 0.09321003
vn 0 0.9956464 0.09321003
vn 0 0.9334205 0.3587843
vn 0 0.9334205 0.3587844
vn 0 0.933284 0.3591389
vn 0 0.933284 0.3591389
vn 0 0.9569682 0.2901929
vn 0 0.9569682 0.2901929
vn 0 0.9852585 0.1710722
vn 0 0.9852585 0.1710722
vn 0 0.9953567 0.09625421
vn 0 0.9953567 0.09625421
vn 0 0 -1
vn 0 0 -1
vn 0 0 -1
vn 0 0 -1
g lu007_r_0
f 3/3/3 2/2/2 1/1/1
f 4/4/4 3/3/3 1/1/1
f 4/4/4 1/1/1 5/5/5
f 6/6/6 4/4/4 5/5/5
f 6/6/6 5/5/5 7/7/7
f 8/8/8 6/6/6 7/7/7
f 8/8/8 7/7/7 9/9/9
f 10/10/10 8/8/8 9/9/9
f 10/10/10 9/9/9 11/11/11
f 12/12/12 10/10/10 11/11/11
f 12/12/12 11/11/11 13/13/13
f 14/14/14 12/12/12 13/13/13
f 2/2/2 3/3/3 15/15/15
f 16/16/16 2/2/2 15/15/15
f 16/16/16 15/15/15 17/17/17
f 18/18/18 16/16/16 17/17/17
f 18/18/18 17/17/17 19/19/19
f 20/20/20 18/18/18 19/19/19
f 20/20/20 19/19/19 21/21/21
f 22/22/22 20/20/20 21/21/21
f 22/22/22 21/21/21 23/23/23
f 24/24/24 22/22/22 23/23/23
f 27/27/27 26/26/26 25/25/25
f 28/28/28 27/27/27 25/25/25
f 28/28/28 25/25/25 29/29/29
f 30/30/30 28/28/28 29/29/29
f 30/30/30 29/29/29 31/31/31
f 32/32/32 30/30/30 31/31/31
f 32/32/32 31/31/31 33/33/33
f 34/34/34 32/32/32 33/33/33
f 34/34/34 33/33/33 35/35/35
f 36/36/36 34/34/34 35/35/35
f 36/36/36 35/35/35 37/37/37
f 38/38/38 36/36/36 37/37/37
f 26/26/26 27/27/27 39/39/39
f 40/40/40 26/26/26 39/39/39
f 40/40/40 39/39/39 41/41/41
f 42/42/42 40/40/40 41/41/41
f 42/42/42 41/41/41 43/43/43
f 44/44/44 42/42/42 43/43/43
f 44/44/44 43/43/43 45/45/45
f 46/46/46 44/44/44 45/45/45
f 46/46/46 45/45/45 47/47/47
f 48/48/48 46/46/46 47/47/47
f 51/51/51 50/50/50 49/49/49
f 52/52/52 51/51/51 49/49/49
f 55/55/55 54/54/54 53/53/53
f 56/56/56 55/55/55 53/53/53
f 56/56/56 53/53/53 57/57/57
f 58/58/58 56/56/56 57/57/57
f 58/58/58 57/57/57 59/59/59
f 60/60/60 58/58/58 59/59/59
f 60/60/60 59/59/59 61/61/61
f 62/62/62 60/60/60 61/61/61
f 62/62/62 61/61/61 63/63/63
f 64/64/64 62/62/62 63/63/63
f 64/64/64 63/63/63 65/65/65
f 66/66/66 64/64/64 65/65/65
f 54/54/54 55/55/55 67/67/67
f 68/68/68 54/54/54 67/67/67
f 68/68/68 67/67/67 69/69/69
f 70/70/70 68/68/68 69/69/69
f 70/70/70 69/69/69 71/71/71
f 72/72/72 70/70/70 71/71/71
f 72/72/72 71/71/71 73/73/73
f 74/74/74 72/72/72 73/73/73
f 74/74/74 73/73/73 75/75/75
f 76/76/76 74/74/74 75/75/75
f 79/79/79 78/78/78 77/77/77
f 80/80/80 79/79/79 77/77/77
