g lu003_r
v -4.308303E-07 -4.656966 -12
v 1.262256E-06 -1.500614 0
v -2.404127E-08 2.650728E-07 0
v -4.964243E-07 -3.156351 -12
v -12 -4.656967 -12
v -12 -3.156353 -12
v -12 -2.594639E-07 1.136868E-15
v -12 -1.500615 1.220703E-06
v 1.262256E-06 -1.500614 0
v -12 -1.500615 1.220703E-06
v -12 -2.594639E-07 1.136868E-15
v -2.404127E-08 2.650728E-07 0
v -2.404127E-08 2.650728E-07 0
v -12 -2.594639E-07 1.136868E-15
v -12 -3.156353 -12
v -4.964243E-07 -3.156351 -12
v -4.964243E-07 -3.156351 -12
v -12 -3.156353 -12
v -12 -4.656967 -12
v -4.308303E-07 -4.656966 -12
vt 0.009414762 0.01552162
vt 0.009414762 0.01552162
vt 0.009414762 0.01552162
vt 0.009414762 0.01552162
vt 0.009414762 0.01552162
vt 0.009414762 0.01552162
vt 0.009414762 0.01552162
vt 0.009414762 0.01552162
vt 0.009414762 0.01552162
vt 0.009414762 0.01552162
vt 0.009414762 0.01552162
vt 0.009414762 0.01552162
vt 1.192093E-07 1
vt 1 1
vt 0.9999999 5.699932E-15
vt -2.384186E-07 1.947072E-07
vt 0.009414762 0.01552162
vt 0.009414762 0.01552162
vt 0.009414762 0.01552162
vt 0.009414762 0.01552162
vn 1 0 0
vn 1 0 0
vn 1 0 0
vn 1 0 0
vn -1 0 0
vn -1 0 0
vn -1 0 0
vn -1 0 0
vn 0 0 1
vn 0 0 1
vn 0 0 1
vn 0 0 1
vn -1.052361E-07 0.9671052 -0.254377
vn -1.052361E-07 0.9671052 -0.2543771
vn -1.052361E-07 0.9671052 -0.2543771
vn -1.052361E-07 0.9671052 -0.254377
vn 0 2.774325E-07 -1
vn 0 2.774325E-07 -1
vn 0 2.774325E-07 -1
vn 0 2.774325E-07 -1
g lu003_r_0
f 3/3/3 2/2/2 1/1/1
f 4/4/4 3/3/3 1/1/1
f 7/7/7 6/6/6 5/5/5
f 8/8/8 7/7/7 5/5/5
f 11/11/11 10/10/10 9/9/9
f 12/12/12 11/11/11 9/9/9
f 15/15/15 14/14/14 13/13/13
f 16/16/16 15/15/15 13/13/13
f 19/19/19 18/18/18 17/17/17
f 20/20/20 19/19/19 17/17/17
