g lu03
v -12 -4.6568 -12
v 0 -1.500449 -12
v 0 -5.340576E-07 -12
v -12 -3.156352 -12
v -12 -4.656802 1.220703E-06
v -12 -3.156353 1.220703E-06
v 0 -5.340576E-07 1.220703E-06
v 0 -1.50045 1.220703E-06
v 0 -1.500449 -12
v 0 -1.50045 1.220703E-06
v 0 -5.340576E-07 1.220703E-06
v 0 -5.340576E-07 -12
v 0 -5.340576E-07 -12
v 0 -5.340576E-07 1.220703E-06
v -12 -3.156353 1.220703E-06
v -12 -3.156352 -12
v -12 -3.156352 -12
v -12 -3.156353 1.220703E-06
v -12 -4.656802 1.220703E-06
v -12 -4.6568 -12
vt 0.009414762 0.01552162
vt 0.009414762 0.01552162
vt 0.009414762 0.01552162
vt 0.009414762 0.01552162
vt 0.009414762 0.01552162
vt 0.009414762 0.01552162
vt 0.009414762 0.01552162
vt 0.009414762 0.01552162
vt 0.009414762 0.01552162
vt 0.009414762 0.01552162
vt 0.009414762 0.01552162
vt 0.009414762 0.01552162
vt 0 0
vt 0 1
vt 1 1
vt 1 0
vt 0.009414762 0.01552162
vt 0.009414762 0.01552162
vt 0.009414762 0.01552162
vt 0.009414762 0.01552162
vn 0 0 -1
vn 0 0 -1
vn 0 0 -1
vn 0 0 -1
vn 0 0 1
vn 0 0 1
vn 0 0 1
vn 0 0 1
vn 1 0 0
vn 1 0 0
vn 1 0 0
vn 1 0 0
vn -0.254377 0.9671052 0
vn -0.2543771 0.9671052 0
vn -0.2543771 0.9671052 0
vn -0.254377 0.9671052 0
vn -1 2.774325E-07 0
vn -1 2.774325E-07 0
vn -1 2.774325E-07 0
vn -1 2.774325E-07 0
g lu03_0
f 3/3/3 2/2/2 1/1/1
f 4/4/4 3/3/3 1/1/1
f 7/7/7 6/6/6 5/5/5
f 8/8/8 7/7/7 5/5/5
f 11/11/11 10/10/10 9/9/9
f 12/12/12 11/11/11 9/9/9
f 15/15/15 14/14/14 13/13/13
f 16/16/16 15/15/15 13/13/13
f 19/19/19 18/18/18 17/17/17
f 20/20/20 19/19/19 17/17/17
