g lu05
v -5.454547 -1.523104 -12
v -6.545457 -1.896026 -12
v -6.545459 -3.395892 -12
v -5.454549 -3.02297 -12
v -4.363635 -1.052566 -12
v -4.363635 -2.552432 -12
v -3.272726 -0.6291534 -12
v -3.272725 -2.12902 -12
v -2.181816 -0.1925638 -12
v -2.181817 -1.69243 -12
v -1.090906 0.003568115 -12
v -1.090911 -1.496298 -12
v 1.831055E-06 -1.121198E-22 -12
v -1.220703E-06 -1.499866 -12
v -7.636369 -3.705492 -12
v -7.636368 -2.205626 -12
v -8.72728 -3.970782 -12
v -8.727278 -2.470915 -12
v -9.818191 -4.029417 -12
v -9.818185 -2.529549 -12
v -10.90909 -4.019809 -12
v -10.90909 -2.519944 -12
v -12.00143 -3.94335 -12
v -12.00143 -2.443484 -12
v -13.09377 -3.79866 -12
v -13.09377 -2.298794 -12
v -14.18468 -3.50398 -12
v -14.18468 -2.004113 -12
v -15.27559 -3.195654 -12
v -15.27559 -1.695788 -12
v -16.3665 -2.770896 -12
v -16.3665 -1.271031 -12
v -17.45741 -2.426532 -12
v -17.45741 -0.9266655 -12
v -18.54832 -1.984028 -12
v -18.54832 -0.484162 -12
v -19.63923 -1.667204 -12
v -19.63923 -0.1673381 -12
v -20.73013 -1.501468 -12
v -20.73013 -0.001601906 -12
v -21.82104 -1.498303 -12
v -21.82104 0.00156395 -12
v -22.91195 -1.504683 -12
v -22.91195 -0.004816933 -12
v -24.00286 -1.499866 -12
v -24.00286 1.469751E-15 -12
v -5.454547 -3.022972 -1.831055E-06
v -6.545458 -3.395894 -3.051758E-06
v -6.545456 -1.896028 -1.831055E-06
v -5.454546 -1.523105 -6.103515E-07
v -4.363636 -2.552434 -2.671956E-16
v -4.363636 -1.052568 -2.671956E-16
v -3.27273 -2.129022 -2.003969E-16
v -3.272729 -0.629155 1.220703E-06
v -2.181821 -1.692433 -6.103515E-07
v -2.181819 -0.1925658 1.220703E-06
v -1.090909 -1.4963 -6.679894E-17
v -1.09091 0.00356617 1.220703E-06
v -9.184053E-17 -1.499868 1.220703E-06
v -1.938738E-22 -1.945496E-06 1.220703E-06
v -7.636364 -2.205628 6.103515E-07
v -7.636366 -3.705495 6.103515E-07
v -8.727275 -2.470916 -5.343914E-16
v -8.727278 -3.970784 -5.343916E-16
v -9.818184 -2.529551 -6.011904E-16
v -9.818188 -4.029419 -2.441406E-06
v -10.90909 -2.519946 -1.220703E-06
v -10.90909 -4.019811 -3.051758E-06
v -12.00143 -2.443486 -7.348757E-16
v -12.00143 -3.943352 -1.831055E-06
v -13.09377 -2.298796 1.220703E-06
v -13.09377 -3.798663 -8.017624E-16
v -14.18468 -2.004115 1.220703E-06
v -14.18468 -3.503982 1.220703E-06
v -15.27559 -1.695789 1.220703E-06
v -15.27559 -3.195657 -9.353603E-16
v -16.3665 -1.271032 -1.002159E-15
v -16.3665 -2.770898 -1.002159E-15
v -17.45741 -0.9266672 -1.068958E-15
v -17.45741 -2.426534 -1.068958E-15
v -18.54832 -0.4841638 -1.135757E-15
v -18.54832 -1.98403 -1.135757E-15
v -19.63923 -0.1673401 -1.202556E-15
v -19.63923 -1.667207 -1.202556E-15
v -20.73014 -0.001603737 -1.269355E-15
v -20.73014 -1.50147 -1.269355E-15
v -21.82105 0.001562119 -1.336154E-15
v -21.82105 -1.498305 -2.441406E-06
v -22.91196 -0.004818878 -1.220703E-06
v -22.91195 -1.504686 -3.051758E-06
v -24.00286 -1.945496E-06 -1.220703E-06
v -24.00286 -1.499868 -2.441406E-06
v -1.220703E-06 -1.499866 -12
v -9.184053E-17 -1.499868 1.220703E-06
v -1.938738E-22 -1.945496E-06 1.220703E-06
v 1.831055E-06 -1.121198E-22 -12
v -6.545457 -1.896026 -12
v -5.454547 -1.523104 -12
v -5.454546 -1.523105 -6.103515E-07
v -6.545456 -1.896028 -1.831055E-06
v -7.636368 -2.205626 -12
v -7.636364 -2.205628 6.103515E-07
v -8.727278 -2.470915 -12
v -8.727275 -2.470916 -5.343914E-16
v -9.818185 -2.529549 -12
v -9.818184 -2.529551 -6.011904E-16
v -10.90909 -2.519944 -12
v -10.90909 -2.519946 -1.220703E-06
v -12.00143 -2.443484 -12
v -12.00143 -2.443486 -7.348757E-16
v -4.363636 -1.052568 -2.671956E-16
v -4.363635 -1.052566 -12
v -3.272729 -0.629155 1.220703E-06
v -3.272726 -0.6291534 -12
v -2.181819 -0.1925658 1.220703E-06
v -2.181816 -0.1925638 -12
v -1.09091 0.00356617 1.220703E-06
v -1.090906 0.003568115 -12
v -1.938738E-22 -1.945496E-06 1.220703E-06
v 1.831055E-06 -1.121198E-22 -12
v -13.09377 -2.298794 -12
v -13.09377 -2.298796 1.220703E-06
v -14.18468 -2.004113 -12
v -14.18468 -2.004115 1.220703E-06
v -15.27559 -1.695788 -12
v -15.27559 -1.695789 1.220703E-06
v -16.3665 -1.271031 -12
v -16.3665 -1.271032 -1.002159E-15
v -17.45741 -0.9266655 -12
v -17.45741 -0.9266672 -1.068958E-15
v -18.54832 -0.484162 -12
v -18.54832 -0.4841638 -1.135757E-15
v -19.63923 -0.1673381 -12
v -19.63923 -0.1673401 -1.202556E-15
v -20.73013 -0.001601906 -12
v -20.73014 -0.001603737 -1.269355E-15
v -21.82104 0.00156395 -12
v -21.82105 0.001562119 -1.336154E-15
v -22.91195 -0.004816933 -12
v -22.91196 -0.004818878 -1.220703E-06
v -24.00286 1.469751E-15 -12
v -24.00286 -1.945496E-06 -1.220703E-06
v -24.00286 1.469751E-15 -12
v -24.00286 -1.945496E-06 -1.220703E-06
v -24.00286 -1.499868 -2.441406E-06
v -24.00286 -1.499866 -12
vt 0.009414762 0.01552162
vt 0.009414762 0.01552162
vt 0.009414762 0.01552162
vt 0.009414762 0.01552162
vt 0.009414762 0.01552162
vt 0.009414762 0.01552162
vt 0.009414762 0.01552162
vt 0.009414762 0.01552162
vt 0.009414762 0.01552162
vt 0.009414762 0.01552162
vt 0.009414762 0.01552162
vt 0.009414762 0.01552162
vt 0.009414762 0.01552162
vt 0.009414762 0.01552162
vt 0.009414762 0.01552162
vt 0.009414762 0.01552162
vt 0.009414762 0.01552162
vt 0.009414762 0.01552162
vt 0.009414762 0.01552162
vt 0.009414762 0.01552162
vt 0.009414762 0.01552162
vt 0.009414762 0.01552162
vt 0.009414762 0.01552162
vt 0.009414762 0.01552162
vt 0.009414762 0.01552162
vt 0.009414762 0.01552162
vt 0.009414762 0.01552162
vt 0.009414762 0.01552162
vt 0.009414762 0.01552162
vt 0.009414762 0.01552162
vt 0.009414762 0.01552162
vt 0.009414762 0.01552162
vt 0.009414762 0.01552162
vt 0.009414762 0.01552162
vt 0.009414762 0.01552162
vt 0.009414762 0.01552162
vt 0.009414762 0.01552162
vt 0.009414762 0.01552162
vt 0.009414762 0.01552162
vt 0.009414762 0.01552162
vt 0.009414762 0.01552162
vt 0.009414762 0.01552162
vt 0.009414762 0.01552162
vt 0.009414762 0.01552162
vt 0.009414762 0.01552162
vt 0.009414762 0.01552162
vt 0.009414762 0.01552162
vt 0.009414762 0.01552162
vt 0.009414762 0.01552162
vt 0.009414762 0.01552162
vt 0.009414762 0.01552162
vt 0.009414762 0.01552162
vt 0.009414762 0.01552162
vt 0.009414762 0.01552162
vt 0.009414762 0.01552162
vt 0.009414762 0.01552162
vt 0.009414762 0.01552162
vt 0.009414762 0.01552162
vt 0.009414762 0.01552162
vt 0.009414762 0.01552162
vt 0.009414762 0.01552162
vt 0.009414762 0.01552162
vt 0.009414762 0.01552162
vt 0.009414762 0.01552162
vt 0.009414762 0.01552162
vt 0.009414762 0.01552162
vt 0.009414762 0.01552162
vt 0.009414762 0.01552162
vt 0.009414762 0.01552162
vt 0.009414762 0.01552162
vt 0.009414762 0.01552162
vt 0.009414762 0.01552162
vt 0.009414762 0.01552162
vt 0.009414762 0.01552162
vt 0.009414762 0.01552162
vt 0.009414762 0.01552162
vt 0.009414762 0.01552162
vt 0.009414762 0.01552162
vt 0.009414762 0.01552162
vt 0.009414762 0.01552162
vt 0.009414762 0.01552162
vt 0.009414762 0.01552162
vt 0.009414762 0.01552162
vt 0.009414762 0.01552162
vt 0.009414762 0.01552162
vt 0.009414762 0.01552162
vt 0.009414762 0.01552162
vt 0.009414762 0.01552162
vt 0.009414762 0.01552162
vt 0.009414762 0.01552162
vt 0.009414762 0.01552162
vt 0.009414762 0.01552162
vt 0.009414762 0.01552162
vt 0.009414762 0.01552162
vt 0.009414762 0.01552162
vt 0.009414762 0.01552162
vt 0.5454546 0
vt 0.4545455 0
vt 0.4545454 1
vt 0.5454545 1
vt 0.6363636 0
vt 0.6363636 1
vt 0.7272727 0
vt 0.7272727 1
vt 0.8181819 0
vt 0.8181818 1
vt 0.9090909 0
vt 0.9090909 1
vt 1 0
vt 1 1
vt 0.3636363 1
vt 0.3636364 0
vt 0.2727273 1
vt 0.2727273 0
vt 0.1818182 1
vt 0.1818182 0
vt 0.09090906 1
vt 0.09090906 0
vt 0 1
vt 0 0
vt 1.090909 -2.8871E-08
vt 1.090909 1
vt 1.181818 -2.8871E-08
vt 1.181818 1
vt 1.272727 -2.8871E-08
vt 1.272727 1
vt 1.363636 -2.8871E-08
vt 1.363636 1
vt 1.454545 -2.8871E-08
vt 1.454545 1
vt 1.545455 -2.8871E-08
vt 1.545455 1
vt 1.636364 -2.8871E-08
vt 1.636364 1
vt 1.727273 -2.8871E-08
vt 1.727273 1
vt 1.818182 -2.8871E-08
vt 1.818182 1
vt 1.909091 -2.8871E-08
vt 1.909091 1
vt 2 -2.8871E-08
vt 2 1
vt 0.009414762 0.01552162
vt 0.009414762 0.01552162
vt 0.009414762 0.01552162
vt 0.009414762 0.01552162
vn 0 0 -1
vn 0 0 -1
vn 0 0 -1
vn 0 0 -1
vn 2.151531E-07 3.469065E-07 -1
vn 1.299799E-07 2.095757E-07 -1
vn 3.399807E-07 5.548652E-07 -1
vn 3.415827E-07 5.548652E-07 -1
vn 1.366468E-07 2.247014E-07 -1
vn 1.968921E-07 3.237687E-07 -1
vn 0 0 -1
vn 0 0 -1
vn 0 0 -1
vn 0 0 -1
vn 4.950155E-07 6.469512E-07 -1
vn 3.557792E-07 4.649789E-07 -1
vn 3.170504E-07 1.719438E-06 -1
vn 4.074494E-07 1.615847E-06 -1
vn 5.138305E-07 1.656504E-06 -1
vn 4.959879E-07 1.672369E-06 -1
vn -5.101719E-07 5.69038E-07 -1
vn -5.944568E-07 5.412319E-07 -1
vn -1.190654E-06 0 -1
vn -1.047192E-06 0 -1
vn -9.719161E-07 0 -1
vn -1.254166E-06 0 -1
vn -7.188739E-07 4.592662E-07 -1
vn 0 6.49761E-07 -1
vn 1.479268E-06 1.109731E-06 -1
vn 1.503674E-06 1.109732E-06 -1
vn 9.392583E-07 6.720066E-07 -1
vn 6.048296E-07 4.327345E-07 -1
vn 0 0 -1
vn 0 0 -1
vn 0 0 -1
vn 0 0 -1
vn -4.122745E-07 4.81399E-07 -1
vn -5.436221E-07 6.347693E-07 -1
vn 3.049371E-07 1.374202E-06 -1
vn 4.34052E-07 1.401404E-06 -1
vn 1.119242E-06 1.109211E-06 -1
vn 1.1203E-06 1.110252E-06 -1
vn 2.779947E-07 2.773055E-07 -1
vn 2.782485E-07 2.775587E-07 -1
vn 0 0 -1
vn 0 0 -1
vn -9.064904E-07 0 1
vn 8.887577E-07 0 1
vn 2.411201E-07 0 1
vn -7.752267E-07 0 1
vn -4.781469E-07 -2.095752E-07 1
vn -4.248451E-07 -3.469064E-07 1
vn -3.415832E-07 -5.548649E-07 1
vn -3.399811E-07 -5.548649E-07 1
vn -1.968922E-07 -3.237685E-07 1
vn -1.366468E-07 -2.247013E-07 1
vn 0 0 1
vn 0 0 1
vn 0 0 1
vn 0 0 1
vn 1.065823E-06 0 1
vn 6.070998E-07 0 1
vn -5.458869E-07 -2.530574E-07 1
vn -5.431029E-07 -3.048534E-07 1
vn -5.467776E-07 -5.548642E-07 1
vn -5.472738E-07 -5.548642E-07 1
vn 2.972302E-07 -2.706156E-07 1
vn 2.550865E-07 -2.845191E-07 1
vn 1.117512E-06 0 1
vn 1.117512E-06 0 1
vn 4.912488E-07 0 1
vn 6.3219E-07 0 1
vn -4.194082E-07 -3.248799E-07 1
vn -2.964474E-07 -2.296326E-07 1
vn -7.518378E-07 -5.548648E-07 1
vn -7.396343E-07 -5.548648E-07 1
vn -3.024158E-07 -2.163669E-07 1
vn -4.696304E-07 -3.360024E-07 1
vn 0 0 1
vn 0 0 1
vn 0 0 1
vn 0 0 1
vn 0 0 1
vn 0 0 1
vn -2.949502E-07 -2.916729E-07 1
vn -2.674435E-07 -2.644718E-07 1
vn -5.586733E-07 -5.548649E-07 1
vn -5.586688E-07 -5.548649E-07 1
vn -2.782478E-07 -2.775586E-07 1
vn -2.779948E-07 -2.773062E-07 1
vn 0 0 1
vn 0 0 1
vn 1 0 1.525879E-07
vn 1 0 1.525879E-07
vn 1 0 1.525879E-07
vn 1 0 1.525879E-07
vn -0.298347 0.9544575 1.837069E-07
vn -0.3600334 0.9329394 1.493986E-07
vn -0.3600334 0.9329394 1.493986E-07
vn -0.298347 0.9544575 1.837069E-07
vn -0.2547022 0.9670195 1.95863E-07
vn -0.2547022 0.9670195 1.95863E-07
vn -0.1456039 0.9893429 1.629752E-07
vn -0.145604 0.9893429 1.629752E-07
vn -0.02244419 0.9997481 1.508749E-07
vn -0.02244422 0.9997481 1.508748E-07
vn 0.03933342 0.9992262 1.746189E-07
vn 0.03933343 0.9992262 1.746189E-07
vn 0.1006168 0.9949253 1.836229E-07
vn 0.1006169 0.9949253 1.836229E-07
vn -0.3790074 0.9253936 1.05053E-07
vn -0.3790075 0.9253936 1.05053E-07
vn -0.3666984 0.9303399 0
vn -0.3666984 0.9303399 0
vn -0.2756693 0.9612526 0
vn -0.2756692 0.9612526 0
vn -0.08719734 0.996191 1.383118E-07
vn -0.08719731 0.996191 1.383118E-07
vn 0.003270755 0.9999946 1.628337E-07
vn 0.003270755 0.9999946 1.628337E-07
vn 0.196473 0.9805092 1.993146E-07
vn 0.1964731 0.9805092 1.993146E-07
vn 0.2663818 0.9638676 2.08526E-07
vn 0.2663817 0.9638676 2.08526E-07
vn 0.3177679 0.9481685 1.950474E-07
vn 0.3177679 0.9481686 1.950474E-07
vn 0.3321054 0.9432423 1.782158E-07
vn 0.3321055 0.9432423 1.782159E-07
vn 0.3387223 0.9408864 1.818509E-07
vn 0.3387223 0.9408864 1.818509E-07
vn 0.3278224 0.9447393 1.803045E-07
vn 0.3278224 0.9447393 1.803046E-07
vn 0.215017 0.9766103 1.700134E-07
vn 0.215017 0.9766103 1.700134E-07
vn 0.07676139 0.9970495 1.63173E-07
vn 0.07676137 0.9970495 1.63173E-07
vn -0.001473556 0.9999989 1.543691E-07
vn -0.001473551 0.9999989 1.543691E-07
vn -0.0007168119 0.9999998 1.595164E-07
vn -0.0007168129 0.9999998 1.595164E-07
vn 0.004415487 0.9999902 1.634671E-07
vn 0.004415487 0.9999902 1.634671E-07
vn -1 0 -2.034505E-07
vn -1 0 -2.034505E-07
vn -1 0 -2.034505E-07
vn -1 0 -2.034505E-07
g lu05_0
f 3/3/3 2/2/2 1/1/1
f 4/4/4 3/3/3 1/1/1
f 4/4/4 1/1/1 5/5/5
f 6/6/6 4/4/4 5/5/5
f 6/6/6 5/5/5 7/7/7
f 8/8/8 6/6/6 7/7/7
f 8/8/8 7/7/7 9/9/9
f 10/10/10 8/8/8 9/9/9
f 10/10/10 9/9/9 11/11/11
f 12/12/12 10/10/10 11/11/11
f 12/12/12 11/11/11 13/13/13
f 14/14/14 12/12/12 13/13/13
f 2/2/2 3/3/3 15/15/15
f 16/16/16 2/2/2 15/15/15
f 16/16/16 15/15/15 17/17/17
f 18/18/18 16/16/16 17/17/17
f 18/18/18 17/17/17 19/19/19
f 20/20/20 18/18/18 19/19/19
f 20/20/20 19/19/19 21/21/21
f 22/22/22 20/20/20 21/21/21
f 22/22/22 21/21/21 23/23/23
f 24/24/24 22/22/22 23/23/23
f 23/23/23 25/25/25 24/24/24
f 25/25/25 26/26/26 24/24/24
f 25/25/25 27/27/27 26/26/26
f 27/27/27 28/28/28 26/26/26
f 27/27/27 29/29/29 28/28/28
f 29/29/29 30/30/30 28/28/28
f 29/29/29 31/31/31 30/30/30
f 31/31/31 32/32/32 30/30/30
f 31/31/31 33/33/33 32/32/32
f 33/33/33 34/34/34 32/32/32
f 33/33/33 35/35/35 34/34/34
f 35/35/35 36/36/36 34/34/34
f 36/36/36 35/35/35 37/37/37
f 38/38/38 36/36/36 37/37/37
f 38/38/38 37/37/37 39/39/39
f 40/40/40 38/38/38 39/39/39
f 40/40/40 39/39/39 41/41/41
f 42/42/42 40/40/40 41/41/41
f 42/42/42 41/41/41 43/43/43
f 44/44/44 42/42/42 43/43/43
f 44/44/44 43/43/43 45/45/45
f 46/46/46 44/44/44 45/45/45
f 49/49/49 48/48/48 47/47/47
f 50/50/50 49/49/49 47/47/47
f 50/50/50 47/47/47 51/51/51
f 52/52/52 50/50/50 51/51/51
f 52/52/52 51/51/51 53/53/53
f 54/54/54 52/52/52 53/53/53
f 54/54/54 53/53/53 55/55/55
f 56/56/56 54/54/54 55/55/55
f 56/56/56 55/55/55 57/57/57
f 58/58/58 56/56/56 57/57/57
f 58/58/58 57/57/57 59/59/59
f 60/60/60 58/58/58 59/59/59
f 48/48/48 49/49/49 61/61/61
f 62/62/62 48/48/48 61/61/61
f 62/62/62 61/61/61 63/63/63
f 64/64/64 62/62/62 63/63/63
f 64/64/64 63/63/63 65/65/65
f 66/66/66 64/64/64 65/65/65
f 66/66/66 65/65/65 67/67/67
f 68/68/68 66/66/66 67/67/67
f 68/68/68 67/67/67 69/69/69
f 70/70/70 68/68/68 69/69/69
f 69/69/69 71/71/71 70/70/70
f 71/71/71 72/72/72 70/70/70
f 71/71/71 73/73/73 72/72/72
f 73/73/73 74/74/74 72/72/72
f 73/73/73 75/75/75 74/74/74
f 75/75/75 76/76/76 74/74/74
f 75/75/75 77/77/77 76/76/76
f 77/77/77 78/78/78 76/76/76
f 77/77/77 79/79/79 78/78/78
f 79/79/79 80/80/80 78/78/78
f 79/79/79 81/81/81 80/80/80
f 81/81/81 82/82/82 80/80/80
f 82/82/82 81/81/81 83/83/83
f 84/84/84 82/82/82 83/83/83
f 84/84/84 83/83/83 85/85/85
f 86/86/86 84/84/84 85/85/85
f 86/86/86 85/85/85 87/87/87
f 88/88/88 86/86/86 87/87/87
f 88/88/88 87/87/87 89/89/89
f 90/90/90 88/88/88 89/89/89
f 90/90/90 89/89/89 91/91/91
f 92/92/92 90/90/90 91/91/91
f 95/95/95 94/94/94 93/93/93
f 96/96/96 95/95/95 93/93/93
f 99/99/99 98/98/98 97/97/97
f 100/100/100 99/99/99 97/97/97
f 100/100/100 97/97/97 101/101/101
f 102/102/102 100/100/100 101/101/101
f 102/102/102 101/101/101 103/103/103
f 104/104/104 102/102/102 103/103/103
f 104/104/104 103/103/103 105/105/105
f 106/106/106 104/104/104 105/105/105
f 106/106/106 105/105/105 107/107/107
f 108/108/108 106/106/106 107/107/107
f 108/108/108 107/107/107 109/109/109
f 110/110/110 108/108/108 109/109/109
f 98/98/98 99/99/99 111/111/111
f 112/112/112 98/98/98 111/111/111
f 112/112/112 111/111/111 113/113/113
f 114/114/114 112/112/112 113/113/113
f 114/114/114 113/113/113 115/115/115
f 116/116/116 114/114/114 115/115/115
f 116/116/116 115/115/115 117/117/117
f 118/118/118 116/116/116 117/117/117
f 118/118/118 117/117/117 119/119/119
f 120/120/120 118/118/118 119/119/119
f 109/109/109 121/121/121 110/110/110
f 121/121/121 122/122/122 110/110/110
f 121/121/121 123/123/123 122/122/122
f 123/123/123 124/124/124 122/122/122
f 123/123/123 125/125/125 124/124/124
f 125/125/125 126/126/126 124/124/124
f 125/125/125 127/127/127 126/126/126
f 127/127/127 128/128/128 126/126/126
f 127/127/127 129/129/129 128/128/128
f 129/129/129 130/130/130 128/128/128
f 130/130/130 129/129/129 131/131/131
f 132/132/132 130/130/130 131/131/131
f 132/132/132 131/131/131 133/133/133
f 134/134/134 132/132/132 133/133/133
f 134/134/134 133/133/133 135/135/135
f 136/136/136 134/134/134 135/135/135
f 136/136/136 135/135/135 137/137/137
f 138/138/138 136/136/136 137/137/137
f 138/138/138 137/137/137 139/139/139
f 140/140/140 138/138/138 139/139/139
f 140/140/140 139/139/139 141/141/141
f 142/142/142 140/140/140 141/141/141
f 145/145/145 144/144/144 143/143/143
f 146/146/146 145/145/145 143/143/143
