g lu06
v -5.454545 2.465598 -12
v -6.545455 3.242227 -12
v -6.545455 1.742173 -12
v -5.454544 0.9655445 -12
v -4.363636 1.660856 -12
v -4.363634 0.1608046 -12
v -3.272726 1.024806 -12
v -3.272725 -0.4752466 -12
v -2.181817 0.4805265 -12
v -2.181817 -1.019526 -12
v -1.090908 0.154098 -12
v -1.090908 -1.345954 -12
v 0 -5.340576E-07 -12
v 0 -1.500052 -12
v -7.636364 2.437502 -12
v -7.636364 3.937556 -12
v -8.72727 2.992967 -12
v -8.727274 4.493021 -12
v -9.81818 3.399183 -12
v -9.818183 4.899236 -12
v -10.90909 3.619088 -12.00001
v -10.9091 5.119143 -12.00001
v -12 3.721218 -12
v -12 5.221272 -12
v -5.454545 0.9655454 1.220703E-06
v -6.545455 1.742174 1.220703E-06
v -6.545456 3.242225 1.220703E-06
v -5.454546 2.465596 1.220703E-06
v -4.363635 0.1608046 1.220703E-06
v -4.363636 1.660857 1.220703E-06
v -3.272729 -0.4752466 1.220703E-06
v -3.272728 1.024807 1.220703E-06
v -2.18182 -1.019526 1.220703E-06
v -2.18182 0.4805263 1.220703E-06
v -1.090909 -1.345955 1.220703E-06
v -1.09091 0.1540978 1.220703E-06
v 0 -1.500053 1.220703E-06
v 0 -5.340576E-07 1.220703E-06
v -7.636362 3.937555 1.220703E-06
v -7.636362 2.437503 1.220703E-06
v -8.72728 4.493019 1.220703E-06
v -8.727279 2.992967 1.220703E-06
v -9.818192 4.899234 1.220703E-06
v -9.818191 3.399182 1.220703E-06
v -10.9091 5.119142 1.220703E-06
v -10.9091 3.619087 1.220703E-06
v -11.99999 5.221271 1.220703E-06
v -11.99999 3.721215 1.220703E-06
v 0 -1.500052 -12
v 0 -1.500053 1.220703E-06
v 0 -5.340576E-07 1.220703E-06
v 0 -5.340576E-07 -12
v -6.545455 3.242227 -12
v -5.454545 2.465598 -12
v -5.454546 2.465596 1.220703E-06
v -6.545456 3.242225 1.220703E-06
v -7.636364 3.937556 -12
v -7.636362 3.937555 1.220703E-06
v -8.727274 4.493021 -12
v -8.72728 4.493019 1.220703E-06
v -9.818183 4.899236 -12
v -9.818192 4.899234 1.220703E-06
v -10.9091 5.119143 -12.00001
v -10.9091 5.119142 1.220703E-06
v -12 5.221272 -12
v -11.99999 5.221271 1.220703E-06
v -4.363636 1.660857 1.220703E-06
v -4.363636 1.660856 -12
v -3.272728 1.024807 1.220703E-06
v -3.272726 1.024806 -12
v -2.18182 0.4805263 1.220703E-06
v -2.181817 0.4805265 -12
v -1.09091 0.1540978 1.220703E-06
v -1.090908 0.154098 -12
v 0 -5.340576E-07 1.220703E-06
v 0 -5.340576E-07 -12
v -12 5.221272 -12
v -11.99999 5.221271 1.220703E-06
v -11.99999 3.721215 1.220703E-06
v -12 3.721218 -12
vt 0.009414762 0.01552162
vt 0.009414762 0.01552162
vt 0.009414762 0.01552162
vt 0.009414762 0.01552162
vt 0.009414762 0.01552162
vt 0.009414762 0.01552162
vt 0.009414762 0.01552162
vt 0.009414762 0.01552162
vt 0.009414762 0.01552162
vt 0.009414762 0.01552162
vt 0.009414762 0.01552162
vt 0.009414762 0.01552162
vt 0.009414762 0.01552162
vt 0.009414762 0.01552162
vt 0.009414762 0.01552162
vt 0.009414762 0.01552162
vt 0.009414762 0.01552162
vt 0.009414762 0.01552162
vt 0.009414762 0.01552162
vt 0.009414762 0.01552162
vt 0.009414762 0.01552162
vt 0.009414762 0.01552162
vt 0.009414762 0.01552162
vt 0.009414762 0.01552162
vt 0.009414762 0.01552162
vt 0.009414762 0.01552162
vt 0.009414762 0.01552162
vt 0.009414762 0.01552162
vt 0.009414762 0.01552162
vt 0.009414762 0.01552162
vt 0.009414762 0.01552162
vt 0.009414762 0.01552162
vt 0.009414762 0.01552162
vt 0.009414762 0.01552162
vt 0.009414762 0.01552162
vt 0.009414762 0.01552162
vt 0.009414762 0.01552162
vt 0.009414762 0.01552162
vt 0.009414762 0.01552162
vt 0.009414762 0.01552162
vt 0.009414762 0.01552162
vt 0.009414762 0.01552162
vt 0.009414762 0.01552162
vt 0.009414762 0.01552162
vt 0.009414762 0.01552162
vt 0.009414762 0.01552162
vt 0.009414762 0.01552162
vt 0.009414762 0.01552162
vt 0.009414762 0.01552162
vt 0.009414762 0.01552162
vt 0.009414762 0.01552162
vt 0.009414762 0.01552162
vt 0.5454546 0
vt 0.4545455 0
vt 0.4545454 1
vt 0.5454545 1
vt 0.6363636 0
vt 0.6363636 1
vt 0.7272727 0
vt 0.7272727 1
vt 0.8181819 0
vt 0.8181818 1
vt 0.9090909 0
vt 0.9090909 1
vt 1 0
vt 1 1
vt 0.3636363 1
vt 0.3636364 0
vt 0.2727273 1
vt 0.2727273 0
vt 0.1818182 1
vt 0.1818182 0
vt 0.09090906 1
vt 0.09090906 0
vt 0 1
vt 0 0
vt 0.009414762 0.01552162
vt 0.009414762 0.01552162
vt 0.009414762 0.01552162
vt 0.009414762 0.01552162
vn -3.203493E-06 -1.304128E-06 -1
vn -2.801888E-06 -1.003247E-06 -1
vn -3.185787E-06 -1.212796E-06 -1
vn -2.800994E-06 -1.193364E-06 -1
vn -2.210826E-07 -8.425861E-07 -1
vn 2.408032E-06 -5.339933E-07 -1
vn 3.151046E-06 0 -1
vn 1.833732E-06 0 -1
vn 2.566269E-07 1.702609E-07 -1
vn 1.560262E-07 1.035166E-07 -1
vn 0 0 -1
vn 0 0 -1
vn 0 0 -1
vn 0 0 -1
vn -1.831548E-06 -1.726774E-07 -1
vn -1.191427E-06 4.698426E-07 -1
vn 1.795487E-06 2.247861E-06 -1
vn 3.456895E-06 3.0527E-06 -1
vn 6.334366E-06 3.353952E-06 -1
vn 6.585232E-06 3.009772E-06 -1
vn 1.262711E-06 1.997773E-07 -1
vn 0 -2.136563E-07 -1
vn -5.802688E-06 -2.219468E-06 -1
vn -5.802688E-06 -2.219469E-06 -1
vn 0 0 1
vn 0 0 1
vn 0 0 1
vn 0 0 1
vn 0 0 1
vn 0 0 1
vn 0 0 1
vn 0 0 1
vn 0 0 1
vn 0 0 1
vn 0 0 1
vn 0 0 1
vn 0 0 1
vn 0 0 1
vn 0 0 1
vn 0 0 1
vn 0 0 1
vn 0 0 1
vn 0 0 1
vn 0 0 1
vn 0 0 1
vn 0 0 1
vn 0 0 1
vn 0 0 1
vn 1 0 0
vn 1 0 0
vn 1 0 0
vn 1 0 0
vn 0.5589055 0.8292313 1.015998E-07
vn 0.5868164 0.80972 1.256153E-07
vn 0.5868164 0.80972 1.256153E-07
vn 0.5589055 0.8292313 1.015997E-07
vn 0.4961928 0.8682123 0
vn 0.4961928 0.8682123 0
vn 0.4020077 0.9156362 2.339517E-07
vn 0.4020076 0.9156362 2.339518E-07
vn 0.2741311 0.9616924 2.739758E-07
vn 0.2741313 0.9616923 2.73976E-07
vn 0.1456119 0.9893417 1.690278E-07
vn 0.1456119 0.9893417 1.690278E-07
vn 0.09321216 0.9956463 1.072338E-07
vn 0.09321216 0.9956463 1.072338E-07
vn 0.5494571 0.8355219 0
vn 0.5494571 0.8355219 0
vn 0.4753158 0.8798152 0
vn 0.4753158 0.8798152 0
vn 0.3679155 0.9298592 0
vn 0.3679155 0.9298592 0
vn 0.2138726 0.9768615 0
vn 0.2138726 0.9768615 0
vn 0.1398683 0.9901701 0
vn 0.1398683 0.9901701 0
vn -1 0 5.086262E-07
vn -1 0 5.086262E-07
vn -1 0 5.086262E-07
vn -1 0 5.086262E-07
g lu06_0
f 3/3/3 2/2/2 1/1/1
f 4/4/4 3/3/3 1/1/1
f 4/4/4 1/1/1 5/5/5
f 6/6/6 4/4/4 5/5/5
f 6/6/6 5/5/5 7/7/7
f 8/8/8 6/6/6 7/7/7
f 8/8/8 7/7/7 9/9/9
f 10/10/10 8/8/8 9/9/9
f 10/10/10 9/9/9 11/11/11
f 12/12/12 10/10/10 11/11/11
f 12/12/12 11/11/11 13/13/13
f 14/14/14 12/12/12 13/13/13
f 2/2/2 3/3/3 15/15/15
f 16/16/16 2/2/2 15/15/15
f 16/16/16 15/15/15 17/17/17
f 18/18/18 16/16/16 17/17/17
f 18/18/18 17/17/17 19/19/19
f 20/20/20 18/18/18 19/19/19
f 20/20/20 19/19/19 21/21/21
f 22/22/22 20/20/20 21/21/21
f 22/22/22 21/21/21 23/23/23
f 24/24/24 22/22/22 23/23/23
f 27/27/27 26/26/26 25/25/25
f 28/28/28 27/27/27 25/25/25
f 28/28/28 25/25/25 29/29/29
f 30/30/30 28/28/28 29/29/29
f 30/30/30 29/29/29 31/31/31
f 32/32/32 30/30/30 31/31/31
f 32/32/32 31/31/31 33/33/33
f 34/34/34 32/32/32 33/33/33
f 34/34/34 33/33/33 35/35/35
f 36/36/36 34/34/34 35/35/35
f 36/36/36 35/35/35 37/37/37
f 38/38/38 36/36/36 37/37/37
f 26/26/26 27/27/27 39/39/39
f 40/40/40 26/26/26 39/39/39
f 40/40/40 39/39/39 41/41/41
f 42/42/42 40/40/40 41/41/41
f 42/42/42 41/41/41 43/43/43
f 44/44/44 42/42/42 43/43/43
f 44/44/44 43/43/43 45/45/45
f 46/46/46 44/44/44 45/45/45
f 46/46/46 45/45/45 47/47/47
f 48/48/48 46/46/46 47/47/47
f 51/51/51 50/50/50 49/49/49
f 52/52/52 51/51/51 49/49/49
f 55/55/55 54/54/54 53/53/53
f 56/56/56 55/55/55 53/53/53
f 56/56/56 53/53/53 57/57/57
f 58/58/58 56/56/56 57/57/57
f 58/58/58 57/57/57 59/59/59
f 60/60/60 58/58/58 59/59/59
f 60/60/60 59/59/59 61/61/61
f 62/62/62 60/60/60 61/61/61
f 62/62/62 61/61/61 63/63/63
f 64/64/64 62/62/62 63/63/63
f 64/64/64 63/63/63 65/65/65
f 66/66/66 64/64/64 65/65/65
f 54/54/54 55/55/55 67/67/67
f 68/68/68 54/54/54 67/67/67
f 68/68/68 67/67/67 69/69/69
f 70/70/70 68/68/68 69/69/69
f 70/70/70 69/69/69 71/71/71
f 72/72/72 70/70/70 71/71/71
f 72/72/72 71/71/71 73/73/73
f 74/74/74 72/72/72 73/73/73
f 74/74/74 73/73/73 75/75/75
f 76/76/76 74/74/74 75/75/75
f 79/79/79 78/78/78 77/77/77
f 80/80/80 79/79/79 77/77/77
