g lu07
v -5.454546 1.608016 -12
v -6.545455 2.014832 -12
v -6.545455 0.514872 -12
v -5.454545 0.1080563 -12
v -4.363636 1.221304 -12
v -4.363636 -0.2786548 -12
v -3.272727 0.7687113 -12
v -3.272727 -0.7312484 -12
v -2.181818 0.3810669 -12
v -2.181818 -1.118892 -12
v -1.090908 0.1054939 -12
v -1.090909 -1.394465 -12
v 0 -5.340576E-07 -12
v 0 -1.49996 -12
v -7.636364 0.8978016 -12
v -7.636364 2.397762 -12
v -8.727271 1.238539 -12
v -8.727273 2.7385 -12
v -9.818181 1.573201 -12
v -9.818182 3.073159 -12
v -10.90909 1.793105 -12
v -10.90909 3.293064 -12
v -12 1.895233 -12
v -12 3.395192 -12
v -5.454545 0.1080564 1.220703E-06
v -6.545455 0.514872 1.220703E-06
v -6.545456 2.014832 1.220703E-06
v -5.454546 1.608015 1.220703E-06
v -4.363636 -0.2786548 1.220703E-06
v -4.363636 1.221304 1.220703E-06
v -3.272729 -0.7312483 1.220703E-06
v -3.272728 0.7687111 1.220703E-06
v -2.18182 -1.118892 1.220703E-06
v -2.181819 0.3810667 1.220703E-06
v -1.090909 -1.394465 1.220703E-06
v -1.09091 0.1054939 1.220703E-06
v 0 -1.49996 1.220703E-06
v 0 -5.340576E-07 1.220703E-06
v -7.636364 2.397761 1.220703E-06
v -7.636363 0.8978019 1.220703E-06
v -8.727275 2.738499 1.220703E-06
v -8.727276 1.23854 1.220703E-06
v -9.818185 3.073159 1.220703E-06
v -9.818186 1.573201 1.220703E-06
v -10.9091 3.293064 1.220703E-06
v -10.90909 1.793106 1.220703E-06
v -12 3.395192 1.220703E-06
v -12 1.895233 1.220703E-06
v 0 -1.49996 -12
v 0 -1.49996 1.220703E-06
v 0 -5.340576E-07 1.220703E-06
v 0 -5.340576E-07 -12
v -6.545455 2.014832 -12
v -5.454546 1.608016 -12
v -5.454546 1.608015 1.220703E-06
v -6.545456 2.014832 1.220703E-06
v -7.636364 2.397762 -12
v -7.636364 2.397761 1.220703E-06
v -8.727273 2.7385 -12
v -8.727275 2.738499 1.220703E-06
v -9.818182 3.073159 -12
v -9.818185 3.073159 1.220703E-06
v -10.90909 3.293064 -12
v -10.9091 3.293064 1.220703E-06
v -12 3.395192 -12
v -12 3.395192 1.220703E-06
v -4.363636 1.221304 1.220703E-06
v -4.363636 1.221304 -12
v -3.272728 0.7687111 1.220703E-06
v -3.272727 0.7687113 -12
v -2.181819 0.3810667 1.220703E-06
v -2.181818 0.3810669 -12
v -1.09091 0.1054939 1.220703E-06
v -1.090908 0.1054939 -12
v 0 -5.340576E-07 1.220703E-06
v 0 -5.340576E-07 -12
v -12 3.395192 -12
v -12 3.395192 1.220703E-06
v -12 1.895233 1.220703E-06
v -12 1.895233 -12
vt 0.009414762 0.01552162
vt 0.009414762 0.01552162
vt 0.009414762 0.01552162
vt 0.009414762 0.01552162
vt 0.009414762 0.01552162
vt 0.009414762 0.01552162
vt 0.009414762 0.01552162
vt 0.009414762 0.01552162
vt 0.009414762 0.01552162
vt 0.009414762 0.01552162
vt 0.009414762 0.01552162
vt 0.009414762 0.01552162
vt 0.009414762 0.01552162
vt 0.009414762 0.01552162
vt 0.009414762 0.01552162
vt 0.009414762 0.01552162
vt 0.009414762 0.01552162
vt 0.009414762 0.01552162
vt 0.009414762 0.01552162
vt 0.009414762 0.01552162
vt 0.009414762 0.01552162
vt 0.009414762 0.01552162
vt 0.009414762 0.01552162
vt 0.009414762 0.01552162
vt 0.009414762 0.01552162
vt 0.009414762 0.01552162
vt 0.009414762 0.01552162
vt 0.009414762 0.01552162
vt 0.009414762 0.01552162
vt 0.009414762 0.01552162
vt 0.009414762 0.01552162
vt 0.009414762 0.01552162
vt 0.009414762 0.01552162
vt 0.009414762 0.01552162
vt 0.009414762 0.01552162
vt 0.009414762 0.01552162
vt 0.009414762 0.01552162
vt 0.009414762 0.01552162
vt 0.009414762 0.01552162
vt 0.009414762 0.01552162
vt 0.009414762 0.01552162
vt 0.009414762 0.01552162
vt 0.009414762 0.01552162
vt 0.009414762 0.01552162
vt 0.009414762 0.01552162
vt 0.009414762 0.01552162
vt 0.009414762 0.01552162
vt 0.009414762 0.01552162
vt 0.009414762 0.01552162
vt 0.009414762 0.01552162
vt 0.009414762 0.01552162
vt 0.009414762 0.01552162
vt 0.5454546 0
vt 0.4545455 0
vt 0.4545454 1
vt 0.5454545 1
vt 0.6363636 0
vt 0.6363636 1
vt 0.7272727 0
vt 0.7272727 1
vt 0.8181819 0
vt 0.8181818 1
vt 0.9090909 0
vt 0.9090909 1
vt 1 0
vt 1 1
vt 0.3636363 1
vt 0.3636364 0
vt 0.2727273 1
vt 0.2727273 0
vt 0.1818182 1
vt 0.1818182 0
vt 0.09090906 1
vt 0.09090906 0
vt 0 1
vt 0 0
vt 0.009414762 0.01552162
vt 0.009414762 0.01552162
vt 0.009414762 0.01552162
vt 0.009414762 0.01552162
vn -1.13496E-06 -1.693604E-07 -1
vn -1.498468E-06 -2.774327E-07 -1
vn -1.499811E-06 -2.774327E-07 -1
vn -9.256247E-07 -1.077535E-07 -1
vn 4.44141E-07 1.057582E-07 -1
vn 1.059382E-06 1.705898E-07 -1
vn 1.420797E-06 2.774333E-07 -1
vn 1.024301E-06 2.77433E-07 -1
vn 2.235904E-07 1.639618E-07 -1
vn 1.526136E-07 1.119136E-07 -1
vn 0 0 -1
vn 0 0 -1
vn 0 0 -1
vn 0 0 -1
vn -7.604788E-07 2.763319E-07 -1
vn -3.848453E-07 5.591005E-07 -1
vn 1.84994E-06 1.221979E-06 -1
vn 2.560045E-06 1.275001E-06 -1
vn 2.105498E-06 7.998717E-07 -1
vn 1.374251E-06 5.803942E-07 -1
vn -1.231357E-06 -3.786944E-07 -1
vn -1.368885E-06 -4.562108E-07 -1
vn -2.036133E-06 -8.322996E-07 -1
vn -2.036133E-06 -8.322997E-07 -1
vn 0 0 1
vn 0 0 1
vn 0 0 1
vn 0 0 1
vn 0 0 1
vn 0 0 1
vn 0 0 1
vn 0 0 1
vn 0 0 1
vn 0 0 1
vn 0 0 1
vn 0 0 1
vn 0 0 1
vn 0 0 1
vn 0 0 1
vn 0 0 1
vn 0 0 1
vn 0 0 1
vn 0 0 1
vn 0 0 1
vn 0 0 1
vn 0 0 1
vn 0 0 1
vn 0 0 1
vn 1 0 0
vn 1 0 0
vn 1 0 0
vn 1 0 0
vn 0.3403243 0.9403081 0
vn 0.3417732 0.9397824 0
vn 0.3417732 0.9397824 0
vn 0.3403243 0.9403081 0
vn 0.3147205 0.9491844 0
vn 0.3147205 0.9491844 0
vn 0.2957106 0.9552775 1.0012E-07
vn 0.2957106 0.9552775 1.0012E-07
vn 0.2457421 0.9693353 1.011555E-07
vn 0.2457422 0.9693353 1.011555E-07
vn 0.1456102 0.989342 0
vn 0.1456102 0.989342 0
vn 0.09321003 0.9956464 0
vn 0.09321003 0.9956464 0
vn 0.3587843 0.9334205 0
vn 0.3587844 0.9334205 0
vn 0.3591389 0.933284 0
vn 0.3591389 0.933284 0
vn 0.2901929 0.9569682 0
vn 0.2901929 0.9569682 0
vn 0.1710722 0.9852585 0
vn 0.1710722 0.9852585 0
vn 0.09625421 0.9953567 0
vn 0.09625421 0.9953567 0
vn -1 0 0
vn -1 0 0
vn -1 0 0
vn -1 0 0
g lu07_0
f 3/3/3 2/2/2 1/1/1
f 4/4/4 3/3/3 1/1/1
f 4/4/4 1/1/1 5/5/5
f 6/6/6 4/4/4 5/5/5
f 6/6/6 5/5/5 7/7/7
f 8/8/8 6/6/6 7/7/7
f 8/8/8 7/7/7 9/9/9
f 10/10/10 8/8/8 9/9/9
f 10/10/10 9/9/9 11/11/11
f 12/12/12 10/10/10 11/11/11
f 12/12/12 11/11/11 13/13/13
f 14/14/14 12/12/12 13/13/13
f 2/2/2 3/3/3 15/15/15
f 16/16/16 2/2/2 15/15/15
f 16/16/16 15/15/15 17/17/17
f 18/18/18 16/16/16 17/17/17
f 18/18/18 17/17/17 19/19/19
f 20/20/20 18/18/18 19/19/19
f 20/20/20 19/19/19 21/21/21
f 22/22/22 20/20/20 21/21/21
f 22/22/22 21/21/21 23/23/23
f 24/24/24 22/22/22 23/23/23
f 27/27/27 26/26/26 25/25/25
f 28/28/28 27/27/27 25/25/25
f 28/28/28 25/25/25 29/29/29
f 30/30/30 28/28/28 29/29/29
f 30/30/30 29/29/29 31/31/31
f 32/32/32 30/30/30 31/31/31
f 32/32/32 31/31/31 33/33/33
f 34/34/34 32/32/32 33/33/33
f 34/34/34 33/33/33 35/35/35
f 36/36/36 34/34/34 35/35/35
f 36/36/36 35/35/35 37/37/37
f 38/38/38 36/36/36 37/37/37
f 26/26/26 27/27/27 39/39/39
f 40/40/40 26/26/26 39/39/39
f 40/40/40 39/39/39 41/41/41
f 42/42/42 40/40/40 41/41/41
f 42/42/42 41/41/41 43/43/43
f 44/44/44 42/42/42 43/43/43
f 44/44/44 43/43/43 45/45/45
f 46/46/46 44/44/44 45/45/45
f 46/46/46 45/45/45 47/47/47
f 48/48/48 46/46/46 47/47/47
f 51/51/51 50/50/50 49/49/49
f 52/52/52 51/51/51 49/49/49
f 55/55/55 54/54/54 53/53/53
f 56/56/56 55/55/55 53/53/53
f 56/56/56 53/53/53 57/57/57
f 58/58/58 56/56/56 57/57/57
f 58/58/58 57/57/57 59/59/59
f 60/60/60 58/58/58 59/59/59
f 60/60/60 59/59/59 61/61/61
f 62/62/62 60/60/60 61/61/61
f 62/62/62 61/61/61 63/63/63
f 64/64/64 62/62/62 63/63/63
f 64/64/64 63/63/63 65/65/65
f 66/66/66 64/64/64 65/65/65
f 54/54/54 55/55/55 67/67/67
f 68/68/68 54/54/54 67/67/67
f 68/68/68 67/67/67 69/69/69
f 70/70/70 68/68/68 69/69/69
f 70/70/70 69/69/69 71/71/71
f 72/72/72 70/70/70 71/71/71
f 72/72/72 71/71/71 73/73/73
f 74/74/74 72/72/72 73/73/73
f 74/74/74 73/73/73 75/75/75
f 76/76/76 74/74/74 75/75/75
f 79/79/79 78/78/78 77/77/77
f 80/80/80 79/79/79 77/77/77
