g lu08
v -12 -2.670288E-07 -12
v -12 -1.498209 -12
v -10.5 -1.498209 -13.47845
v -10.5 -4.959106E-07 -13.47845
v -9 -6.866455E-07 -14.36657
v -9 -1.49821 -14.36657
v -7.5 -7.629394E-07 -14.96923
v -7.5 -1.49821 -14.96923
v -6 -8.773803E-07 -15.09099
v -6 -1.49821 -15.09099
v -4.5 -8.392334E-07 -14.96922
v -4.5 -1.49821 -14.96922
v -3 -8.010864E-07 -14.36657
v -3 -1.49821 -14.36657
v -1.5 -7.247925E-07 -13.47845
v -1.5 -1.49821 -13.47845
v 0 -5.340576E-07 -12
v 0 -1.49821 -12
v -10.5 -1.498209 1.478453
v -12 -1.498209 1.220703E-06
v -12 -2.670288E-07 1.220703E-06
v -10.5 0 1.478453
v -9 -1.498209 2.366571
v -8.999999 7.629394E-08 2.366571
v -7.5 -1.498209 2.969227
v -7.499999 1.525879E-07 2.969227
v -5.999999 -1.498209 3.090996
v -5.999999 1.525879E-07 3.090996
v -4.5 -1.498209 2.969227
v -4.5 1.144409E-07 2.969227
v -3 -1.498209 2.366569
v -3 -3.814697E-08 2.366571
v -1.5 -1.498209 1.478453
v -1.5 -2.288818E-07 1.478455
v 0 -1.498209 1.220703E-06
v 0 -5.340576E-07 1.220703E-06
v 0 -1.49821 -12
v 0 -1.498209 1.220703E-06
v 0 -5.340576E-07 1.220703E-06
v 0 -5.340576E-07 -12
v -1.5 -7.247925E-07 -13.47845
v 0 -5.340576E-07 -12
v 0 -5.340576E-07 1.220703E-06
v -1.5 -2.288818E-07 1.478455
v -3 -8.010864E-07 -14.36657
v -3 -3.814697E-08 2.366571
v -4.5 -8.392334E-07 -14.96922
v -4.5 1.144409E-07 2.969227
v -6 -8.773803E-07 -15.09099
v -5.999999 1.525879E-07 3.090996
v -7.5 -7.629394E-07 -14.96923
v -7.499999 1.525879E-07 2.969227
v -9 -6.866455E-07 -14.36657
v -8.999999 7.629394E-08 2.366571
v -10.5 -4.959106E-07 -13.47845
v -10.5 0 1.478453
v -12 -2.670288E-07 -12
v -12 -2.670288E-07 1.220703E-06
v -12 -2.670288E-07 -12
v -12 -2.670288E-07 1.220703E-06
v -12 -1.498209 1.220703E-06
v -12 -1.498209 -12
vt 0.009414776 0.01552163
vt 0.009414776 0.01552163
vt 0.009414776 0.01552163
vt 0.009414776 0.01552163
vt 0.009414776 0.01552163
vt 0.009414776 0.01552163
vt 0.009414776 0.01552163
vt 0.009414776 0.01552163
vt 0.009414776 0.01552163
vt 0.009414776 0.01552163
vt 0.009414776 0.01552163
vt 0.009414776 0.01552163
vt 0.009414776 0.01552163
vt 0.009414776 0.01552163
vt 0.009414776 0.01552163
vt 0.009414776 0.01552163
vt 0.009414776 0.01552163
vt 0.009414776 0.01552163
vt 0.009414776 0.01552163
vt 0.009414776 0.01552163
vt 0.009414776 0.01552163
vt 0.009414776 0.01552163
vt 0.009414776 0.01552163
vt 0.009414776 0.01552163
vt 0.009414776 0.01552163
vt 0.009414776 0.01552163
vt 0.009414776 0.01552163
vt 0.009414776 0.01552163
vt 0.009414776 0.01552163
vt 0.009414776 0.01552163
vt 0.009414776 0.01552163
vt 0.009414776 0.01552163
vt 0.009414776 0.01552163
vt 0.009414776 0.01552163
vt 0.009414776 0.01552163
vt 0.009414776 0.01552163
vt 0.009414776 0.01552163
vt 0.009414776 0.01552163
vt 0.009414776 0.01552163
vt 0.009414776 0.01552163
vt 0.125 -0.1232043
vt 0 0
vt 0 1
vt 0.125 1.123204
vt 0.25 -0.1972141
vt 0.25 1.197214
vt 0.375 -0.2474355
vt 0.375 1.247435
vt 0.5 -0.2575829
vt 0.4999999 1.257583
vt 0.625 -0.2474356
vt 0.625 1.247435
vt 0.75 -0.1972141
vt 0.75 1.197214
vt 0.875 -0.1232043
vt 0.875 1.123204
vt 1 0
vt 1 1
vt 0.009414776 0.01552163
vt 0.009414776 0.01552163
vt 0.009414776 0.01552163
vt 0.009414776 0.01552163
vn -0.7019726 3.793701E-07 -0.7122039
vn -0.7019726 3.7937E-07 -0.7122039
vn -0.6102444 3.001311E-07 -0.7922132
vn -0.6102443 3.00131E-07 -0.7922133
vn -0.4424276 1.360778E-07 -0.8968042
vn -0.4424276 1.360778E-07 -0.8968042
vn -0.2294542 0 -0.9733194
vn -0.2294542 0 -0.9733194
vn 4.092559E-07 0 -1
vn 4.044971E-07 0 -1
vn 0.2294542 0 -0.9733194
vn 0.2294542 0 -0.9733194
vn 0.4424272 0 -0.8968044
vn 0.4424272 0 -0.8968044
vn 0.6102443 0 -0.7922133
vn 0.6102443 0 -0.7922133
vn 0.7019725 0 -0.712204
vn 0.7019726 0 -0.7122039
vn -0.6102445 3.171613E-07 0.7922132
vn -0.7019728 4.00446E-07 0.7122038
vn -0.7019728 4.00446E-07 0.7122038
vn -0.6102444 3.171612E-07 0.7922132
vn -0.4424271 1.562321E-07 0.8968044
vn -0.442427 1.562321E-07 0.8968045
vn -0.2294541 0 0.9733195
vn -0.2294541 0 0.9733195
vn 0 0 1
vn 0 0 1
vn 0.2294545 -5.374354E-07 0.9733194
vn 0.2294545 -5.374354E-07 0.9733194
vn 0.4424271 -1.248404E-06 0.8968044
vn 0.442427 -1.248404E-06 0.8968045
vn 0.6102443 -9.232426E-07 0.7922133
vn 0.6102442 -9.23243E-07 0.7922134
vn 0.7019729 -4.004459E-07 0.7122036
vn 0.7019729 -4.004459E-07 0.7122036
vn 1 0 0
vn 1 0 0
vn 1 0 0
vn 1 0 0
vn 0 1 0
vn 0 1 0
vn 0 1 0
vn 0 1 0
vn 0 1 0
vn 0 1 0
vn 0 1 0
vn 0 1 0
vn 0 1 0
vn 0 1 0
vn 0 1 0
vn 0 1 0
vn 0 1 0
vn 0 1 0
vn 0 1 0
vn 0 1 0
vn 0 1 0
vn 0 1 0
vn -1 5.54865E-07 0
vn -1 5.54865E-07 0
vn -1 5.54865E-07 0
vn -1 5.54865E-07 0
g lu08_0
f 3/3/3 2/2/2 1/1/1
f 4/4/4 3/3/3 1/1/1
f 3/3/3 4/4/4 5/5/5
f 6/6/6 3/3/3 5/5/5
f 6/6/6 5/5/5 7/7/7
f 8/8/8 6/6/6 7/7/7
f 8/8/8 7/7/7 9/9/9
f 10/10/10 8/8/8 9/9/9
f 10/10/10 9/9/9 11/11/11
f 12/12/12 10/10/10 11/11/11
f 12/12/12 11/11/11 13/13/13
f 14/14/14 12/12/12 13/13/13
f 14/14/14 13/13/13 15/15/15
f 16/16/16 14/14/14 15/15/15
f 16/16/16 15/15/15 17/17/17
f 18/18/18 16/16/16 17/17/17
f 21/21/21 20/20/20 19/19/19
f 22/22/22 21/21/21 19/19/19
f 22/22/22 19/19/19 23/23/23
f 24/24/24 22/22/22 23/23/23
f 24/24/24 23/23/23 25/25/25
f 26/26/26 24/24/24 25/25/25
f 26/26/26 25/25/25 27/27/27
f 28/28/28 26/26/26 27/27/27
f 28/28/28 27/27/27 29/29/29
f 30/30/30 28/28/28 29/29/29
f 30/30/30 29/29/29 31/31/31
f 32/32/32 30/30/30 31/31/31
f 32/32/32 31/31/31 33/33/33
f 34/34/34 32/32/32 33/33/33
f 34/34/34 33/33/33 35/35/35
f 36/36/36 34/34/34 35/35/35
f 39/39/39 38/38/38 37/37/37
f 40/40/40 39/39/39 37/37/37
f 43/43/43 42/42/42 41/41/41
f 44/44/44 43/43/43 41/41/41
f 44/44/44 41/41/41 45/45/45
f 46/46/46 44/44/44 45/45/45
f 46/46/46 45/45/45 47/47/47
f 48/48/48 46/46/46 47/47/47
f 48/48/48 47/47/47 49/49/49
f 50/50/50 48/48/48 49/49/49
f 50/50/50 49/49/49 51/51/51
f 52/52/52 50/50/50 51/51/51
f 52/52/52 51/51/51 53/53/53
f 54/54/54 52/52/52 53/53/53
f 54/54/54 53/53/53 55/55/55
f 56/56/56 54/54/54 55/55/55
f 56/56/56 55/55/55 57/57/57
f 58/58/58 56/56/56 57/57/57
f 61/61/61 60/60/60 59/59/59
f 62/62/62 61/61/61 59/59/59
