g lu09
v -7.4688 -3.433227E-07 -12
v -12 -2.670288E-07 -12
v -12 -1.500327 -12
v -7.4688 -1.500327 -12
v -4.5312 -4.196167E-07 -12
v -4.5312 -1.500328 -12
v 0 -5.340576E-07 -12
v 0 -1.500328 -12
v -7.4688 -1.500328 1.220703E-06
v -12 -1.500327 1.220703E-06
v -12 -2.670288E-07 1.220703E-06
v -7.4688 -3.433227E-07 1.220703E-06
v -4.5312 -1.500328 1.220703E-06
v -4.5312 -4.196167E-07 1.220703E-06
v 0 -1.500328 1.220703E-06
v 0 -5.340576E-07 1.220703E-06
v 0 -5.340576E-07 -6.982549
v 0 -5.340576E-07 -12
v 0 -1.500328 -12
v 0 -1.500328 -6.982549
v 0 -5.340576E-07 -5.017448
v 0 -1.500328 -5.017448
v 0 -5.340576E-07 1.220703E-06
v 0 -1.500328 1.220703E-06
v 0 -5.340576E-07 -6.982549
v -4.5312 -4.196167E-07 -6.982549
v -4.5312 -4.196167E-07 -12
v 0 -5.340576E-07 -12
v -4.5312 -4.196167E-07 -5.017448
v 0 -5.340576E-07 -5.017448
v 0 -5.340576E-07 1.220703E-06
v -4.5312 -4.196167E-07 1.220703E-06
v -7.4688 -3.433227E-07 -12
v -7.4688 -3.433227E-07 -6.982549
v -12 -2.670288E-07 -12
v -12 -2.670288E-07 -6.982549
v -12 -2.670288E-07 -5.017448
v -7.4688 -3.433227E-07 -5.017448
v -7.4688 -3.433227E-07 1.220703E-06
v -12 -2.670288E-07 1.220703E-06
v -12 -1.500327 -6.982549
v -12 -1.500327 -12
v -12 -2.670288E-07 -12
v -12 -2.670288E-07 -6.982549
v -12 -1.500327 -5.017448
v -12 -2.670288E-07 -5.017448
v -12 -1.500327 1.220703E-06
v -12 -2.670288E-07 1.220703E-06
v -4.5312 -4.196167E-07 -6.982549
v -4.5312 -1.499764 -6.982549
v -7.4688 -1.499764 -6.982549
v -7.4688 -3.433227E-07 -6.982549
v -7.4688 -3.433227E-07 -5.017448
v -7.4688 -1.499764 -5.017448
v -4.5312 -1.499764 -5.017448
v -4.5312 -4.196167E-07 -5.017448
v -4.5312 -4.196167E-07 -5.017448
v -4.5312 -1.499764 -5.017448
v -4.5312 -1.499764 -6.982549
v -4.5312 -4.196167E-07 -6.982549
v -7.4688 -3.433227E-07 -6.982549
v -7.4688 -1.499764 -6.982549
v -7.4688 -1.499764 -5.017448
v -7.4688 -3.433227E-07 -5.017448
vt 0.009414762 0.01552162
vt 0.009414762 0.01552162
vt 0.009414762 0.01552162
vt 0.009414762 0.01552162
vt 0.009414762 0.01552162
vt 0.009414762 0.01552162
vt 0.009414762 0.01552162
vt 0.009414762 0.01552162
vt 0.009414762 0.01552162
vt 0.009414762 0.01552162
vt 0.009414762 0.01552162
vt 0.009414762 0.01552162
vt 0.009414762 0.01552162
vt 0.009414762 0.01552162
vt 0.009414762 0.01552162
vt 0.009414762 0.01552162
vt 0.009414762 0.01552162
vt 0.009414762 0.01552162
vt 0.009414762 0.01552162
vt 0.009414762 0.01552162
vt 0.009414762 0.01552162
vt 0.009414762 0.01552162
vt 0.009414762 0.01552162
vt 0.009414762 0.01552162
vt 0 0.4181208
vt 0.3776 0.4181208
vt 0.3776 0
vt 0 0
vt 0.3776 0.5818791
vt 0 0.5818791
vt 0 1
vt 0.3776 1
vt 0.6224 0
vt 0.6224 0.4181208
vt 1 0
vt 1 0.4181208
vt 1 0.5818791
vt 0.6224 0.5818791
vt 0.6224 1
vt 1 1
vt 0.009414762 0.01552162
vt 0.009414762 0.01552162
vt 0.009414762 0.01552162
vt 0.009414762 0.01552162
vt 0.009414762 0.01552162
vt 0.009414762 0.01552162
vt 0.009414762 0.01552162
vt 0.009414762 0.01552162
vt 0.008540243 0.01445829
vt 0.008540243 0.01445829
vt 0.008540243 0.01445829
vt 0.008540243 0.01445829
vt 0.008540243 0.01445829
vt 0.008540243 0.01445829
vt 0.008540243 0.01445829
vt 0.008540243 0.01445829
vt 0.008540243 0.01445829
vt 0.008540243 0.01445829
vt 0.008540243 0.01445829
vt 0.008540243 0.01445829
vt 0.008540243 0.01445829
vt 0.008540243 0.01445829
vt 0.008540243 0.01445829
vt 0.008540243 0.01445829
vn 0 0 -1
vn 0 0 -1
vn 0 0 -1
vn 0 0 -1
vn 0 0 -1
vn 0 0 -1
vn 0 0 -1
vn 0 0 -1
vn 0 0 1
vn 0 0 1
vn 0 0 1
vn 0 0 1
vn 0 0 1
vn 0 0 1
vn 0 0 1
vn 0 0 1
vn 1 0 0
vn 1 0 0
vn 1 0 0
vn 1 0 0
vn 1 0 0
vn 1 0 0
vn 1 0 0
vn 1 0 0
vn 0 1 0
vn 0 1 0
vn 0 1 0
vn 0 1 0
vn 0 1 0
vn 0 1 0
vn 0 1 0
vn 0 1 0
vn 0 1 0
vn 0 1 0
vn 0 1 0
vn 0 1 0
vn 0 1 0
vn 0 1 0
vn 0 1 0
vn 0 1 0
vn -1 5.54865E-07 0
vn -1 5.54865E-07 0
vn -1 5.54865E-07 0
vn -1 5.54865E-07 0
vn -1 2.034062E-07 0
vn -1 2.034062E-07 0
vn -1 2.034062E-07 0
vn -1 2.034062E-07 0
vn 0 2.034826E-07 1
vn 0 2.034826E-07 1
vn 0 2.034826E-07 1
vn 0 2.034826E-07 1
vn -1.038861E-07 -2.034826E-07 -1
vn -1.038861E-07 -2.034826E-07 -1
vn -1.038861E-07 -2.034826E-07 -1
vn -1.038861E-07 -2.034826E-07 -1
vn -1 0 0
vn -1 0 0
vn -1 0 0
vn -1 0 0
vn 1 0 0
vn 1 0 0
vn 1 0 0
vn 1 0 0
g lu09_0
f 3/3/3 2/2/2 1/1/1
f 4/4/4 3/3/3 1/1/1
f 4/4/4 1/1/1 5/5/5
f 6/6/6 4/4/4 5/5/5
f 6/6/6 5/5/5 7/7/7
f 8/8/8 6/6/6 7/7/7
f 11/11/11 10/10/10 9/9/9
f 12/12/12 11/11/11 9/9/9
f 12/12/12 9/9/9 13/13/13
f 14/14/14 12/12/12 13/13/13
f 14/14/14 13/13/13 15/15/15
f 16/16/16 14/14/14 15/15/15
f 19/19/19 18/18/18 17/17/17
f 20/20/20 19/19/19 17/17/17
f 20/20/20 17/17/17 21/21/21
f 22/22/22 20/20/20 21/21/21
f 22/22/22 21/21/21 23/23/23
f 24/24/24 22/22/22 23/23/23
f 27/27/27 26/26/26 25/25/25
f 28/28/28 27/27/27 25/25/25
f 25/25/25 26/26/26 29/29/29
f 30/30/30 25/25/25 29/29/29
f 31/31/31 30/30/30 29/29/29
f 32/32/32 31/31/31 29/29/29
f 26/26/26 27/27/27 33/33/33
f 34/34/34 26/26/26 33/33/33
f 33/33/33 35/35/35 34/34/34
f 35/35/35 36/36/36 34/34/34
f 36/36/36 37/37/37 34/34/34
f 37/37/37 38/38/38 34/34/34
f 29/29/29 38/38/38 32/32/32
f 38/38/38 37/37/37 39/39/39
f 38/38/38 39/39/39 32/32/32
f 37/37/37 40/40/40 39/39/39
f 43/43/43 42/42/42 41/41/41
f 44/44/44 43/43/43 41/41/41
f 44/44/44 41/41/41 45/45/45
f 46/46/46 44/44/44 45/45/45
f 46/46/46 45/45/45 47/47/47
f 48/48/48 46/46/46 47/47/47
f 51/51/51 50/50/50 49/49/49
f 52/52/52 51/51/51 49/49/49
f 55/55/55 54/54/54 53/53/53
f 56/56/56 55/55/55 53/53/53
f 59/59/59 58/58/58 57/57/57
f 60/60/60 59/59/59 57/57/57
f 63/63/63 62/62/62 61/61/61
f 64/64/64 63/63/63 61/61/61
