g mesh_di
v 0.01457127 1.979892E-11 6.426652E-05
v 0.01064369 0.006145137 0.002974259
v 0.01261909 0.007285634 6.426651E-05
v 0.01228308 -6.972353E-10 0.00328299
v 0.007285636 0.01261909 6.42665E-05
v 0.006145137 0.01064369 0.00297426
v 0.01064368 -0.006145143 0.002974259
v 0.01261909 -0.007285642 6.426653E-05
v 0.006145129 -0.01064369 0.00297426
v 0.007285626 -0.0126191 6.426652E-05
v -7.064918E-09 -0.01457127 6.426652E-05
v -5.397046E-09 -0.01228307 0.003282989
v -0.006145141 -0.01064369 0.002974259
v -0.00728564 -0.01261909 6.42665E-05
v -0.01064369 -0.006145134 0.002974259
v -0.01261909 -0.007285631 6.426651E-05
v -0.01457127 2.805178E-09 6.426653E-05
v -0.01228307 1.231508E-09 0.00328299
v -0.01064369 0.006145133 0.00297426
v -0.01261909 0.007285634 6.426652E-05
v -0.006145137 0.01064369 0.002974259
v -0.007285636 0.01261909 6.42665E-05
v -2.886849E-09 0.01457126 6.42665E-05
v -2.816127E-09 0.01228307 0.003282989
v 0.006145137 0.01064369 0.00297426
v 0.007285636 0.01261909 6.42665E-05
v 0.005836998 0.01010998 0.005870314
v -2.802162E-09 0.01165862 0.00652959
v 0.005803563 0.01005207 0.008346509
v -2.89865E-09 0.01160917 0.009175591
v -0.005803565 0.01005206 0.008346507
v -0.005836998 0.01010997 0.005870312
v -0.01010997 0.00583699 0.005870314
v -0.01005207 0.005803558 0.00834651
v -0.01165862 -3.010048E-11 0.006529592
v -0.01160918 1.206461E-09 0.009175593
v -0.01005207 -0.005803564 0.00834651
v -0.01010997 -0.005836992 0.005870313
v -0.005836999 -0.01010998 0.005870312
v -0.005803569 -0.01005206 0.008346508
v -4.135517E-09 -0.01165862 0.006529591
v -5.617269E-09 -0.01160918 0.009175592
v 0.005803553 -0.01005207 0.008346509
v 0.00583699 -0.01010998 0.005870314
v 0.01010997 -0.005837002 0.005870312
v 0.01005206 -0.005803571 0.008346507
v 0.01165862 -1.363455E-09 0.006529592
v 0.01160918 -2.208332E-09 0.009175593
v 0.01005207 0.005803563 0.008346508
v 0.01010998 0.005836998 0.005870313
v 0.005836998 0.01010998 0.005870314
v 0.005803563 0.01005207 0.008346509
v 0.0111612 0.006443922 0.01079062
v 0.01290756 -3.078898E-09 0.01188577
v 0.01247974 0.007205179 0.01358496
v 0.01447484 -3.091004E-09 0.01413039
v 0.006443921 0.0111612 0.01079062
v 0.007205178 0.01247973 0.01358496
v 0.01247973 -0.007205189 0.01358496
v 0.0111612 -0.006443935 0.01079062
v 0.007205167 -0.01247975 0.01358496
v 0.006443909 -0.01116121 0.01079062
v -7.465561E-09 -0.01290756 0.01188577
v -8.181803E-09 -0.01447484 0.01413039
v -0.007205189 -0.01247974 0.01358496
v -0.006443932 -0.0111612 0.01079062
v -0.01247974 -0.007205185 0.01358496
v -0.01116121 -0.00644393 0.01079062
v -0.01290756 2.813791E-09 0.01188577
v -0.01447484 1.257194E-09 0.01413039
v -0.01247974 0.00720517 0.01358496
v -0.0111612 0.006443919 0.01079062
v -0.007205184 0.01247973 0.01358496
v -0.006443928 0.01116119 0.01079062
v -3.046043E-09 0.01290755 0.01188576
v -3.806936E-09 0.01447484 0.01413039
v 0.007205178 0.01247973 0.01358496
v 0.006443921 0.0111612 0.01079062
v 0.008384695 0.01452272 0.01636874
v -4.569108E-09 0.01688238 0.01639611
v 0.01058 0.01832511 0.01968676
v -3.689406E-09 0.02135112 0.01970573
v -0.01058001 0.0183251 0.01968676
v -0.008384701 0.01452271 0.01636874
v -0.01452272 0.00838468 0.01636874
v -0.0183251 0.01057999 0.01968676
v -0.01688239 4.455691E-11 0.01639611
v -0.02135112 3.297783E-09 0.01970573
v -0.01832511 -0.01058 0.01968676
v -0.01452272 -0.008384701 0.01636874
v -0.008384707 -0.01452272 0.01636874
v -0.01058001 -0.0183251 0.01968676
v -9.153287E-09 -0.01688239 0.01639611
v -1.075844E-08 -0.02135112 0.01970573
v 0.01057999 -0.01832511 0.01968676
v 0.008384685 -0.01452273 0.01636874
v 0.01452271 -0.008384706 0.01636874
v 0.0183251 -0.01058002 0.01968676
v 0.01688239 -3.011563E-09 0.01639611
v 0.02135112 -1.414902E-09 0.01970573
v 0.01832511 0.01058 0.01968676
v 0.01452272 0.008384695 0.01636874
v 0.008384695 0.01452272 0.01636874
v 0.01058 0.01832511 0.01968676
v 0.02073253 0.01196993 0.02295514
v 0.02419383 2.527276E-11 0.02297319
v 0.01196993 0.02073253 0.02295514
v -0.01196994 -0.02073252 0.02295514
v -0.02073253 -0.01196993 0.02295514
v -0.02419383 6.023075E-09 0.02297319
v -0.02073253 0.01196993 0.02295514
v -0.01196993 0.02073252 0.02295514
v -3.044841E-09 0.02419382 0.02297319
v 0.01196993 0.02073253 0.02295514
v -1.204155E-08 -0.02419383 0.02297319
v 0.01196992 -0.02073253 0.02295514
v 0.02073252 -0.01196994 0.02295514
v 0.02419383 2.527276E-11 0.02297319
v 0.01498998 0.00865447 0.02043211
v 0.02073253 0.01196993 0.02295514
v 0.01736807 -6.227532E-11 0.02082288
v 0.008654467 0.01498998 0.02043211
v 0.01196993 0.02073253 0.02295514
v 0.02073252 -0.01196994 0.02295514
v 0.01498997 -0.008654482 0.02043211
v 0.01196992 -0.02073253 0.02295514
v 0.008654461 -0.01498998 0.02043211
v -1.204155E-08 -0.02419383 0.02297319
v -7.450577E-09 -0.01736807 0.02082288
v -0.01196994 -0.02073252 0.02295514
v -0.00865447 -0.01498997 0.02043211
v -0.02073253 -0.01196993 0.02295514
v -0.01498998 -0.008654462 0.02043211
v -0.02419383 6.023075E-09 0.02297319
v -0.01736807 -6.227532E-11 0.02082288
v -0.02073253 0.01196993 0.02295514
v -0.01498998 0.00865447 0.02043211
v -0.01196993 0.02073252 0.02295514
v -0.00865447 0.01498998 0.02043211
v -3.044841E-09 0.02419382 0.02297319
v -3.036813E-09 0.01736807 0.02082288
v 0.01196993 0.02073253 0.02295514
v 0.008654467 0.01498998 0.02043211
v 8.971608E-11 0.01249355 0.01740769
v 0.006009914 0.01040948 0.01727958
v -0.006009914 0.01040948 0.01727958
v -0.01040948 0.006009911 0.01727958
v -0.01249355 3.352603E-09 0.0174077
v -0.01040948 -0.006009917 0.01727958
v -1.394121E-10 0.007135939 0.01542475
v 0.003567819 0.006179635 0.01541863
v -0.003567815 0.006179631 0.01541863
v -0.006179629 0.003567816 0.01541863
v -0.007135937 1.810102E-10 0.01542475
v -0.006179629 -0.003567809 0.01541863
v -0.00356782 -0.00617964 0.01541863
v -0.006009916 -0.01040948 0.01727958
v -3.143265E-09 -0.01249355 0.01740769
v 0.006009908 -0.01040948 0.01727958
v 0.01040947 -0.006009925 0.01727958
v 0.01249355 1.196214E-10 0.01740769
v 0.01040948 0.006009914 0.01727958
v 0.006009914 0.01040948 0.01727958
v 0.006179634 0.003567812 0.01541863
v 0.007135939 1.810102E-10 0.01542475
v 0.003567819 0.006179635 0.01541863
v 0.003567812 -0.00617964 0.01541863
v -2.006451E-09 -0.007135939 0.01542475
v 0.006179634 -0.003567819 0.01541863
v 3.256418E-09 1.171803E-10 0.01373944
vt 0.75 0
vt 0.8333333 0.125
vt 0.8333333 0
vt 0.75 0.125
vt 0.9166667 0
vt 0.9166667 0.125
vt 0.6666666 0.125
vt 0.6666666 0
vt 0.5833333 0.125
vt 0.5833333 0
vt 0.4999999 0
vt 0.4999999 0.125
vt 0.4166666 0.125
vt 0.4166666 0
vt 0.3333333 0.125
vt 0.3333333 0
vt 0.25 0
vt 0.25 0.125
vt 0.1666667 0.125
vt 0.1666667 0
vt 0.08333335 0.125
vt 0.08333335 0
vt 3.794549E-08 0
vt 3.794549E-08 0.125
vt -0.08333331 0.125
vt -0.08333331 0
vt -0.08333331 0.25
vt 3.794549E-08 0.25
vt -0.08333331 0.375
vt 3.794549E-08 0.375
vt 0.08333335 0.375
vt 0.08333335 0.25
vt 0.1666667 0.25
vt 0.1666667 0.375
vt 0.25 0.25
vt 0.25 0.375
vt 0.3333333 0.375
vt 0.3333333 0.25
vt 0.4166666 0.25
vt 0.4166666 0.375
vt 0.4999999 0.25
vt 0.4999999 0.375
vt 0.5833333 0.375
vt 0.5833333 0.25
vt 0.6666666 0.25
vt 0.6666666 0.375
vt 0.75 0.25
vt 0.75 0.375
vt 0.8333333 0.375
vt 0.8333333 0.25
vt 0.9166667 0.25
vt 0.9166667 0.375
vt 0.8333333 0.5
vt 0.75 0.5
vt 0.8333333 0.625
vt 0.75 0.625
vt 0.9166667 0.5
vt 0.9166667 0.625
vt 0.6666666 0.625
vt 0.6666666 0.5
vt 0.5833333 0.625
vt 0.5833333 0.5
vt 0.4999999 0.5
vt 0.4999999 0.625
vt 0.4166666 0.625
vt 0.4166666 0.5
vt 0.3333333 0.625
vt 0.3333333 0.5
vt 0.25 0.5
vt 0.25 0.625
vt 0.1666667 0.625
vt 0.1666667 0.5
vt 0.08333335 0.625
vt 0.08333335 0.5
vt 3.794549E-08 0.5
vt 3.794549E-08 0.625
vt -0.08333331 0.625
vt -0.08333331 0.5
vt -0.08333331 0.7499999
vt 3.794549E-08 0.7499999
vt -0.08333331 0.875
vt 3.794549E-08 0.875
vt 0.08333335 0.875
vt 0.08333335 0.7499999
vt 0.1666667 0.7499999
vt 0.1666667 0.875
vt 0.25 0.7499999
vt 0.25 0.875
vt 0.3333333 0.875
vt 0.3333333 0.7499999
vt 0.4166666 0.7499999
vt 0.4166666 0.875
vt 0.4999999 0.7499999
vt 0.4999999 0.875
vt 0.5833333 0.875
vt 0.5833333 0.7499999
vt 0.6666666 0.7499999
vt 0.6666666 0.875
vt 0.75 0.7499999
vt 0.75 0.875
vt 0.8333333 0.875
vt 0.8333333 0.7499999
vt 0.9166667 0.7499999
vt 0.9166667 0.875
vt 0.8333333 1
vt 0.75 1
vt 0.9166667 1
vt 0.4166666 1
vt 0.3333333 1
vt 0.25 1
vt 0.1666667 1
vt 0.08333335 1
vt 3.794549E-08 1
vt -0.08333331 1
vt 0.4999999 1
vt 0.5833333 1
vt 0.6666666 1
vt 0.75 1
vt 0.8333333 1
vt 0.8333333 1
vt 0.75 1
vt 0.9166666 1
vt 0.9166667 1
vt 0.6666666 1
vt 0.6666666 1
vt 0.5833333 1
vt 0.5833333 1
vt 0.4999999 1
vt 0.4999999 1
vt 0.4166666 1
vt 0.4166666 1
vt 0.3333333 1
vt 0.3333333 1
vt 0.25 1
vt 0.25 1
vt 0.1666667 1
vt 0.1666667 1
vt 0.08333335 1
vt 0.08333335 1
vt 3.794549E-08 1
vt 3.794549E-08 1
vt -0.08333331 1
vt -0.08333337 1
vt 3.794549E-08 1
vt -0.08333331 1
vt 0.08333335 1
vt 0.1666667 1
vt 0.25 1
vt 0.3333333 1
vt 3.794549E-08 1
vt -0.08333331 1
vt 0.08333335 1
vt 0.1666667 1
vt 0.25 1
vt 0.3333333 1
vt 0.4166666 1
vt 0.4166666 1
vt 0.4999999 1
vt 0.5833333 1
vt 0.6666666 1
vt 0.75 1
vt 0.8333333 1
vt 0.9166667 1
vt 0.8333333 1
vt 0.75 1
vt 0.9166667 1
vt 0.5833333 1
vt 0.4999999 1
vt 0.6666666 1
vt 0.5 1
vn 0.8056573 0 0.5923821
vn 0.7768064 0.4533002 0.4371392
vn 0.681589 0.3935153 0.6169135
vn 0.9150584 -4.156334E-07 0.4033214
vn 0.3935152 0.6815888 0.6169137
vn 0.4532999 0.7768064 0.4371397
vn 0.7768058 -0.4533005 0.4371402
vn 0.6815883 -0.3935156 0.6169139
vn 0.4532998 -0.7768064 0.4371398
vn 0.393515 -0.681589 0.6169136
vn -4.41794E-07 -0.8056571 0.5923823
vn -3.889747E-07 -0.9150583 0.4033216
vn -0.4533006 -0.7768061 0.4371396
vn -0.3935157 -0.6815885 0.6169137
vn -0.7768062 -0.4532999 0.43714
vn -0.6815887 -0.3935151 0.6169138
vn -0.805657 0 0.5923823
vn -0.9150583 0 0.4033217
vn -0.7768061 0.4533001 0.43714
vn -0.6815885 0.3935153 0.616914
vn -0.4533003 0.7768061 0.4371398
vn -0.3935152 0.6815887 0.6169139
vn -3.825286E-07 0.8056573 0.592382
vn -5.27115E-07 0.9150586 0.403321
vn 0.4532999 0.7768064 0.4371397
vn 0.3935152 0.6815888 0.6169137
vn 0.4991232 0.8580006 0.1212898
vn -5.938347E-07 0.9949138 0.1007299
vn 0.4731736 0.8517542 -0.2249922
vn -5.448471E-07 0.9698461 -0.2437182
vn -0.4731743 0.8517537 -0.2249925
vn -0.4991238 0.8580001 0.1212898
vn -0.8580005 0.4991233 0.121289
vn -0.8517537 0.4731736 -0.2249943
vn -0.9949138 0 0.1007295
vn -0.9698457 4.252465E-07 -0.2437197
vn -0.8517537 -0.4731732 -0.2249954
vn -0.8580008 -0.499123 0.1212885
vn -0.4991235 -0.8580004 0.121289
vn -0.4731738 -0.8517537 -0.2249936
vn 0 -0.9949138 0.1007296
vn -5.8713E-07 -0.9698457 -0.2437198
vn 0.4731728 -0.8517541 -0.2249941
vn 0.4991233 -0.8580005 0.1212892
vn 0.858 -0.4991242 0.1212888
vn 0.8517531 -0.4731743 -0.2249953
vn 0.9949138 -5.354248E-07 0.1007294
vn 0.9698457 0 -0.2437197
vn 0.8517539 0.4731738 -0.2249931
vn 0.8580005 0.4991234 0.121289
vn 0.4991232 0.8580006 0.1212898
vn 0.4731736 0.8517542 -0.2249922
vn 0.7809762 0.4113136 -0.469997
vn 0.865769 0 -0.5004439
vn 0.7194461 0.3860584 -0.5773702
vn 0.7580513 0 -0.652195
vn 0.4113131 0.7809768 -0.4699967
vn 0.3860577 0.7194462 -0.5773703
vn 0.7194463 -0.3860589 -0.5773695
vn 0.7809759 -0.4113139 -0.4699974
vn 0.3860574 -0.7194464 -0.5773703
vn 0.411312 -0.7809769 -0.4699973
vn -5.530398E-07 -0.8657687 -0.5004443
vn -3.329571E-07 -0.758051 -0.6521952
vn -0.3860581 -0.7194458 -0.5773708
vn -0.4113135 -0.7809761 -0.4699976
vn -0.7194464 -0.3860578 -0.5773701
vn -0.7809762 -0.4113132 -0.4699976
vn -0.865769 5.482515E-07 -0.5004439
vn -0.7580512 4.072139E-07 -0.652195
vn -0.7194466 0.3860582 -0.5773696
vn -0.7809764 0.4113134 -0.4699969
vn -0.3860584 0.7194459 -0.5773703
vn -0.4113136 0.7809762 -0.469997
vn -3.375697E-07 0.8657691 -0.5004436
vn 0 0.7580511 -0.6521952
vn 0.3860577 0.7194462 -0.5773703
vn 0.4113131 0.7809768 -0.4699967
vn 0.3332188 0.5841419 -0.740097
vn -2.540995E-07 0.6361439 -0.7715704
vn 0.3518629 0.5994838 -0.7188962
vn 0 0.6894744 -0.7243101
vn -0.3518632 0.5994836 -0.7188962
vn -0.3332195 0.5841416 -0.7400968
vn -0.5841422 0.3332189 -0.7400967
vn -0.5994833 0.3518626 -0.7188967
vn -0.636144 0 -0.7715703
vn -0.6894741 0 -0.7243103
vn -0.5994838 -0.3518629 -0.718896
vn -0.5841422 -0.3332189 -0.7400967
vn -0.3332193 -0.584142 -0.7400967
vn -0.3518633 -0.5994837 -0.718896
vn 0 -0.6361442 -0.7715701
vn -2.907299E-07 -0.6894742 -0.7243103
vn 0.3518627 -0.5994838 -0.7188963
vn 0.3332188 -0.5841422 -0.7400967
vn 0.584142 -0.3332196 -0.7400964
vn 0.5994833 -0.3518634 -0.7188962
vn 0.636144 0 -0.7715703
vn 0.6894743 0 -0.7243102
vn 0.5994835 0.3518631 -0.7188963
vn 0.584142 0.3332193 -0.7400967
vn 0.3332188 0.5841419 -0.740097
vn 0.3518629 0.5994838 -0.7188962
vn 0.6564999 0.3853522 -0.6484687
vn 0.7544414 0 -0.6563675
vn 0.3853522 0.6565003 -0.6484683
vn -0.3853521 -0.6564999 -0.6484685
vn -0.6565002 -0.3853517 -0.6484686
vn -0.7544408 0 -0.6563681
vn -0.6564995 0.3853519 -0.6484693
vn -0.3853522 0.6565003 -0.6484683
vn 0 0.7544417 -0.6563671
vn 0.3853522 0.6565003 -0.6484683
vn -3.629732E-07 -0.7544406 -0.6563683
vn 0.3853515 -0.6564999 -0.6484691
vn 0.6564997 -0.3853525 -0.6484686
vn -0.3119279 0.00964637 0.9500568
vn -0.3660726 -0.2015431 0.9084995
vn -0.3067967 -0.1798535 0.9346274
vn -0.4145592 0.01117664 0.9099538
vn -0.2029607 -0.3791075 0.9028203
vn -0.1653307 -0.3020165 0.9388567
vn -0.3020163 0.1653308 0.9388567
vn -0.3767704 0.1957138 0.905395
vn -0.179853 0.3067966 0.9346276
vn -0.2087836 0.3684062 0.9059175
vn 0.009646433 0.3119276 0.9500569
vn 0.01118598 0.4257845 0.9047554
vn 0.1653306 0.302016 0.9388568
vn 0.2029609 0.3791074 0.9028203
vn 0.3067964 0.1798531 0.9346276
vn 0.3684062 0.2087837 0.9059173
vn 0.3119277 -0.009646339 0.9500569
vn 0.4257845 -0.01118569 0.9047555
vn 0.3020164 -0.1653306 0.9388567
vn 0.3791074 -0.2029608 0.9028203
vn 0.1798534 -0.3067968 0.9346274
vn 0.2087839 -0.3684062 0.9059172
vn -0.009646121 -0.3119284 0.9500567
vn -0.0111856 -0.4257846 0.9047554
vn -0.1653307 -0.3020165 0.9388567
vn -0.2029607 -0.3791075 0.9028203
vn -0.0004774545 -0.470532 0.8823828
vn -0.2286444 -0.3813972 0.8956885
vn 0.2295844 -0.381727 0.8953075
vn 0.3813971 -0.2286443 0.8956887
vn 0.4705321 -0.0004774448 0.8823828
vn 0.3817271 0.2295842 0.8953074
vn -0.001770944 -0.2995712 0.9540723
vn -0.1509301 -0.2630033 0.9529162
vn 0.1518516 -0.2609841 0.9533249
vn 0.2630033 -0.1509299 0.9529163
vn 0.2995712 -0.001770458 0.9540724
vn 0.2609845 0.1518505 0.953325
vn 0.15093 0.2630032 0.9529163
vn 0.2286446 0.3813975 0.8956884
vn 0.0004776264 0.4705322 0.8823826
vn -0.2295842 0.3817272 0.8953074
vn -0.3933618 0.2227629 0.8919885
vn -0.4863303 0.0004804706 0.8737749
vn -0.3936905 -0.2237053 0.8916074
vn -0.2286444 -0.3813972 0.8956885
vn -0.2609842 -0.1518514 0.9533249
vn -0.2995712 0.001770828 0.9540724
vn -0.1509301 -0.2630033 0.9529162
vn -0.1518514 0.2609843 0.9533249
vn 0.001770798 0.2995713 0.9540723
vn -0.2630032 0.15093 0.9529163
vn 0 0 1
g mesh_di_0
f 3/3/3 2/2/2 1/1/1
f 4/4/4 1/1/1 2/2/2
f 3/3/3 5/5/5 2/2/2
f 6/6/6 2/2/2 5/5/5
f 4/4/4 7/7/7 1/1/1
f 8/8/8 1/1/1 7/7/7
f 7/7/7 9/9/9 8/8/8
f 10/10/10 8/8/8 9/9/9
f 10/10/10 9/9/9 11/11/11
f 12/12/12 11/11/11 9/9/9
f 12/12/12 13/13/13 11/11/11
f 14/14/14 11/11/11 13/13/13
f 13/13/13 15/15/15 14/14/14
f 16/16/16 14/14/14 15/15/15
f 16/16/16 15/15/15 17/17/17
f 18/18/18 17/17/17 15/15/15
f 18/18/18 19/19/19 17/17/17
f 20/20/20 17/17/17 19/19/19
f 19/19/19 21/21/21 20/20/20
f 22/22/22 20/20/20 21/21/21
f 22/22/22 21/21/21 23/23/23
f 24/24/24 23/23/23 21/21/21
f 24/24/24 25/25/25 23/23/23
f 26/26/26 23/23/23 25/25/25
f 25/25/25 24/24/24 27/27/27
f 28/28/28 27/27/27 24/24/24
f 27/27/27 28/28/28 29/29/29
f 30/30/30 29/29/29 28/28/28
f 30/30/30 28/28/28 31/31/31
f 32/32/32 31/31/31 28/28/28
f 28/28/28 24/24/24 32/32/32
f 21/21/21 32/32/32 24/24/24
f 32/32/32 33/33/33 31/31/31
f 32/32/32 21/21/21 33/33/33
f 19/19/19 33/33/33 21/21/21
f 19/19/19 18/18/18 33/33/33
f 34/34/34 31/31/31 33/33/33
f 33/33/33 35/35/35 34/34/34
f 36/36/36 34/34/34 35/35/35
f 36/36/36 35/35/35 37/37/37
f 38/38/38 37/37/37 35/35/35
f 38/38/38 39/39/39 37/37/37
f 40/40/40 37/37/37 39/39/39
f 39/39/39 41/41/41 40/40/40
f 42/42/42 40/40/40 41/41/41
f 42/42/42 41/41/41 43/43/43
f 44/44/44 43/43/43 41/41/41
f 44/44/44 45/45/45 43/43/43
f 46/46/46 43/43/43 45/45/45
f 45/45/45 47/47/47 46/46/46
f 48/48/48 46/46/46 47/47/47
f 48/48/48 47/47/47 49/49/49
f 50/50/50 49/49/49 47/47/47
f 50/50/50 51/51/51 49/49/49
f 52/52/52 49/49/49 51/51/51
f 49/49/49 53/53/53 48/48/48
f 54/54/54 48/48/48 53/53/53
f 53/53/53 55/55/55 54/54/54
f 56/56/56 54/54/54 55/55/55
f 53/53/53 57/57/57 55/55/55
f 53/53/53 49/49/49 57/57/57
f 52/52/52 57/57/57 49/49/49
f 58/58/58 55/55/55 57/57/57
f 56/56/56 59/59/59 54/54/54
f 60/60/60 54/54/54 59/59/59
f 54/54/54 60/60/60 48/48/48
f 46/46/46 48/48/48 60/60/60
f 59/59/59 61/61/61 60/60/60
f 62/62/62 60/60/60 61/61/61
f 62/62/62 61/61/61 63/63/63
f 64/64/64 63/63/63 61/61/61
f 64/64/64 65/65/65 63/63/63
f 66/66/66 63/63/63 65/65/65
f 65/65/65 67/67/67 66/66/66
f 68/68/68 66/66/66 67/67/67
f 68/68/68 67/67/67 69/69/69
f 70/70/70 69/69/69 67/67/67
f 70/70/70 71/71/71 69/69/69
f 72/72/72 69/69/69 71/71/71
f 71/71/71 73/73/73 72/72/72
f 74/74/74 72/72/72 73/73/73
f 74/74/74 73/73/73 75/75/75
f 76/76/76 75/75/75 73/73/73
f 76/76/76 77/77/77 75/75/75
f 78/78/78 75/75/75 77/77/77
f 75/75/75 78/78/78 30/30/30
f 75/75/75 30/30/30 74/74/74
f 29/29/29 30/30/30 78/78/78
f 31/31/31 74/74/74 30/30/30
f 74/74/74 31/31/31 72/72/72
f 34/34/34 72/72/72 31/31/31
f 69/69/69 72/72/72 36/36/36
f 34/34/34 36/36/36 72/72/72
f 69/69/69 36/36/36 68/68/68
f 37/37/37 68/68/68 36/36/36
f 77/77/77 76/76/76 79/79/79
f 80/80/80 79/79/79 76/76/76
f 79/79/79 80/80/80 81/81/81
f 82/82/82 81/81/81 80/80/80
f 82/82/82 80/80/80 83/83/83
f 84/84/84 83/83/83 80/80/80
f 80/80/80 76/76/76 84/84/84
f 84/84/84 85/85/85 83/83/83
f 86/86/86 83/83/83 85/85/85
f 85/85/85 87/87/87 86/86/86
f 88/88/88 86/86/86 87/87/87
f 88/88/88 87/87/87 89/89/89
f 90/90/90 89/89/89 87/87/87
f 90/90/90 91/91/91 89/89/89
f 92/92/92 89/89/89 91/91/91
f 91/91/91 93/93/93 92/92/92
f 94/94/94 92/92/92 93/93/93
f 94/94/94 93/93/93 95/95/95
f 96/96/96 95/95/95 93/93/93
f 96/96/96 97/97/97 95/95/95
f 98/98/98 95/95/95 97/97/97
f 97/97/97 99/99/99 98/98/98
f 100/100/100 98/98/98 99/99/99
f 100/100/100 99/99/99 101/101/101
f 102/102/102 101/101/101 99/99/99
f 102/102/102 103/103/103 101/101/101
f 104/104/104 101/101/101 103/103/103
f 101/101/101 105/105/105 100/100/100
f 106/106/106 100/100/100 105/105/105
f 105/105/105 101/101/101 107/107/107
f 104/104/104 107/107/107 101/101/101
f 92/92/92 94/94/94 108/108/108
f 92/92/92 108/108/108 89/89/89
f 109/109/109 89/89/89 108/108/108
f 89/89/89 109/109/109 88/88/88
f 110/110/110 88/88/88 109/109/109
f 110/110/110 111/111/111 88/88/88
f 86/86/86 88/88/88 111/111/111
f 86/86/86 111/111/111 83/83/83
f 112/112/112 83/83/83 111/111/111
f 83/83/83 112/112/112 82/82/82
f 113/113/113 82/82/82 112/112/112
f 113/113/113 114/114/114 82/82/82
f 81/81/81 82/82/82 114/114/114
f 115/115/115 108/108/108 94/94/94
f 115/115/115 94/94/94 116/116/116
f 95/95/95 116/116/116 94/94/94
f 116/116/116 95/95/95 117/117/117
f 98/98/98 117/117/117 95/95/95
f 98/98/98 100/100/100 117/117/117
f 106/106/106 117/117/117 100/100/100
f 120/120/120 119/119/119 118/118/118
f 121/121/121 118/118/118 119/119/119
f 119/119/119 120/120/120 122/122/122
f 123/123/123 122/122/122 120/120/120
f 118/118/118 121/121/121 124/124/124
f 125/125/125 124/124/124 121/121/121
f 124/124/124 125/125/125 126/126/126
f 127/127/127 126/126/126 125/125/125
f 126/126/126 127/127/127 128/128/128
f 129/129/129 128/128/128 127/127/127
f 128/128/128 129/129/129 130/130/130
f 131/131/131 130/130/130 129/129/129
f 130/130/130 131/131/131 132/132/132
f 133/133/133 132/132/132 131/131/131
f 132/132/132 133/133/133 134/134/134
f 135/135/135 134/134/134 133/133/133
f 134/134/134 135/135/135 136/136/136
f 137/137/137 136/136/136 135/135/135
f 136/136/136 137/137/137 138/138/138
f 139/139/139 138/138/138 137/137/137
f 138/138/138 139/139/139 140/140/140
f 141/141/141 140/140/140 139/139/139
f 140/140/140 141/141/141 142/142/142
f 143/143/143 142/142/142 141/141/141
f 141/141/141 144/144/144 143/143/143
f 141/141/141 139/139/139 144/144/144
f 145/145/145 143/143/143 144/144/144
f 146/146/146 144/144/144 139/139/139
f 139/139/139 137/137/137 146/146/146
f 147/147/147 146/146/146 137/137/137
f 135/135/135 148/148/148 137/137/137
f 147/147/147 137/137/137 148/148/148
f 135/135/135 133/133/133 148/148/148
f 149/149/149 148/148/148 133/133/133
f 144/144/144 150/150/150 145/145/145
f 151/151/151 145/145/145 150/150/150
f 146/146/146 152/152/152 144/144/144
f 150/150/150 144/144/144 152/152/152
f 147/147/147 153/153/153 146/146/146
f 152/152/152 146/146/146 153/153/153
f 148/148/148 154/154/154 147/147/147
f 153/153/153 147/147/147 154/154/154
f 149/149/149 155/155/155 148/148/148
f 154/154/154 148/148/148 155/155/155
f 155/155/155 149/149/149 156/156/156
f 157/157/157 156/156/156 149/149/149
f 157/157/157 149/149/149 131/131/131
f 133/133/133 131/131/131 149/149/149
f 157/157/157 131/131/131 158/158/158
f 129/129/129 158/158/158 131/131/131
f 129/129/129 127/127/127 158/158/158
f 159/159/159 158/158/158 127/127/127
f 127/127/127 125/125/125 159/159/159
f 160/160/160 159/159/159 125/125/125
f 125/125/125 121/121/121 160/160/160
f 161/161/161 160/160/160 121/121/121
f 161/161/161 121/121/121 162/162/162
f 119/119/119 162/162/162 121/121/121
f 119/119/119 122/122/122 162/162/162
f 163/163/163 162/162/162 122/122/122
f 162/162/162 164/164/164 161/161/161
f 165/165/165 161/161/161 164/164/164
f 161/161/161 165/165/165 160/160/160
f 163/163/163 166/166/166 162/162/162
f 164/164/164 162/162/162 166/166/166
f 159/159/159 167/167/167 158/158/158
f 168/168/168 158/158/158 167/167/167
f 160/160/160 169/169/169 159/159/159
f 167/167/167 159/159/159 169/169/169
f 169/169/169 160/160/160 165/165/165
f 165/165/165 164/164/164 170/170/170
f 164/164/164 166/166/166 170/170/170
f 168/168/168 167/167/167 170/170/170
f 167/167/167 169/169/169 170/170/170
f 169/169/169 165/165/165 170/170/170
f 156/156/156 168/168/168 170/170/170
f 156/156/156 157/157/157 168/168/168
f 158/158/158 168/168/168 157/157/157
f 155/155/155 156/156/156 170/170/170
f 154/154/154 155/155/155 170/170/170
f 153/153/153 154/154/154 170/170/170
f 152/152/152 153/153/153 170/170/170
f 150/150/150 152/152/152 170/170/170
f 151/151/151 150/150/150 170/170/170
f 68/68/68 37/37/37 66/66/66
f 40/40/40 66/66/66 37/37/37
f 40/40/40 42/42/42 66/66/66
f 63/63/63 66/66/66 42/42/42
f 63/63/63 42/42/42 62/62/62
f 43/43/43 62/62/62 42/42/42
f 62/62/62 43/43/43 60/60/60
f 46/46/46 60/60/60 43/43/43
f 99/99/99 56/56/56 102/102/102
f 55/55/55 102/102/102 56/56/56
f 102/102/102 55/55/55 103/103/103
f 58/58/58 103/103/103 55/55/55
f 99/99/99 97/97/97 56/56/56
f 59/59/59 56/56/56 97/97/97
f 59/59/59 97/97/97 61/61/61
f 96/96/96 61/61/61 97/97/97
f 61/61/61 96/96/96 64/64/64
f 93/93/93 64/64/64 96/96/96
f 93/93/93 91/91/91 64/64/64
f 65/65/65 64/64/64 91/91/91
f 65/65/65 91/91/91 67/67/67
f 90/90/90 67/67/67 91/91/91
f 67/67/67 90/90/90 70/70/70
f 87/87/87 70/70/70 90/90/90
f 87/87/87 85/85/85 70/70/70
f 71/71/71 70/70/70 85/85/85
f 71/71/71 85/85/85 73/73/73
f 84/84/84 73/73/73 85/85/85
f 73/73/73 84/84/84 76/76/76
f 47/47/47 4/4/4 50/50/50
f 2/2/2 50/50/50 4/4/4
f 50/50/50 2/2/2 51/51/51
f 6/6/6 51/51/51 2/2/2
f 47/47/47 45/45/45 4/4/4
f 7/7/7 4/4/4 45/45/45
f 7/7/7 45/45/45 9/9/9
f 44/44/44 9/9/9 45/45/45
f 9/9/9 44/44/44 12/12/12
f 41/41/41 12/12/12 44/44/44
f 41/41/41 39/39/39 12/12/12
f 13/13/13 12/12/12 39/39/39
f 13/13/13 39/39/39 15/15/15
f 38/38/38 15/15/15 39/39/39
f 15/15/15 38/38/38 18/18/18
f 35/35/35 18/18/18 38/38/38
f 35/35/35 33/33/33 18/18/18
