g mesh_cylinder
v 0.05746063 6.055832E-09 0
v 0.03524018 -1.211166E-08 0.4077452
v 0.03311493 0.01205284 0.4077451
v 0.05399533 0.01965269 0
v 0.02699554 0.02265195 0.4077452
v 0.0440174 0.03693498 0
v 0.01762008 0.03051889 0.4077452
v 0.02873031 0.04976238 0
v 0.006119376 0.0347048 0.4077452
v 0.009977934 0.05658766 0
v -0.006119406 0.0347048 0.4077452
v -0.009977937 0.05658768 0
v 0.05399533 -0.01965273 0
v 0.03311493 -0.01205287 0.4077452
v 0.04401736 -0.03693501 0
v 0.02699552 -0.02265198 0.4077452
v 0.02873029 -0.04976238 0
v 0.01762006 -0.03051891 0.4077452
v 0.009977903 -0.05658768 0
v 0.006119357 -0.03470482 0.4077452
v -0.009977958 -0.05658767 0
v -0.006119424 -0.03470481 0.4077452
v -0.02873033 -0.04976236 0
v -0.01762012 -0.0305189 0.4077452
v -0.04401741 -0.03693497 0
v -0.02699556 -0.02265195 0.4077452
v -0.05399533 -0.01965268 0
v -0.03311495 -0.01205286 0.4077452
v -0.05746063 6.055832E-09 0
v -0.03524019 -6.055832E-09 0.4077452
v -0.05399533 0.01965269 0
v -0.03311495 0.01205283 0.4077452
v -0.0440174 0.03693497 0
v -0.02699556 0.02265194 0.4077451
v -0.02873032 0.04976234 0
v -0.01762011 0.03051887 0.4077451
v -0.009977937 0.05658768 0
v -0.006119406 0.0347048 0.4077452
vt 0.75 0
vt 0.75 1
vt 0.8055555 1
vt 0.8055555 0
vt 0.861111 1
vt 0.861111 0
vt 0.9166667 1
vt 0.9166667 0
vt 0.9722222 1
vt 0.9722222 0
vt 1.027778 1
vt 1.027778 0
vt 0.6944443 0
vt 0.6944443 1
vt 0.6388888 0
vt 0.6388888 1
vt 0.5833333 0
vt 0.5833333 1
vt 0.5277777 0
vt 0.5277777 1
vt 0.4722221 0
vt 0.4722221 1
vt 0.4166666 0
vt 0.4166666 1
vt 0.3611111 0
vt 0.3611111 1
vt 0.3055555 0
vt 0.3055555 1
vt 0.25 0
vt 0.25 1
vt 0.1944444 0
vt 0.1944444 1
vt 0.1388889 0
vt 0.1388889 1
vt 0.08333335 0
vt 0.08333335 1
vt 0.02777781 0
vt 0.02777781 1
vn 0.9985184 0 0.0544152
vn 0.9985184 0 0.0544152
vn 0.9383004 0.3415134 0.0544152
vn 0.9383004 0.3415134 0.0544152
vn 0.7649094 0.6418354 0.05441521
vn 0.7649095 0.6418353 0.05441521
vn 0.4992589 0.8647425 0.0544152
vn 0.499259 0.8647425 0.05441521
vn 0.173391 0.9833487 0.05441519
vn 0.1733911 0.9833487 0.05441519
vn -0.1733912 0.9833487 0.05441519
vn -0.1733914 0.9833485 0.05441518
vn 0.9383001 -0.341514 0.0544152
vn 0.9383001 -0.341514 0.05441519
vn 0.7649088 -0.641836 0.05441518
vn 0.764909 -0.6418359 0.05441518
vn 0.4992588 -0.8647425 0.05441518
vn 0.4992588 -0.8647425 0.05441518
vn 0.1733904 -0.9833487 0.05441519
vn 0.1733904 -0.9833487 0.05441518
vn -0.1733914 -0.9833485 0.05441516
vn -0.1733914 -0.9833485 0.05441516
vn -0.4992596 -0.864742 0.05441515
vn -0.4992599 -0.8647419 0.05441516
vn -0.7649098 -0.6418349 0.05441514
vn -0.7649098 -0.641835 0.05441514
vn -0.9383004 -0.3415133 0.05441514
vn -0.9383004 -0.3415136 0.05441514
vn -0.9985184 0 0.05441516
vn -0.9985184 0 0.05441516
vn -0.9383004 0.3415134 0.05441517
vn -0.9383004 0.3415132 0.05441516
vn -0.7649093 0.6418355 0.05441517
vn -0.7649094 0.6418353 0.05441517
vn -0.4992597 0.864742 0.05441516
vn -0.4992595 0.8647421 0.05441516
vn -0.1733914 0.9833485 0.05441518
vn -0.1733912 0.9833487 0.05441519
g mesh_cylinder_0
f 3/3/3 2/2/2 1/1/1
f 4/4/4 3/3/3 1/1/1
f 5/5/5 3/3/3 4/4/4
f 6/6/6 5/5/5 4/4/4
f 7/7/7 5/5/5 6/6/6
f 8/8/8 7/7/7 6/6/6
f 9/9/9 7/7/7 8/8/8
f 10/10/10 9/9/9 8/8/8
f 11/11/11 9/9/9 10/10/10
f 12/12/12 11/11/11 10/10/10
f 1/1/1 2/2/2 13/13/13
f 2/2/2 14/14/14 13/13/13
f 13/13/13 14/14/14 15/15/15
f 14/14/14 16/16/16 15/15/15
f 15/15/15 16/16/16 17/17/17
f 16/16/16 18/18/18 17/17/17
f 17/17/17 18/18/18 19/19/19
f 18/18/18 20/20/20 19/19/19
f 19/19/19 20/20/20 21/21/21
f 20/20/20 22/22/22 21/21/21
f 21/21/21 22/22/22 23/23/23
f 22/22/22 24/24/24 23/23/23
f 23/23/23 24/24/24 25/25/25
f 24/24/24 26/26/26 25/25/25
f 25/25/25 26/26/26 27/27/27
f 26/26/26 28/28/28 27/27/27
f 27/27/27 28/28/28 29/29/29
f 28/28/28 30/30/30 29/29/29
f 29/29/29 30/30/30 31/31/31
f 30/30/30 32/32/32 31/31/31
f 31/31/31 32/32/32 33/33/33
f 32/32/32 34/34/34 33/33/33
f 33/33/33 34/34/34 35/35/35
f 34/34/34 36/36/36 35/35/35
f 35/35/35 36/36/36 37/37/37
f 36/36/36 38/38/38 37/37/37
