g mesh_glod
v 0.0836926 -0.07022653 -0.02619121
v 0.01897153 -0.1075932 -0.02619121
v 0.05462644 -0.0946159 -0.02619121
v 0.109253 0 -0.02619121
v 0.08369264 0.07022647 -0.02619121
v -0.1026642 -0.0373667 -0.02619121
v -0.05462653 -0.09461585 -0.02619121
v -0.01897163 -0.1075932 -0.02619121
v -0.08369267 -0.07022644 -0.02619121
v -0.0546265 0.09461586 -0.02619121
v -0.1026642 0.03736673 -0.02619121
v -0.109253 1.649674E-08 -0.02619121
v -0.08369264 0.07022647 -0.02619121
v 0.01897158 0.1075932 -0.02619121
v -0.0189716 0.1075932 -0.02619121
v 0.05462649 0.09461588 -0.02619121
v 0.1026642 0.03736672 -0.02619121
v 0.1026642 -0.0373668 -0.02619121
v 0.109253 0 -0.02619121
v 0.1026642 0.03736672 0.02619121
v 0.1026642 0.03736672 -0.02619121
v 0.109253 0 0.02619121
v 0.08369264 0.07022647 0.02619121
v 0.08369264 0.07022647 -0.02619121
v 0.05462649 0.09461588 0.02619121
v 0.05462649 0.09461588 -0.02619121
v 0.01897158 0.1075932 0.02619121
v 0.01897158 0.1075932 -0.02619121
v -0.0189716 0.1075932 0.02619121
v -0.0189716 0.1075932 -0.02619121
v -0.0546265 0.09461586 0.02619121
v -0.0546265 0.09461586 -0.02619121
v 0.1026642 -0.0373668 -0.02619121
v 0.1026642 -0.0373668 0.02619121
v 0.0836926 -0.07022653 -0.02619121
v 0.0836926 -0.07022653 0.02619121
v 0.05462644 -0.0946159 -0.02619121
v 0.05462644 -0.0946159 0.02619121
v -0.0546265 0.09461586 -0.02619121
v -0.08369264 0.07022647 0.02619121
v -0.08369264 0.07022647 -0.02619121
v -0.0546265 0.09461586 0.02619121
v -0.1026642 0.03736673 0.02619121
v -0.1026642 0.03736673 -0.02619121
v -0.109253 1.649674E-08 0.02619121
v -0.109253 1.649674E-08 -0.02619121
v -0.1026642 -0.0373667 0.02619121
v -0.1026642 -0.0373667 -0.02619121
v -0.08369267 -0.07022644 0.02619121
v -0.08369267 -0.07022644 -0.02619121
v -0.05462653 -0.09461585 0.02619121
v -0.05462653 -0.09461585 -0.02619121
v -0.01897163 -0.1075932 0.02619121
v -0.01897163 -0.1075932 -0.02619121
v 0.01897153 -0.1075932 0.02619121
v 0.01897153 -0.1075932 -0.02619121
v 0.05462644 -0.0946159 0.02619121
v 0.05462644 -0.0946159 -0.02619121
v 0.109253 0 0.02619121
v 0.08369264 0.07022647 0.02619121
v 0.1026642 0.03736672 0.02619121
v 0.0836926 -0.07022653 0.02619121
v 0.01897153 -0.1075932 0.02619121
v -0.0546265 0.09461586 0.02619121
v 0.01897158 0.1075932 0.02619121
v 0.05462649 0.09461588 0.02619121
v -0.0189716 0.1075932 0.02619121
v -0.1026642 -0.0373667 0.02619121
v -0.1026642 0.03736673 0.02619121
v -0.08369264 0.07022647 0.02619121
v -0.109253 1.649674E-08 0.02619121
v -0.05462653 -0.09461585 0.02619121
v -0.08369267 -0.07022644 0.02619121
v -0.01897163 -0.1075932 0.02619121
v 0.05462644 -0.0946159 0.02619121
v 0.1026642 -0.0373668 0.02619121
vt 0.8707654 0.8111095
vt 0.5840455 0.976647
vt 0.7419997 0.9191564
vt 0.984 0.5
vt 0.8707655 0.1888908
vt 0.04518871 0.6655376
vt 0.2579998 0.9191562
vt 0.4159541 0.976647
vt 0.1292344 0.8111092
vt 0.258 0.0808437
vt 0.04518873 0.3344623
vt 0.016 0.4999999
vt 0.1292344 0.1888908
vt 0.5840457 0.02335303
vt 0.4159542 0.02335308
vt 0.742 0.08084367
vt 0.9548113 0.3344623
vt 0.9548112 0.6655382
vt 0.9002324 0.9727437
vt 0.8459824 0.9863645
vt 0.8459824 0.9727437
vt 0.9002324 0.9863645
vt 0.789485 0.9863645
vt 0.789485 0.9727437
vt 0.7375548 0.9863645
vt 0.7375548 0.9727437
vt 0.6964551 0.9863645
vt 0.6964551 0.9727437
vt 0.6711433 0.9863645
vt 0.6711433 0.9727437
vt 0.6646723 0.9863645
vt 0.6646723 0.9727437
vt 0.9456917 0.9727437
vt 0.9456917 0.9863645
vt 0.9768771 0.9727437
vt 0.9768771 0.9863645
vt 0.9900274 0.9727437
vt 0.9900274 0.9863645
vt 0.6646723 0.9727437
vt 0.6778226 0.9863645
vt 0.6778226 0.9727437
vt 0.6646723 0.9863645
vt 0.709008 0.9863645
vt 0.709008 0.9727437
vt 0.7544672 0.9863645
vt 0.7544672 0.9727437
vt 0.8087172 0.9863645
vt 0.8087172 0.9727437
vt 0.8652145 0.9863645
vt 0.8652145 0.9727437
vt 0.9171448 0.9863645
vt 0.9171448 0.9727437
vt 0.9582443 0.9863645
vt 0.9582443 0.9727437
vt 0.9835562 0.9863645
vt 0.9835562 0.9727437
vt 0.9900274 0.9863645
vt 0.9900274 0.9727437
vt 0.984 0.5
vt 0.8707655 0.8111093
vt 0.9548113 0.6655377
vt 0.8707654 0.1888905
vt 0.5840455 0.02335303
vt 0.258 0.9191563
vt 0.5840457 0.976647
vt 0.742 0.9191563
vt 0.4159542 0.976647
vt 0.04518871 0.3344624
vt 0.04518873 0.6655378
vt 0.1292344 0.8111093
vt 0.016 0.5000001
vt 0.2579998 0.08084379
vt 0.1292344 0.1888909
vt 0.4159541 0.02335308
vt 0.7419997 0.08084357
vt 0.9548112 0.3344619
vn 0 0 -1
vn 0 0 -1
vn 0 0 -1
vn 0 0 -1
vn 0 0 -1
vn 0 0 -1
vn 0 0 -1
vn 0 0 -1
vn 0 0 -1
vn 0 0 -1
vn 0 0 -1
vn 0 0 -1
vn 0 0 -1
vn 0 0 -1
vn 0 0 -1
vn 0 0 -1
vn 0 0 -1
vn 0 0 -1
vn 1 0 0
vn 0.9396926 0.3420202 0
vn 0.9396926 0.3420202 0
vn 1 0 0
vn 0.7660445 0.6427875 0
vn 0.7660445 0.6427875 0
vn 0.5000001 0.8660253 0
vn 0.5000001 0.8660254 0
vn 0.173648 0.9848077 0
vn 0.173648 0.9848077 0
vn -0.1736484 0.9848077 0
vn -0.1736484 0.9848077 0
vn -0.5000001 0.8660253 0
vn -0.5000001 0.8660253 0
vn 0.9396924 -0.3420207 0
vn 0.9396924 -0.3420207 0
vn 0.766044 -0.6427881 0
vn 0.766044 -0.6427881 0
vn 0.4999995 -0.8660258 0
vn 0.4999994 -0.8660258 0
vn -0.5000001 0.8660253 0
vn -0.7660445 0.6427875 0
vn -0.7660444 0.6427876 0
vn -0.5000001 0.8660253 0
vn -0.9396926 0.3420203 0
vn -0.9396926 0.3420203 0
vn -1 0 0
vn -1 0 0
vn -0.9396926 -0.34202 0
vn -0.9396926 -0.3420199 0
vn -0.7660446 -0.6427873 0
vn -0.7660446 -0.6427874 0
vn -0.5000004 -0.8660253 0
vn -0.5000004 -0.8660253 0
vn -0.1736486 -0.9848077 0
vn -0.1736486 -0.9848077 0
vn 0.1736478 -0.9848078 0
vn 0.1736477 -0.9848078 0
vn 0.4999994 -0.8660258 0
vn 0.4999995 -0.8660258 0
vn 0 0 1
vn 0 0 1
vn 0 0 1
vn 0 0 1
vn 0 0 1
vn 0 0 1
vn 0 0 1
vn 0 0 1
vn 0 0 1
vn 0 0 1
vn 0 0 1
vn 0 0 1
vn 0 0 1
vn 0 0 1
vn 0 0 1
vn 0 0 1
vn 0 0 1
vn 0 0 1
g mesh_glod_0
f 3/3/3 2/2/2 1/1/1
f 2/2/2 4/4/4 1/1/1
f 5/5/5 4/4/4 2/2/2
f 6/6/6 5/5/5 2/2/2
f 7/7/7 6/6/6 2/2/2
f 8/8/8 7/7/7 2/2/2
f 9/9/9 6/6/6 7/7/7
f 10/10/10 5/5/5 6/6/6
f 11/11/11 10/10/10 6/6/6
f 12/12/12 11/11/11 6/6/6
f 13/13/13 10/10/10 11/11/11
f 14/14/14 5/5/5 10/10/10
f 15/15/15 14/14/14 10/10/10
f 16/16/16 5/5/5 14/14/14
f 17/17/17 4/4/4 5/5/5
f 1/1/1 4/4/4 18/18/18
f 21/21/21 20/20/20 19/19/19
f 22/22/22 19/19/19 20/20/20
f 20/20/20 21/21/21 23/23/23
f 24/24/24 23/23/23 21/21/21
f 23/23/23 24/24/24 25/25/25
f 26/26/26 25/25/25 24/24/24
f 25/25/25 26/26/26 27/27/27
f 28/28/28 27/27/27 26/26/26
f 27/27/27 28/28/28 29/29/29
f 30/30/30 29/29/29 28/28/28
f 29/29/29 30/30/30 31/31/31
f 32/32/32 31/31/31 30/30/30
f 19/19/19 22/22/22 33/33/33
f 34/34/34 33/33/33 22/22/22
f 33/33/33 34/34/34 35/35/35
f 36/36/36 35/35/35 34/34/34
f 35/35/35 36/36/36 37/37/37
f 38/38/38 37/37/37 36/36/36
f 41/41/41 40/40/40 39/39/39
f 42/42/42 39/39/39 40/40/40
f 40/40/40 41/41/41 43/43/43
f 44/44/44 43/43/43 41/41/41
f 43/43/43 44/44/44 45/45/45
f 46/46/46 45/45/45 44/44/44
f 45/45/45 46/46/46 47/47/47
f 48/48/48 47/47/47 46/46/46
f 47/47/47 48/48/48 49/49/49
f 50/50/50 49/49/49 48/48/48
f 49/49/49 50/50/50 51/51/51
f 52/52/52 51/51/51 50/50/50
f 51/51/51 52/52/52 53/53/53
f 54/54/54 53/53/53 52/52/52
f 53/53/53 54/54/54 55/55/55
f 56/56/56 55/55/55 54/54/54
f 55/55/55 56/56/56 57/57/57
f 58/58/58 57/57/57 56/56/56
f 61/61/61 60/60/60 59/59/59
f 60/60/60 62/62/62 59/59/59
f 63/63/63 62/62/62 60/60/60
f 64/64/64 63/63/63 60/60/60
f 65/65/65 64/64/64 60/60/60
f 66/66/66 65/65/65 60/60/60
f 67/67/67 64/64/64 65/65/65
f 68/68/68 63/63/63 64/64/64
f 69/69/69 68/68/68 64/64/64
f 70/70/70 69/69/69 64/64/64
f 71/71/71 68/68/68 69/69/69
f 72/72/72 63/63/63 68/68/68
f 73/73/73 72/72/72 68/68/68
f 74/74/74 63/63/63 72/72/72
f 75/75/75 62/62/62 63/63/63
f 59/59/59 62/62/62 76/76/76
