g speedup
v 0.01165794 3.206416 0.05240448
v -2.312831 1.511448 0.05240448
v -2.312831 2.311448 0.05240448
v 0.01165794 4.006416 0.05240448
v 2.336147 1.511448 0.05240448
v 2.336147 2.311448 0.05240448
v -2.312831 1.511448 -0.01759553
v -2.312831 1.511448 0.05240448
v 0.01165794 3.206416 0.05240448
v 0.01165794 3.206416 -0.01759553
v 2.336147 1.511448 -0.01759553
v 2.336147 1.511448 0.05240448
v 2.336147 1.511448 0.05240448
v 2.336147 2.311448 0.05240448
v 2.336147 2.311448 -0.01759553
v 2.336147 1.511448 -0.01759553
v 2.336147 2.311448 -0.01759553
v 2.336147 2.311448 0.05240448
v 0.01165794 4.006416 0.05240448
v 0.01165794 4.006416 -0.01759553
v -2.312831 2.311448 -0.01759553
v -2.312831 2.311448 0.05240448
v -2.312831 2.311448 0.05240448
v -2.312831 1.511448 0.05240448
v -2.312831 1.511448 -0.01759553
v -2.312831 2.311448 -0.01759553
v 0.01165794 1.71362 0.05240448
v -2.312831 0.01865181 0.05240448
v -2.312831 0.8186516 0.05240448
v 0.01165794 2.51362 0.05240448
v 2.336147 0.01865181 0.05240448
v 2.336147 0.8186516 0.05240448
v -2.312831 0.01865181 -0.01759553
v -2.312831 0.01865181 0.05240448
v 0.01165794 1.71362 0.05240448
v 0.01165794 1.71362 -0.01759553
v 2.336147 0.01865181 -0.01759553
v 2.336147 0.01865181 0.05240448
v 2.336147 0.01865181 0.05240448
v 2.336147 0.8186516 0.05240448
v 2.336147 0.8186516 -0.01759553
v 2.336147 0.01865181 -0.01759553
v 2.336147 0.8186516 -0.01759553
v 2.336147 0.8186516 0.05240448
v 0.01165794 2.51362 0.05240448
v 0.01165794 2.51362 -0.01759553
v -2.312831 0.8186516 -0.01759553
v -2.312831 0.8186516 0.05240448
v -2.312831 0.8186516 0.05240448
v -2.312831 0.01865181 0.05240448
v -2.312831 0.01865181 -0.01759553
v -2.312831 0.8186516 -0.01759553
vt 0.1109924 0.9313486
vt 0.1109924 0.9313486
vt 0.1109924 0.9313486
vt 0.1109924 0.9313486
vt 0.1109924 0.9313486
vt 0.1109924 0.9313486
vt 0.1109924 0.9313486
vt 0.1109924 0.9313486
vt 0.1109924 0.9313486
vt 0.1109924 0.9313486
vt 0.1109924 0.9313486
vt 0.1109924 0.9313486
vt 0.1109924 0.9313486
vt 0.1109924 0.9313486
vt 0.1109924 0.9313486
vt 0.1109924 0.9313486
vt 0.1109924 0.9313486
vt 0.1109924 0.9313486
vt 0.1109924 0.9313486
vt 0.1109924 0.9313486
vt 0.1109924 0.9313486
vt 0.1109924 0.9313486
vt 0.1109924 0.9313486
vt 0.1109924 0.9313486
vt 0.1109924 0.9313486
vt 0.1109924 0.9313486
vt 0.1109924 0.9313486
vt 0.1109924 0.9313486
vt 0.1109924 0.9313486
vt 0.1109924 0.9313486
vt 0.1109924 0.9313486
vt 0.1109924 0.9313486
vt 0.1109924 0.9313486
vt 0.1109924 0.9313486
vt 0.1109924 0.9313486
vt 0.1109924 0.9313486
vt 0.1109924 0.9313486
vt 0.1109924 0.9313486
vt 0.1109924 0.9313486
vt 0.1109924 0.9313486
vt 0.1109924 0.9313486
vt 0.1109924 0.9313486
vt 0.1109924 0.9313486
vt 0.1109924 0.9313486
vt 0.1109924 0.9313486
vt 0.1109924 0.9313486
vt 0.1109924 0.9313486
vt 0.1109924 0.9313486
vt 0.1109924 0.9313486
vt 0.1109924 0.9313486
vt 0.1109924 0.9313486
vt 0.1109924 0.9313486
vn 0 0 1
vn 0 0 1
vn 0 0 1
vn 0 0 1
vn 0 0 1
vn 0 0 1
vn 0.5891786 -0.8080029 0
vn 0.5891786 -0.8080029 0
vn 0 -1 0
vn 0 -1 0
vn -0.5891786 -0.8080029 0
vn -0.5891786 -0.8080029 0
vn 1 0 0
vn 1 0 0
vn 1 0 0
vn 1 0 0
vn 0.5891786 0.8080029 0
vn 0.5891786 0.8080029 0
vn 0 1 0
vn 0 1 0
vn -0.5891786 0.8080029 0
vn -0.5891786 0.8080029 0
vn -1 0 0
vn -1 0 0
vn -1 0 0
vn -1 0 0
vn 0 0 1
vn 0 0 1
vn 0 0 1
vn 0 0 1
vn 0 0 1
vn 0 0 1
vn 0.5891785 -0.8080029 0
vn 0.5891785 -0.8080029 0
vn 0 -1 0
vn 0 -1 0
vn -0.5891785 -0.8080029 0
vn -0.5891785 -0.8080029 0
vn 1 0 0
vn 1 0 0
vn 1 0 0
vn 1 0 0
vn 0.5891785 0.8080028 0
vn 0.5891785 0.8080028 0
vn 0 1 0
vn 0 1 0
vn -0.5891785 0.8080028 0
vn -0.5891785 0.8080028 0
vn -1 0 0
vn -1 0 0
vn -1 0 0
vn -1 0 0
g speedup_0
f 3/3/3 2/2/2 1/1/1
f 4/4/4 3/3/3 1/1/1
f 4/4/4 1/1/1 5/5/5
f 6/6/6 4/4/4 5/5/5
f 9/9/9 8/8/8 7/7/7
f 10/10/10 9/9/9 7/7/7
f 9/9/9 10/10/10 11/11/11
f 12/12/12 9/9/9 11/11/11
f 15/15/15 14/14/14 13/13/13
f 16/16/16 15/15/15 13/13/13
f 19/19/19 18/18/18 17/17/17
f 20/20/20 19/19/19 17/17/17
f 19/19/19 20/20/20 21/21/21
f 22/22/22 19/19/19 21/21/21
f 25/25/25 24/24/24 23/23/23
f 26/26/26 25/25/25 23/23/23
f 29/29/29 28/28/28 27/27/27
f 30/30/30 29/29/29 27/27/27
f 30/30/30 27/27/27 31/31/31
f 32/32/32 30/30/30 31/31/31
f 35/35/35 34/34/34 33/33/33
f 36/36/36 35/35/35 33/33/33
f 35/35/35 36/36/36 37/37/37
f 38/38/38 35/35/35 37/37/37
f 41/41/41 40/40/40 39/39/39
f 42/42/42 41/41/41 39/39/39
f 45/45/45 44/44/44 43/43/43
f 46/46/46 45/45/45 43/43/43
f 45/45/45 46/46/46 47/47/47
f 48/48/48 45/45/45 47/47/47
f 51/51/51 50/50/50 49/49/49
f 52/52/52 51/51/51 49/49/49
